solid Cheetah3Dfile
 facet normal -0.0000 0.0000 -1.0000
   outer loop
     vertex -1.0607 1.0607 -6.0000
     vertex -1.2472 0.8334 -6.0000
     vertex -6.0000 6.0000 -6.0000
   endloop
 endfacet
 facet normal -0.0000 0.0000 -1.0000
   outer loop
     vertex 1.0607 -1.0607 -6.0000
     vertex 6.0000 -6.0000 -6.0000
     vertex 0.8334 -1.2472 -6.0000
   endloop
 endfacet
 facet normal -0.0000 0.0000 -1.0000
   outer loop
     vertex -6.0000 6.0000 -6.0000
     vertex -1.2472 0.8334 -6.0000
     vertex -6.0000 -6.0000 -6.0000
   endloop
 endfacet
 facet normal -0.0000 0.0000 -1.0000
   outer loop
     vertex 0.8334 -1.2472 -6.0000
     vertex 6.0000 -6.0000 -6.0000
     vertex 0.5740 -1.3858 -6.0000
   endloop
 endfacet
 facet normal 0.0000 -0.0000 -1.0000
   outer loop
     vertex -1.2472 0.8334 -6.0000
     vertex -1.3858 0.5740 -6.0000
     vertex -6.0000 -6.0000 -6.0000
   endloop
 endfacet
 facet normal -0.0000 0.0000 -1.0000
   outer loop
     vertex 0.5740 -1.3858 -6.0000
     vertex 6.0000 -6.0000 -6.0000
     vertex 0.2926 -1.4712 -6.0000
   endloop
 endfacet
 facet normal 0.0000 -0.0000 -1.0000
   outer loop
     vertex -1.3858 0.5740 -6.0000
     vertex -1.4712 0.2926 -6.0000
     vertex -6.0000 -6.0000 -6.0000
   endloop
 endfacet
 facet normal -0.0000 0.0000 -1.0000
   outer loop
     vertex 0.2926 -1.4712 -6.0000
     vertex 6.0000 -6.0000 -6.0000
     vertex 0.0000 -1.5000 -6.0000
   endloop
 endfacet
 facet normal 0.0000 -0.0000 -1.0000
   outer loop
     vertex -1.4712 0.2926 -6.0000
     vertex -1.5000 0.0000 -6.0000
     vertex -6.0000 -6.0000 -6.0000
   endloop
 endfacet
 facet normal 0.0000 0.0000 -1.0000
   outer loop
     vertex 0.0000 -1.5000 -6.0000
     vertex 6.0000 -6.0000 -6.0000
     vertex -0.2926 -1.4712 -6.0000
   endloop
 endfacet
 facet normal 0.0000 0.0000 -1.0000
   outer loop
     vertex -1.5000 0.0000 -6.0000
     vertex -1.4712 -0.2926 -6.0000
     vertex -6.0000 -6.0000 -6.0000
   endloop
 endfacet
 facet normal 0.0000 0.0000 -1.0000
   outer loop
     vertex -0.2926 -1.4712 -6.0000
     vertex 6.0000 -6.0000 -6.0000
     vertex -0.5740 -1.3858 -6.0000
   endloop
 endfacet
 facet normal 0.0000 0.0000 -1.0000
   outer loop
     vertex -1.4712 -0.2926 -6.0000
     vertex -1.3858 -0.5740 -6.0000
     vertex -6.0000 -6.0000 -6.0000
   endloop
 endfacet
 facet normal 0.0000 0.0000 -1.0000
   outer loop
     vertex -0.5740 -1.3858 -6.0000
     vertex 6.0000 -6.0000 -6.0000
     vertex -0.8334 -1.2472 -6.0000
   endloop
 endfacet
 facet normal 0.0000 0.0000 -1.0000
   outer loop
     vertex -1.3858 -0.5740 -6.0000
     vertex -1.2472 -0.8334 -6.0000
     vertex -6.0000 -6.0000 -6.0000
   endloop
 endfacet
 facet normal -0.0000 0.0000 -1.0000
   outer loop
     vertex 6.0000 -6.0000 -6.0000
     vertex -6.0000 -6.0000 -6.0000
     vertex -0.8334 -1.2472 -6.0000
   endloop
 endfacet
 facet normal 0.0000 0.0000 -1.0000
   outer loop
     vertex -1.2472 -0.8334 -6.0000
     vertex -1.0607 -1.0607 -6.0000
     vertex -6.0000 -6.0000 -6.0000
   endloop
 endfacet
 facet normal 0.0000 0.0000 -1.0000
   outer loop
     vertex -0.8334 -1.2472 -6.0000
     vertex -6.0000 -6.0000 -6.0000
     vertex -1.0607 -1.0607 -6.0000
   endloop
 endfacet
 facet normal -0.0000 0.0000 -1.0000
   outer loop
     vertex 1.0607 -1.0607 -6.0000
     vertex 1.2472 -0.8334 -6.0000
     vertex 6.0000 -6.0000 -6.0000
   endloop
 endfacet
 facet normal nan nan nan
   outer loop
     vertex -1.0607 1.0607 -6.0000
     vertex -6.0000 6.0000 -6.0000
     vertex -1.0607 1.0607 -6.0000
   endloop
 endfacet
 facet normal -0.0000 0.0000 -1.0000
   outer loop
     vertex 6.0000 -6.0000 -6.0000
     vertex 1.2472 -0.8334 -6.0000
     vertex 6.0000 6.0000 -6.0000
   endloop
 endfacet
 facet normal -0.0000 0.0000 -1.0000
   outer loop
     vertex -1.0607 1.0607 -6.0000
     vertex -6.0000 6.0000 -6.0000
     vertex -0.8334 1.2472 -6.0000
   endloop
 endfacet
 facet normal 0.0000 -0.0000 -1.0000
   outer loop
     vertex 1.2472 -0.8334 -6.0000
     vertex 1.3858 -0.5740 -6.0000
     vertex 6.0000 6.0000 -6.0000
   endloop
 endfacet
 facet normal -0.0000 0.0000 -1.0000
   outer loop
     vertex -0.8334 1.2472 -6.0000
     vertex -6.0000 6.0000 -6.0000
     vertex -0.5740 1.3858 -6.0000
   endloop
 endfacet
 facet normal 0.0000 -0.0000 -1.0000
   outer loop
     vertex 1.3858 -0.5740 -6.0000
     vertex 1.4712 -0.2926 -6.0000
     vertex 6.0000 6.0000 -6.0000
   endloop
 endfacet
 facet normal -0.0000 0.0000 -1.0000
   outer loop
     vertex -0.5740 1.3858 -6.0000
     vertex -6.0000 6.0000 -6.0000
     vertex -0.2926 1.4712 -6.0000
   endloop
 endfacet
 facet normal 0.0000 -0.0000 -1.0000
   outer loop
     vertex 1.4712 -0.2926 -6.0000
     vertex 1.5000 0.0000 -6.0000
     vertex 6.0000 6.0000 -6.0000
   endloop
 endfacet
 facet normal -0.0000 0.0000 -1.0000
   outer loop
     vertex -0.2926 1.4712 -6.0000
     vertex -6.0000 6.0000 -6.0000
     vertex 0.0000 1.5000 -6.0000
   endloop
 endfacet
 facet normal 0.0000 0.0000 -1.0000
   outer loop
     vertex 1.5000 0.0000 -6.0000
     vertex 1.4712 0.2926 -6.0000
     vertex 6.0000 6.0000 -6.0000
   endloop
 endfacet
 facet normal 0.0000 0.0000 -1.0000
   outer loop
     vertex 0.0000 1.5000 -6.0000
     vertex -6.0000 6.0000 -6.0000
     vertex 0.2926 1.4712 -6.0000
   endloop
 endfacet
 facet normal 0.0000 0.0000 -1.0000
   outer loop
     vertex 1.4712 0.2926 -6.0000
     vertex 1.3858 0.5740 -6.0000
     vertex 6.0000 6.0000 -6.0000
   endloop
 endfacet
 facet normal 0.0000 0.0000 -1.0000
   outer loop
     vertex 0.2926 1.4712 -6.0000
     vertex -6.0000 6.0000 -6.0000
     vertex 0.5740 1.3858 -6.0000
   endloop
 endfacet
 facet normal 0.0000 0.0000 -1.0000
   outer loop
     vertex 1.3858 0.5740 -6.0000
     vertex 1.2472 0.8334 -6.0000
     vertex 6.0000 6.0000 -6.0000
   endloop
 endfacet
 facet normal 0.0000 0.0000 -1.0000
   outer loop
     vertex 0.5740 1.3858 -6.0000
     vertex -6.0000 6.0000 -6.0000
     vertex 0.8334 1.2472 -6.0000
   endloop
 endfacet
 facet normal 0.0000 0.0000 -1.0000
   outer loop
     vertex 1.2472 0.8334 -6.0000
     vertex 1.0607 1.0607 -6.0000
     vertex 6.0000 6.0000 -6.0000
   endloop
 endfacet
 facet normal -0.0000 0.0000 -1.0000
   outer loop
     vertex -6.0000 6.0000 -6.0000
     vertex 6.0000 6.0000 -6.0000
     vertex 0.8334 1.2472 -6.0000
   endloop
 endfacet
 facet normal 0.0000 0.0000 -1.0000
   outer loop
     vertex 1.0607 1.0607 -6.0000
     vertex 0.8334 1.2472 -6.0000
     vertex 6.0000 6.0000 -6.0000
   endloop
 endfacet
 facet normal -0.0977 -0.9904 -0.0977
   outer loop
     vertex 0.2926 1.4712 -6.0000
     vertex 0.2870 1.4429 -5.7074
     vertex 0.0000 1.4712 -5.7074
   endloop
 endfacet
 facet normal -0.0975 -0.9905 -0.0975
   outer loop
     vertex 0.0000 1.4712 -5.7074
     vertex 0.0000 1.5000 -6.0000
     vertex 0.2926 1.4712 -6.0000
   endloop
 endfacet
 facet normal 0.0977 -0.9904 -0.0975
   outer loop
     vertex 0.0000 1.5000 -6.0000
     vertex 0.0000 1.4712 -5.7074
     vertex -0.2870 1.4429 -5.7074
   endloop
 endfacet
 facet normal 0.0975 -0.9904 -0.0977
   outer loop
     vertex -0.2870 1.4429 -5.7074
     vertex -0.2926 1.4712 -6.0000
     vertex 0.0000 1.5000 -6.0000
   endloop
 endfacet
 facet normal -0.0937 -0.9528 -0.2889
   outer loop
     vertex 0.2870 1.4429 -5.7074
     vertex 0.2704 1.3592 -5.4260
     vertex 0.0000 1.3858 -5.4260
   endloop
 endfacet
 facet normal -0.0939 -0.9527 -0.2891
   outer loop
     vertex 0.0000 1.3858 -5.4260
     vertex 0.0000 1.4712 -5.7074
     vertex 0.2870 1.4429 -5.7074
   endloop
 endfacet
 facet normal -0.2888 -0.9524 -0.0974
   outer loop
     vertex 0.5740 1.3858 -6.0000
     vertex 0.5630 1.3592 -5.7074
     vertex 0.2870 1.4429 -5.7074
   endloop
 endfacet
 facet normal -0.2890 -0.9523 -0.0976
   outer loop
     vertex 0.2870 1.4429 -5.7074
     vertex 0.2926 1.4712 -6.0000
     vertex 0.5740 1.3858 -6.0000
   endloop
 endfacet
 facet normal 0.2888 -0.9524 -0.0976
   outer loop
     vertex -0.2926 1.4712 -6.0000
     vertex -0.2870 1.4429 -5.7074
     vertex -0.5630 1.3592 -5.7074
   endloop
 endfacet
 facet normal 0.2890 -0.9524 -0.0974
   outer loop
     vertex -0.5630 1.3592 -5.7074
     vertex -0.5740 1.3858 -6.0000
     vertex -0.2926 1.4712 -6.0000
   endloop
 endfacet
 facet normal 0.0937 -0.9527 -0.2891
   outer loop
     vertex 0.0000 1.4712 -5.7074
     vertex 0.0000 1.3858 -5.4260
     vertex -0.2704 1.3592 -5.4260
   endloop
 endfacet
 facet normal 0.0939 -0.9527 -0.2889
   outer loop
     vertex -0.2704 1.3592 -5.4260
     vertex -0.2870 1.4429 -5.7074
     vertex 0.0000 1.4712 -5.7074
   endloop
 endfacet
 facet normal -0.0867 -0.8786 -0.4697
   outer loop
     vertex 0.2704 1.3592 -5.4260
     vertex 0.2433 1.2232 -5.1666
     vertex 0.0000 1.2472 -5.1666
   endloop
 endfacet
 facet normal -0.0864 -0.8787 -0.4695
   outer loop
     vertex 0.0000 1.2472 -5.1666
     vertex 0.0000 1.3858 -5.4260
     vertex 0.2704 1.3592 -5.4260
   endloop
 endfacet
 facet normal -0.2781 -0.9160 -0.2891
   outer loop
     vertex 0.5630 1.3592 -5.7074
     vertex 0.5303 1.2803 -5.4260
     vertex 0.2704 1.3592 -5.4260
   endloop
 endfacet
 facet normal -0.2778 -0.9162 -0.2889
   outer loop
     vertex 0.2704 1.3592 -5.4260
     vertex 0.2870 1.4429 -5.7074
     vertex 0.5630 1.3592 -5.7074
   endloop
 endfacet
 facet normal -0.4693 -0.8776 -0.0978
   outer loop
     vertex 0.8334 1.2472 -6.0000
     vertex 0.8173 1.2232 -5.7074
     vertex 0.5630 1.3592 -5.7074
   endloop
 endfacet
 facet normal -0.4690 -0.8778 -0.0974
   outer loop
     vertex 0.5630 1.3592 -5.7074
     vertex 0.5740 1.3858 -6.0000
     vertex 0.8334 1.2472 -6.0000
   endloop
 endfacet
 facet normal 0.4694 -0.8776 -0.0974
   outer loop
     vertex -0.5740 1.3858 -6.0000
     vertex -0.5630 1.3592 -5.7074
     vertex -0.8173 1.2232 -5.7074
   endloop
 endfacet
 facet normal 0.4690 -0.8778 -0.0978
   outer loop
     vertex -0.8173 1.2232 -5.7074
     vertex -0.8334 1.2472 -6.0000
     vertex -0.5740 1.3858 -6.0000
   endloop
 endfacet
 facet normal 0.2781 -0.9161 -0.2889
   outer loop
     vertex -0.2870 1.4429 -5.7074
     vertex -0.2704 1.3592 -5.4260
     vertex -0.5303 1.2803 -5.4260
   endloop
 endfacet
 facet normal 0.2778 -0.9161 -0.2891
   outer loop
     vertex -0.5303 1.2803 -5.4260
     vertex -0.5630 1.3592 -5.7074
     vertex -0.2870 1.4429 -5.7074
   endloop
 endfacet
 facet normal 0.0867 -0.8787 -0.4695
   outer loop
     vertex 0.0000 1.3858 -5.4260
     vertex 0.0000 1.2472 -5.1666
     vertex -0.2433 1.2232 -5.1666
   endloop
 endfacet
 facet normal 0.0864 -0.8786 -0.4697
   outer loop
     vertex -0.2433 1.2232 -5.1666
     vertex -0.2704 1.3592 -5.4260
     vertex 0.0000 1.3858 -5.4260
   endloop
 endfacet
 facet normal -0.0760 -0.7709 -0.6325
   outer loop
     vertex 0.2433 1.2232 -5.1666
     vertex 0.2069 1.0403 -4.9393
     vertex 0.0000 1.0607 -4.9393
   endloop
 endfacet
 facet normal -0.0760 -0.7708 -0.6325
   outer loop
     vertex 0.0000 1.0607 -4.9393
     vertex 0.0000 1.2472 -5.1666
     vertex 0.2433 1.2232 -5.1666
   endloop
 endfacet
 facet normal -0.2561 -0.8451 -0.4693
   outer loop
     vertex 0.5303 1.2803 -5.4260
     vertex 0.4773 1.1523 -5.1666
     vertex 0.2433 1.2232 -5.1666
   endloop
 endfacet
 facet normal -0.2565 -0.8448 -0.4697
   outer loop
     vertex 0.2433 1.2232 -5.1666
     vertex 0.2704 1.3592 -5.4260
     vertex 0.5303 1.2803 -5.4260
   endloop
 endfacet
 facet normal -0.4511 -0.8445 -0.2888
   outer loop
     vertex 0.8173 1.2232 -5.7074
     vertex 0.7699 1.1523 -5.4260
     vertex 0.5303 1.2803 -5.4260
   endloop
 endfacet
 facet normal -0.4515 -0.8441 -0.2891
   outer loop
     vertex 0.5303 1.2803 -5.4260
     vertex 0.5630 1.3592 -5.7074
     vertex 0.8173 1.2232 -5.7074
   endloop
 endfacet
 facet normal -0.6311 -0.7695 -0.0977
   outer loop
     vertex 1.0607 1.0607 -6.0000
     vertex 1.0403 1.0403 -5.7074
     vertex 0.8173 1.2232 -5.7074
   endloop
 endfacet
 facet normal -0.6313 -0.7694 -0.0978
   outer loop
     vertex 0.8173 1.2232 -5.7074
     vertex 0.8334 1.2472 -6.0000
     vertex 1.0607 1.0607 -6.0000
   endloop
 endfacet
 facet normal 0.6311 -0.7695 -0.0978
   outer loop
     vertex -0.8334 1.2472 -6.0000
     vertex -0.8173 1.2232 -5.7074
     vertex -1.0403 1.0403 -5.7074
   endloop
 endfacet
 facet normal 0.6313 -0.7694 -0.0977
   outer loop
     vertex -1.0403 1.0403 -5.7074
     vertex -1.0607 1.0607 -6.0000
     vertex -0.8334 1.2472 -6.0000
   endloop
 endfacet
 facet normal 0.4511 -0.8443 -0.2892
   outer loop
     vertex -0.5630 1.3592 -5.7074
     vertex -0.5303 1.2803 -5.4260
     vertex -0.7699 1.1523 -5.4260
   endloop
 endfacet
 facet normal 0.4515 -0.8442 -0.2888
   outer loop
     vertex -0.7699 1.1523 -5.4260
     vertex -0.8173 1.2232 -5.7074
     vertex -0.5630 1.3592 -5.7074
   endloop
 endfacet
 facet normal 0.2560 -0.8449 -0.4697
   outer loop
     vertex -0.2704 1.3592 -5.4260
     vertex -0.2433 1.2232 -5.1666
     vertex -0.4773 1.1523 -5.1666
   endloop
 endfacet
 facet normal 0.2565 -0.8449 -0.4693
   outer loop
     vertex -0.4773 1.1523 -5.1666
     vertex -0.5303 1.2803 -5.4260
     vertex -0.2704 1.3592 -5.4260
   endloop
 endfacet
 facet normal 0.0760 -0.7708 -0.6325
   outer loop
     vertex 0.0000 1.2472 -5.1666
     vertex 0.0000 1.0607 -4.9393
     vertex -0.2069 1.0403 -4.9393
   endloop
 endfacet
 facet normal 0.0760 -0.7709 -0.6325
   outer loop
     vertex -0.2069 1.0403 -4.9393
     vertex -0.2433 1.2232 -5.1666
     vertex 0.0000 1.2472 -5.1666
   endloop
 endfacet
 facet normal -0.0627 -0.6329 -0.7717
   outer loop
     vertex 0.2069 1.0403 -4.9393
     vertex 0.1626 0.8173 -4.7528
     vertex 0.0000 0.8334 -4.7528
   endloop
 endfacet
 facet normal -0.0624 -0.6331 -0.7716
   outer loop
     vertex 0.0000 0.8334 -4.7528
     vertex 0.0000 1.0607 -4.9393
     vertex 0.2069 1.0403 -4.9393
   endloop
 endfacet
 facet normal -0.2249 -0.7410 -0.6327
   outer loop
     vertex 0.4773 1.1523 -5.1666
     vertex 0.4059 0.9799 -4.9393
     vertex 0.2069 1.0403 -4.9393
   endloop
 endfacet
 facet normal -0.2246 -0.7413 -0.6325
   outer loop
     vertex 0.2069 1.0403 -4.9393
     vertex 0.2433 1.2232 -5.1666
     vertex 0.4773 1.1523 -5.1666
   endloop
 endfacet
 facet normal -0.4163 -0.7785 -0.4696
   outer loop
     vertex 0.7699 1.1523 -5.4260
     vertex 0.6929 1.0370 -5.1666
     vertex 0.4773 1.1523 -5.1666
   endloop
 endfacet
 facet normal -0.4161 -0.7788 -0.4693
   outer loop
     vertex 0.4773 1.1523 -5.1666
     vertex 0.5303 1.2803 -5.4260
     vertex 0.7699 1.1523 -5.4260
   endloop
 endfacet
 facet normal -0.6074 -0.7399 -0.2892
   outer loop
     vertex 1.0403 1.0403 -5.7074
     vertex 0.9799 0.9799 -5.4260
     vertex 0.7699 1.1523 -5.4260
   endloop
 endfacet
 facet normal -0.6071 -0.7403 -0.2888
   outer loop
     vertex 0.7699 1.1523 -5.4260
     vertex 0.8173 1.2232 -5.7074
     vertex 1.0403 1.0403 -5.7074
   endloop
 endfacet
 facet normal -0.7695 -0.6311 -0.0978
   outer loop
     vertex 1.2472 0.8334 -6.0000
     vertex 1.2232 0.8173 -5.7074
     vertex 1.0403 1.0403 -5.7074
   endloop
 endfacet
 facet normal -0.7694 -0.6313 -0.0977
   outer loop
     vertex 1.0403 1.0403 -5.7074
     vertex 1.0607 1.0607 -6.0000
     vertex 1.2472 0.8334 -6.0000
   endloop
 endfacet
 facet normal nan nan nan
   outer loop
     vertex -1.0607 1.0607 -6.0000
     vertex -1.0403 1.0403 -5.7074
     vertex -1.0607 1.0607 -6.0000
   endloop
 endfacet
 facet normal 0.7695 -0.6311 -0.0978
   outer loop
     vertex -1.2232 0.8173 -5.7074
     vertex -1.2472 0.8334 -6.0000
     vertex -1.0403 1.0403 -5.7074
   endloop
 endfacet
 facet normal 0.7694 -0.6313 -0.0977
   outer loop
     vertex -1.0607 1.0607 -6.0000
     vertex -1.0403 1.0403 -5.7074
     vertex -1.2472 0.8334 -6.0000
   endloop
 endfacet
 facet normal 0.6075 -0.7400 -0.2888
   outer loop
     vertex -0.8173 1.2232 -5.7074
     vertex -0.7699 1.1523 -5.4260
     vertex -0.9799 0.9799 -5.4260
   endloop
 endfacet
 facet normal 0.6071 -0.7402 -0.2892
   outer loop
     vertex -0.9799 0.9799 -5.4260
     vertex -1.0403 1.0403 -5.7074
     vertex -0.8173 1.2232 -5.7074
   endloop
 endfacet
 facet normal 0.4164 -0.7787 -0.4693
   outer loop
     vertex -0.5303 1.2803 -5.4260
     vertex -0.4773 1.1523 -5.1666
     vertex -0.6929 1.0370 -5.1666
   endloop
 endfacet
 facet normal 0.4160 -0.7787 -0.4696
   outer loop
     vertex -0.6929 1.0370 -5.1666
     vertex -0.7699 1.1523 -5.4260
     vertex -0.5303 1.2803 -5.4260
   endloop
 endfacet
 facet normal 0.2250 -0.7412 -0.6325
   outer loop
     vertex -0.2433 1.2232 -5.1666
     vertex -0.2069 1.0403 -4.9393
     vertex -0.4059 0.9799 -4.9393
   endloop
 endfacet
 facet normal 0.2246 -0.7411 -0.6327
   outer loop
     vertex -0.4059 0.9799 -4.9393
     vertex -0.4773 1.1523 -5.1666
     vertex -0.2433 1.2232 -5.1666
   endloop
 endfacet
 facet normal 0.0627 -0.6331 -0.7716
   outer loop
     vertex 0.0000 1.0607 -4.9393
     vertex 0.0000 0.8334 -4.7528
     vertex -0.1626 0.8173 -4.7528
   endloop
 endfacet
 facet normal 0.0624 -0.6330 -0.7717
   outer loop
     vertex -0.1626 0.8173 -4.7528
     vertex -0.2069 1.0403 -4.9393
     vertex 0.0000 1.0607 -4.9393
   endloop
 endfacet
 facet normal -0.0463 -0.4709 -0.8810
   outer loop
     vertex 0.1626 0.8173 -4.7528
     vertex 0.1120 0.5630 -4.6142
     vertex 0.0000 0.5740 -4.6142
   endloop
 endfacet
 facet normal -0.0466 -0.4707 -0.8810
   outer loop
     vertex 0.0000 0.5740 -4.6142
     vertex 0.0000 0.8334 -4.7528
     vertex 0.1626 0.8173 -4.7528
   endloop
 endfacet
 facet normal -0.1846 -0.6088 -0.7716
   outer loop
     vertex 0.4059 0.9799 -4.9393
     vertex 0.3189 0.7699 -4.7528
     vertex 0.1626 0.8173 -4.7528
   endloop
 endfacet
 facet normal -0.1847 -0.6086 -0.7716
   outer loop
     vertex 0.1626 0.8173 -4.7528
     vertex 0.2069 1.0403 -4.9393
     vertex 0.4059 0.9799 -4.9393
   endloop
 endfacet
 facet normal -0.3650 -0.6831 -0.6325
   outer loop
     vertex 0.6929 1.0370 -5.1666
     vertex 0.5893 0.8819 -4.9393
     vertex 0.4059 0.9799 -4.9393
   endloop
 endfacet
 facet normal -0.3652 -0.6829 -0.6327
   outer loop
     vertex 0.4059 0.9799 -4.9393
     vertex 0.4773 1.1523 -5.1666
     vertex 0.6929 1.0370 -5.1666
   endloop
 endfacet
 facet normal -0.5601 -0.6825 -0.4695
   outer loop
     vertex 0.9799 0.9799 -5.4260
     vertex 0.8819 0.8819 -5.1666
     vertex 0.6929 1.0370 -5.1666
   endloop
 endfacet
 facet normal -0.5602 -0.6824 -0.4696
   outer loop
     vertex 0.6929 1.0370 -5.1666
     vertex 0.7699 1.1523 -5.4260
     vertex 0.9799 0.9799 -5.4260
   endloop
 endfacet
 facet normal -0.7400 -0.6075 -0.2888
   outer loop
     vertex 1.2232 0.8173 -5.7074
     vertex 1.1523 0.7699 -5.4260
     vertex 0.9799 0.9799 -5.4260
   endloop
 endfacet
 facet normal -0.7402 -0.6071 -0.2892
   outer loop
     vertex 0.9799 0.9799 -5.4260
     vertex 1.0403 1.0403 -5.7074
     vertex 1.2232 0.8173 -5.7074
   endloop
 endfacet
 facet normal -0.8776 -0.4694 -0.0974
   outer loop
     vertex 1.3858 0.5740 -6.0000
     vertex 1.3592 0.5630 -5.7074
     vertex 1.2232 0.8173 -5.7074
   endloop
 endfacet
 facet normal -0.8778 -0.4690 -0.0978
   outer loop
     vertex 1.2232 0.8173 -5.7074
     vertex 1.2472 0.8334 -6.0000
     vertex 1.3858 0.5740 -6.0000
   endloop
 endfacet
 facet normal 0.8776 -0.4693 -0.0978
   outer loop
     vertex -1.2472 0.8334 -6.0000
     vertex -1.2232 0.8173 -5.7074
     vertex -1.3592 0.5630 -5.7074
   endloop
 endfacet
 facet normal 0.8778 -0.4690 -0.0974
   outer loop
     vertex -1.3592 0.5630 -5.7074
     vertex -1.3858 0.5740 -6.0000
     vertex -1.2472 0.8334 -6.0000
   endloop
 endfacet
 facet normal 0.7399 -0.6074 -0.2892
   outer loop
     vertex -1.0403 1.0403 -5.7074
     vertex -0.9799 0.9799 -5.4260
     vertex -1.1523 0.7699 -5.4260
   endloop
 endfacet
 facet normal 0.7403 -0.6071 -0.2888
   outer loop
     vertex -1.1523 0.7699 -5.4260
     vertex -1.2232 0.8173 -5.7074
     vertex -1.0403 1.0403 -5.7074
   endloop
 endfacet
 facet normal 0.5601 -0.6825 -0.4696
   outer loop
     vertex -0.7699 1.1523 -5.4260
     vertex -0.6929 1.0370 -5.1666
     vertex -0.8819 0.8819 -5.1666
   endloop
 endfacet
 facet normal 0.5602 -0.6824 -0.4695
   outer loop
     vertex -0.8819 0.8819 -5.1666
     vertex -0.9799 0.9799 -5.4260
     vertex -0.7699 1.1523 -5.4260
   endloop
 endfacet
 facet normal 0.3650 -0.6830 -0.6327
   outer loop
     vertex -0.4773 1.1523 -5.1666
     vertex -0.4059 0.9799 -4.9393
     vertex -0.5893 0.8819 -4.9393
   endloop
 endfacet
 facet normal 0.3653 -0.6830 -0.6325
   outer loop
     vertex -0.5893 0.8819 -4.9393
     vertex -0.6929 1.0370 -5.1666
     vertex -0.4773 1.1523 -5.1666
   endloop
 endfacet
 facet normal 0.1846 -0.6087 -0.7716
   outer loop
     vertex -0.2069 1.0403 -4.9393
     vertex -0.1626 0.8173 -4.7528
     vertex -0.3189 0.7699 -4.7528
   endloop
 endfacet
 facet normal 0.1848 -0.6087 -0.7716
   outer loop
     vertex -0.3189 0.7699 -4.7528
     vertex -0.4059 0.9799 -4.9393
     vertex -0.2069 1.0403 -4.9393
   endloop
 endfacet
 facet normal 0.0462 -0.4708 -0.8811
   outer loop
     vertex 0.0000 0.8334 -4.7528
     vertex 0.0000 0.5740 -4.6142
     vertex -0.1120 0.5630 -4.6142
   endloop
 endfacet
 facet normal 0.0466 -0.4709 -0.8810
   outer loop
     vertex -0.1120 0.5630 -4.6142
     vertex -0.1626 0.8173 -4.7528
     vertex 0.0000 0.8334 -4.7528
   endloop
 endfacet
 facet normal -0.0285 -0.2903 -0.9565
   outer loop
     vertex 0.1120 0.5630 -4.6142
     vertex 0.0571 0.2870 -4.5288
     vertex 0.0000 0.2926 -4.5288
   endloop
 endfacet
 facet normal -0.0285 -0.2903 -0.9565
   outer loop
     vertex 0.0000 0.2926 -4.5288
     vertex 0.0000 0.5740 -4.6142
     vertex 0.1120 0.5630 -4.6142
   endloop
 endfacet
 facet normal -0.1375 -0.4527 -0.8810
   outer loop
     vertex 0.3189 0.7699 -4.7528
     vertex 0.2197 0.5303 -4.6142
     vertex 0.1120 0.5630 -4.6142
   endloop
 endfacet
 facet normal -0.1373 -0.4528 -0.8810
   outer loop
     vertex 0.1120 0.5630 -4.6142
     vertex 0.1626 0.8173 -4.7528
     vertex 0.3189 0.7699 -4.7528
   endloop
 endfacet
 facet normal -0.2998 -0.5610 -0.7716
   outer loop
     vertex 0.5893 0.8819 -4.9393
     vertex 0.4630 0.6929 -4.7528
     vertex 0.3189 0.7699 -4.7528
   endloop
 endfacet
 facet normal -0.2998 -0.5610 -0.7716
   outer loop
     vertex 0.3189 0.7699 -4.7528
     vertex 0.4059 0.9799 -4.9393
     vertex 0.5893 0.8819 -4.9393
   endloop
 endfacet
 facet normal -0.4914 -0.5987 -0.6326
   outer loop
     vertex 0.8819 0.8819 -5.1666
     vertex 0.7500 0.7500 -4.9393
     vertex 0.5893 0.8819 -4.9393
   endloop
 endfacet
 facet normal -0.4914 -0.5987 -0.6325
   outer loop
     vertex 0.5893 0.8819 -4.9393
     vertex 0.6929 1.0370 -5.1666
     vertex 0.8819 0.8819 -5.1666
   endloop
 endfacet
 facet normal -0.6825 -0.5601 -0.4696
   outer loop
     vertex 1.1523 0.7699 -5.4260
     vertex 1.0370 0.6929 -5.1666
     vertex 0.8819 0.8819 -5.1666
   endloop
 endfacet
 facet normal -0.6824 -0.5602 -0.4695
   outer loop
     vertex 0.8819 0.8819 -5.1666
     vertex 0.9799 0.9799 -5.4260
     vertex 1.1523 0.7699 -5.4260
   endloop
 endfacet
 facet normal -0.8443 -0.4511 -0.2892
   outer loop
     vertex 1.3592 0.5630 -5.7074
     vertex 1.2803 0.5303 -5.4260
     vertex 1.1523 0.7699 -5.4260
   endloop
 endfacet
 facet normal -0.8442 -0.4515 -0.2888
   outer loop
     vertex 1.1523 0.7699 -5.4260
     vertex 1.2232 0.8173 -5.7074
     vertex 1.3592 0.5630 -5.7074
   endloop
 endfacet
 facet normal -0.9524 -0.2888 -0.0976
   outer loop
     vertex 1.4712 0.2926 -6.0000
     vertex 1.4429 0.2870 -5.7074
     vertex 1.3592 0.5630 -5.7074
   endloop
 endfacet
 facet normal -0.9524 -0.2890 -0.0974
   outer loop
     vertex 1.3592 0.5630 -5.7074
     vertex 1.3858 0.5740 -6.0000
     vertex 1.4712 0.2926 -6.0000
   endloop
 endfacet
 facet normal 0.9524 -0.2888 -0.0974
   outer loop
     vertex -1.3858 0.5740 -6.0000
     vertex -1.3592 0.5630 -5.7074
     vertex -1.4429 0.2870 -5.7074
   endloop
 endfacet
 facet normal 0.9523 -0.2890 -0.0976
   outer loop
     vertex -1.4429 0.2870 -5.7074
     vertex -1.4712 0.2926 -6.0000
     vertex -1.3858 0.5740 -6.0000
   endloop
 endfacet
 facet normal 0.8445 -0.4511 -0.2888
   outer loop
     vertex -1.2232 0.8173 -5.7074
     vertex -1.1523 0.7699 -5.4260
     vertex -1.2803 0.5303 -5.4260
   endloop
 endfacet
 facet normal 0.8441 -0.4515 -0.2891
   outer loop
     vertex -1.2803 0.5303 -5.4260
     vertex -1.3592 0.5630 -5.7074
     vertex -1.2232 0.8173 -5.7074
   endloop
 endfacet
 facet normal 0.6825 -0.5601 -0.4695
   outer loop
     vertex -0.9799 0.9799 -5.4260
     vertex -0.8819 0.8819 -5.1666
     vertex -1.0370 0.6929 -5.1666
   endloop
 endfacet
 facet normal 0.6824 -0.5602 -0.4696
   outer loop
     vertex -1.0370 0.6929 -5.1666
     vertex -1.1523 0.7699 -5.4260
     vertex -0.9799 0.9799 -5.4260
   endloop
 endfacet
 facet normal 0.4914 -0.5987 -0.6325
   outer loop
     vertex -0.6929 1.0370 -5.1666
     vertex -0.5893 0.8819 -4.9393
     vertex -0.7500 0.7500 -4.9393
   endloop
 endfacet
 facet normal 0.4913 -0.5987 -0.6326
   outer loop
     vertex -0.7500 0.7500 -4.9393
     vertex -0.8819 0.8819 -5.1666
     vertex -0.6929 1.0370 -5.1666
   endloop
 endfacet
 facet normal 0.2998 -0.5610 -0.7716
   outer loop
     vertex -0.4059 0.9799 -4.9393
     vertex -0.3189 0.7699 -4.7528
     vertex -0.4630 0.6929 -4.7528
   endloop
 endfacet
 facet normal 0.2998 -0.5610 -0.7716
   outer loop
     vertex -0.4630 0.6929 -4.7528
     vertex -0.5893 0.8819 -4.9393
     vertex -0.4059 0.9799 -4.9393
   endloop
 endfacet
 facet normal 0.1375 -0.4528 -0.8810
   outer loop
     vertex -0.1626 0.8173 -4.7528
     vertex -0.1120 0.5630 -4.6142
     vertex -0.2197 0.5303 -4.6142
   endloop
 endfacet
 facet normal 0.1373 -0.4528 -0.8810
   outer loop
     vertex -0.2197 0.5303 -4.6142
     vertex -0.3189 0.7699 -4.7528
     vertex -0.1626 0.8173 -4.7528
   endloop
 endfacet
 facet normal 0.0285 -0.2903 -0.9565
   outer loop
     vertex 0.0000 0.5740 -4.6142
     vertex 0.0000 0.2926 -4.5288
     vertex -0.0571 0.2870 -4.5288
   endloop
 endfacet
 facet normal 0.0285 -0.2903 -0.9565
   outer loop
     vertex -0.0571 0.2870 -4.5288
     vertex -0.1120 0.5630 -4.6142
     vertex 0.0000 0.5740 -4.6142
   endloop
 endfacet
 facet normal -0.0096 -0.0980 -0.9951
   outer loop
     vertex 0.0000 0.2926 -4.5288
     vertex 0.0571 0.2870 -4.5288
     vertex 0.0000 0.0000 -4.5000
   endloop
 endfacet
 facet normal -0.0844 -0.2793 -0.9565
   outer loop
     vertex 0.2197 0.5303 -4.6142
     vertex 0.1120 0.2704 -4.5288
     vertex 0.0571 0.2870 -4.5288
   endloop
 endfacet
 facet normal -0.0847 -0.2791 -0.9565
   outer loop
     vertex 0.0571 0.2870 -4.5288
     vertex 0.1120 0.5630 -4.6142
     vertex 0.2197 0.5303 -4.6142
   endloop
 endfacet
 facet normal -0.2230 -0.4173 -0.8810
   outer loop
     vertex 0.4630 0.6929 -4.7528
     vertex 0.3189 0.4773 -4.6142
     vertex 0.2197 0.5303 -4.6142
   endloop
 endfacet
 facet normal -0.2230 -0.4173 -0.8810
   outer loop
     vertex 0.2197 0.5303 -4.6142
     vertex 0.3189 0.7699 -4.7528
     vertex 0.4630 0.6929 -4.7528
   endloop
 endfacet
 facet normal -0.4035 -0.4919 -0.7715
   outer loop
     vertex 0.7500 0.7500 -4.9393
     vertex 0.5893 0.5893 -4.7528
     vertex 0.4630 0.6929 -4.7528
   endloop
 endfacet
 facet normal -0.4036 -0.4917 -0.7716
   outer loop
     vertex 0.4630 0.6929 -4.7528
     vertex 0.5893 0.8819 -4.9393
     vertex 0.7500 0.7500 -4.9393
   endloop
 endfacet
 facet normal -0.5987 -0.4914 -0.6325
   outer loop
     vertex 1.0370 0.6929 -5.1666
     vertex 0.8819 0.5893 -4.9393
     vertex 0.7500 0.7500 -4.9393
   endloop
 endfacet
 facet normal -0.5987 -0.4913 -0.6326
   outer loop
     vertex 0.7500 0.7500 -4.9393
     vertex 0.8819 0.8819 -5.1666
     vertex 1.0370 0.6929 -5.1666
   endloop
 endfacet
 facet normal -0.7787 -0.4164 -0.4693
   outer loop
     vertex 1.2803 0.5303 -5.4260
     vertex 1.1523 0.4773 -5.1666
     vertex 1.0370 0.6929 -5.1666
   endloop
 endfacet
 facet normal -0.7787 -0.4160 -0.4696
   outer loop
     vertex 1.0370 0.6929 -5.1666
     vertex 1.1523 0.7699 -5.4260
     vertex 1.2803 0.5303 -5.4260
   endloop
 endfacet
 facet normal -0.9161 -0.2781 -0.2889
   outer loop
     vertex 1.4429 0.2870 -5.7074
     vertex 1.3592 0.2704 -5.4260
     vertex 1.2803 0.5303 -5.4260
   endloop
 endfacet
 facet normal -0.9161 -0.2778 -0.2891
   outer loop
     vertex 1.2803 0.5303 -5.4260
     vertex 1.3592 0.5630 -5.7074
     vertex 1.4429 0.2870 -5.7074
   endloop
 endfacet
 facet normal -0.9904 -0.0977 -0.0975
   outer loop
     vertex 1.5000 0.0000 -6.0000
     vertex 1.4712 0.0000 -5.7074
     vertex 1.4429 0.2870 -5.7074
   endloop
 endfacet
 facet normal -0.9904 -0.0975 -0.0977
   outer loop
     vertex 1.4429 0.2870 -5.7074
     vertex 1.4712 0.2926 -6.0000
     vertex 1.5000 0.0000 -6.0000
   endloop
 endfacet
 facet normal 0.9904 -0.0977 -0.0977
   outer loop
     vertex -1.4712 0.2926 -6.0000
     vertex -1.4429 0.2870 -5.7074
     vertex -1.4712 0.0000 -5.7074
   endloop
 endfacet
 facet normal 0.9905 -0.0975 -0.0975
   outer loop
     vertex -1.4712 0.0000 -5.7074
     vertex -1.5000 0.0000 -6.0000
     vertex -1.4712 0.2926 -6.0000
   endloop
 endfacet
 facet normal 0.9160 -0.2781 -0.2891
   outer loop
     vertex -1.3592 0.5630 -5.7074
     vertex -1.2803 0.5303 -5.4260
     vertex -1.3592 0.2704 -5.4260
   endloop
 endfacet
 facet normal 0.9162 -0.2778 -0.2889
   outer loop
     vertex -1.3592 0.2704 -5.4260
     vertex -1.4429 0.2870 -5.7074
     vertex -1.3592 0.5630 -5.7074
   endloop
 endfacet
 facet normal 0.7785 -0.4163 -0.4696
   outer loop
     vertex -1.1523 0.7699 -5.4260
     vertex -1.0370 0.6929 -5.1666
     vertex -1.1523 0.4773 -5.1666
   endloop
 endfacet
 facet normal 0.7788 -0.4161 -0.4693
   outer loop
     vertex -1.1523 0.4773 -5.1666
     vertex -1.2803 0.5303 -5.4260
     vertex -1.1523 0.7699 -5.4260
   endloop
 endfacet
 facet normal 0.5987 -0.4914 -0.6326
   outer loop
     vertex -0.8819 0.8819 -5.1666
     vertex -0.7500 0.7500 -4.9393
     vertex -0.8819 0.5893 -4.9393
   endloop
 endfacet
 facet normal 0.5987 -0.4914 -0.6325
   outer loop
     vertex -0.8819 0.5893 -4.9393
     vertex -1.0370 0.6929 -5.1666
     vertex -0.8819 0.8819 -5.1666
   endloop
 endfacet
 facet normal 0.4034 -0.4918 -0.7716
   outer loop
     vertex -0.5893 0.8819 -4.9393
     vertex -0.4630 0.6929 -4.7528
     vertex -0.5893 0.5893 -4.7528
   endloop
 endfacet
 facet normal 0.4036 -0.4918 -0.7715
   outer loop
     vertex -0.5893 0.5893 -4.7528
     vertex -0.7500 0.7500 -4.9393
     vertex -0.5893 0.8819 -4.9393
   endloop
 endfacet
 facet normal 0.2230 -0.4173 -0.8810
   outer loop
     vertex -0.3189 0.7699 -4.7528
     vertex -0.2197 0.5303 -4.6142
     vertex -0.3189 0.4773 -4.6142
   endloop
 endfacet
 facet normal 0.2230 -0.4173 -0.8810
   outer loop
     vertex -0.3189 0.4773 -4.6142
     vertex -0.4630 0.6929 -4.7528
     vertex -0.3189 0.7699 -4.7528
   endloop
 endfacet
 facet normal 0.0844 -0.2792 -0.9565
   outer loop
     vertex -0.1120 0.5630 -4.6142
     vertex -0.0571 0.2870 -4.5288
     vertex -0.1120 0.2704 -4.5288
   endloop
 endfacet
 facet normal 0.0848 -0.2792 -0.9565
   outer loop
     vertex -0.1120 0.2704 -4.5288
     vertex -0.2197 0.5303 -4.6142
     vertex -0.1120 0.5630 -4.6142
   endloop
 endfacet
 facet normal 0.0096 -0.0980 -0.9951
   outer loop
     vertex -0.0571 0.2870 -4.5288
     vertex 0.0000 0.2926 -4.5288
     vertex 0.0000 0.0000 -4.5000
   endloop
 endfacet
 facet normal -0.0285 -0.0942 -0.9951
   outer loop
     vertex 0.0571 0.2870 -4.5288
     vertex 0.1120 0.2704 -4.5288
     vertex 0.0000 0.0000 -4.5000
   endloop
 endfacet
 facet normal -0.1377 -0.2571 -0.9565
   outer loop
     vertex 0.3189 0.4773 -4.6142
     vertex 0.1626 0.2433 -4.5288
     vertex 0.1120 0.2704 -4.5288
   endloop
 endfacet
 facet normal -0.1375 -0.2573 -0.9565
   outer loop
     vertex 0.1120 0.2704 -4.5288
     vertex 0.2197 0.5303 -4.6142
     vertex 0.3189 0.4773 -4.6142
   endloop
 endfacet
 facet normal -0.3001 -0.3657 -0.8810
   outer loop
     vertex 0.5893 0.5893 -4.7528
     vertex 0.4059 0.4059 -4.6142
     vertex 0.3189 0.4773 -4.6142
   endloop
 endfacet
 facet normal -0.3001 -0.3658 -0.8810
   outer loop
     vertex 0.3189 0.4773 -4.6142
     vertex 0.4630 0.6929 -4.7528
     vertex 0.5893 0.5893 -4.7528
   endloop
 endfacet
 facet normal -0.4918 -0.4034 -0.7716
   outer loop
     vertex 0.8819 0.5893 -4.9393
     vertex 0.6929 0.4630 -4.7528
     vertex 0.5893 0.5893 -4.7528
   endloop
 endfacet
 facet normal -0.4918 -0.4036 -0.7715
   outer loop
     vertex 0.5893 0.5893 -4.7528
     vertex 0.7500 0.7500 -4.9393
     vertex 0.8819 0.5893 -4.9393
   endloop
 endfacet
 facet normal -0.6830 -0.3650 -0.6327
   outer loop
     vertex 1.1523 0.4773 -5.1666
     vertex 0.9799 0.4059 -4.9393
     vertex 0.8819 0.5893 -4.9393
   endloop
 endfacet
 facet normal -0.6830 -0.3653 -0.6325
   outer loop
     vertex 0.8819 0.5893 -4.9393
     vertex 1.0370 0.6929 -5.1666
     vertex 1.1523 0.4773 -5.1666
   endloop
 endfacet
 facet normal -0.8449 -0.2560 -0.4697
   outer loop
     vertex 1.3592 0.2704 -5.4260
     vertex 1.2232 0.2433 -5.1666
     vertex 1.1523 0.4773 -5.1666
   endloop
 endfacet
 facet normal -0.8449 -0.2565 -0.4693
   outer loop
     vertex 1.1523 0.4773 -5.1666
     vertex 1.2803 0.5303 -5.4260
     vertex 1.3592 0.2704 -5.4260
   endloop
 endfacet
 facet normal -0.9527 -0.0937 -0.2891
   outer loop
     vertex 1.4712 0.0000 -5.7074
     vertex 1.3858 0.0000 -5.4260
     vertex 1.3592 0.2704 -5.4260
   endloop
 endfacet
 facet normal -0.9527 -0.0939 -0.2889
   outer loop
     vertex 1.3592 0.2704 -5.4260
     vertex 1.4429 0.2870 -5.7074
     vertex 1.4712 0.0000 -5.7074
   endloop
 endfacet
 facet normal -0.9904 0.0977 -0.0977
   outer loop
     vertex 1.4712 -0.2926 -6.0000
     vertex 1.4429 -0.2870 -5.7074
     vertex 1.4712 0.0000 -5.7074
   endloop
 endfacet
 facet normal -0.9905 0.0975 -0.0975
   outer loop
     vertex 1.4712 0.0000 -5.7074
     vertex 1.5000 0.0000 -6.0000
     vertex 1.4712 -0.2926 -6.0000
   endloop
 endfacet
 facet normal 0.9904 0.0977 -0.0975
   outer loop
     vertex -1.5000 0.0000 -6.0000
     vertex -1.4712 0.0000 -5.7074
     vertex -1.4429 -0.2870 -5.7074
   endloop
 endfacet
 facet normal 0.9904 0.0975 -0.0977
   outer loop
     vertex -1.4429 -0.2870 -5.7074
     vertex -1.4712 -0.2926 -6.0000
     vertex -1.5000 0.0000 -6.0000
   endloop
 endfacet
 facet normal 0.9528 -0.0937 -0.2889
   outer loop
     vertex -1.4429 0.2870 -5.7074
     vertex -1.3592 0.2704 -5.4260
     vertex -1.3858 0.0000 -5.4260
   endloop
 endfacet
 facet normal 0.9527 -0.0939 -0.2891
   outer loop
     vertex -1.3858 0.0000 -5.4260
     vertex -1.4712 0.0000 -5.7074
     vertex -1.4429 0.2870 -5.7074
   endloop
 endfacet
 facet normal 0.8451 -0.2561 -0.4693
   outer loop
     vertex -1.2803 0.5303 -5.4260
     vertex -1.1523 0.4773 -5.1666
     vertex -1.2232 0.2433 -5.1666
   endloop
 endfacet
 facet normal 0.8448 -0.2565 -0.4697
   outer loop
     vertex -1.2232 0.2433 -5.1666
     vertex -1.3592 0.2704 -5.4260
     vertex -1.2803 0.5303 -5.4260
   endloop
 endfacet
 facet normal 0.6831 -0.3650 -0.6325
   outer loop
     vertex -1.0370 0.6929 -5.1666
     vertex -0.8819 0.5893 -4.9393
     vertex -0.9799 0.4059 -4.9393
   endloop
 endfacet
 facet normal 0.6829 -0.3652 -0.6327
   outer loop
     vertex -0.9799 0.4059 -4.9393
     vertex -1.1523 0.4773 -5.1666
     vertex -1.0370 0.6929 -5.1666
   endloop
 endfacet
 facet normal 0.4919 -0.4035 -0.7715
   outer loop
     vertex -0.7500 0.7500 -4.9393
     vertex -0.5893 0.5893 -4.7528
     vertex -0.6929 0.4630 -4.7528
   endloop
 endfacet
 facet normal 0.4917 -0.4036 -0.7716
   outer loop
     vertex -0.6929 0.4630 -4.7528
     vertex -0.8819 0.5893 -4.9393
     vertex -0.7500 0.7500 -4.9393
   endloop
 endfacet
 facet normal 0.3002 -0.3657 -0.8810
   outer loop
     vertex -0.4630 0.6929 -4.7528
     vertex -0.3189 0.4773 -4.6142
     vertex -0.4059 0.4059 -4.6142
   endloop
 endfacet
 facet normal 0.3000 -0.3658 -0.8810
   outer loop
     vertex -0.4059 0.4059 -4.6142
     vertex -0.5893 0.5893 -4.7528
     vertex -0.4630 0.6929 -4.7528
   endloop
 endfacet
 facet normal 0.1378 -0.2572 -0.9565
   outer loop
     vertex -0.2197 0.5303 -4.6142
     vertex -0.1120 0.2704 -4.5288
     vertex -0.1626 0.2433 -4.5288
   endloop
 endfacet
 facet normal 0.1375 -0.2573 -0.9565
   outer loop
     vertex -0.1626 0.2433 -4.5288
     vertex -0.3189 0.4773 -4.6142
     vertex -0.2197 0.5303 -4.6142
   endloop
 endfacet
 facet normal 0.0285 -0.0942 -0.9951
   outer loop
     vertex -0.1120 0.2704 -4.5288
     vertex -0.0571 0.2870 -4.5288
     vertex 0.0000 0.0000 -4.5000
   endloop
 endfacet
 facet normal -0.0465 -0.0867 -0.9951
   outer loop
     vertex 0.1120 0.2704 -4.5288
     vertex 0.1626 0.2433 -4.5288
     vertex 0.0000 0.0000 -4.5000
   endloop
 endfacet
 facet normal -0.1852 -0.2253 -0.9565
   outer loop
     vertex 0.4059 0.4059 -4.6142
     vertex 0.2069 0.2069 -4.5288
     vertex 0.1626 0.2433 -4.5288
   endloop
 endfacet
 facet normal -0.1851 -0.2255 -0.9565
   outer loop
     vertex 0.1626 0.2433 -4.5288
     vertex 0.3189 0.4773 -4.6142
     vertex 0.4059 0.4059 -4.6142
   endloop
 endfacet
 facet normal -0.3657 -0.3002 -0.8810
   outer loop
     vertex 0.6929 0.4630 -4.7528
     vertex 0.4773 0.3189 -4.6142
     vertex 0.4059 0.4059 -4.6142
   endloop
 endfacet
 facet normal -0.3658 -0.3000 -0.8810
   outer loop
     vertex 0.4059 0.4059 -4.6142
     vertex 0.5893 0.5893 -4.7528
     vertex 0.6929 0.4630 -4.7528
   endloop
 endfacet
 facet normal -0.5610 -0.2998 -0.7716
   outer loop
     vertex 0.9799 0.4059 -4.9393
     vertex 0.7699 0.3189 -4.7528
     vertex 0.6929 0.4630 -4.7528
   endloop
 endfacet
 facet normal -0.5610 -0.2998 -0.7716
   outer loop
     vertex 0.6929 0.4630 -4.7528
     vertex 0.8819 0.5893 -4.9393
     vertex 0.9799 0.4059 -4.9393
   endloop
 endfacet
 facet normal -0.7412 -0.2250 -0.6325
   outer loop
     vertex 1.2232 0.2433 -5.1666
     vertex 1.0403 0.2069 -4.9393
     vertex 0.9799 0.4059 -4.9393
   endloop
 endfacet
 facet normal -0.7411 -0.2246 -0.6327
   outer loop
     vertex 0.9799 0.4059 -4.9393
     vertex 1.1523 0.4773 -5.1666
     vertex 1.2232 0.2433 -5.1666
   endloop
 endfacet
 facet normal -0.8787 -0.0867 -0.4695
   outer loop
     vertex 1.3858 0.0000 -5.4260
     vertex 1.2472 0.0000 -5.1666
     vertex 1.2232 0.2433 -5.1666
   endloop
 endfacet
 facet normal -0.8786 -0.0864 -0.4697
   outer loop
     vertex 1.2232 0.2433 -5.1666
     vertex 1.3592 0.2704 -5.4260
     vertex 1.3858 0.0000 -5.4260
   endloop
 endfacet
 facet normal -0.9528 0.0937 -0.2889
   outer loop
     vertex 1.4429 -0.2870 -5.7074
     vertex 1.3592 -0.2704 -5.4260
     vertex 1.3858 0.0000 -5.4260
   endloop
 endfacet
 facet normal -0.9527 0.0939 -0.2891
   outer loop
     vertex 1.3858 0.0000 -5.4260
     vertex 1.4712 0.0000 -5.7074
     vertex 1.4429 -0.2870 -5.7074
   endloop
 endfacet
 facet normal -0.9524 0.2888 -0.0974
   outer loop
     vertex 1.3858 -0.5740 -6.0000
     vertex 1.3592 -0.5630 -5.7074
     vertex 1.4429 -0.2870 -5.7074
   endloop
 endfacet
 facet normal -0.9523 0.2890 -0.0976
   outer loop
     vertex 1.4429 -0.2870 -5.7074
     vertex 1.4712 -0.2926 -6.0000
     vertex 1.3858 -0.5740 -6.0000
   endloop
 endfacet
 facet normal 0.9524 0.2888 -0.0976
   outer loop
     vertex -1.4712 -0.2926 -6.0000
     vertex -1.4429 -0.2870 -5.7074
     vertex -1.3592 -0.5630 -5.7074
   endloop
 endfacet
 facet normal 0.9524 0.2890 -0.0974
   outer loop
     vertex -1.3592 -0.5630 -5.7074
     vertex -1.3858 -0.5740 -6.0000
     vertex -1.4712 -0.2926 -6.0000
   endloop
 endfacet
 facet normal 0.9527 0.0937 -0.2891
   outer loop
     vertex -1.4712 0.0000 -5.7074
     vertex -1.3858 0.0000 -5.4260
     vertex -1.3592 -0.2704 -5.4260
   endloop
 endfacet
 facet normal 0.9527 0.0939 -0.2889
   outer loop
     vertex -1.3592 -0.2704 -5.4260
     vertex -1.4429 -0.2870 -5.7074
     vertex -1.4712 0.0000 -5.7074
   endloop
 endfacet
 facet normal 0.8786 -0.0867 -0.4697
   outer loop
     vertex -1.3592 0.2704 -5.4260
     vertex -1.2232 0.2433 -5.1666
     vertex -1.2472 0.0000 -5.1666
   endloop
 endfacet
 facet normal 0.8787 -0.0864 -0.4695
   outer loop
     vertex -1.2472 0.0000 -5.1666
     vertex -1.3858 0.0000 -5.4260
     vertex -1.3592 0.2704 -5.4260
   endloop
 endfacet
 facet normal 0.7410 -0.2249 -0.6327
   outer loop
     vertex -1.1523 0.4773 -5.1666
     vertex -0.9799 0.4059 -4.9393
     vertex -1.0403 0.2069 -4.9393
   endloop
 endfacet
 facet normal 0.7413 -0.2246 -0.6325
   outer loop
     vertex -1.0403 0.2069 -4.9393
     vertex -1.2232 0.2433 -5.1666
     vertex -1.1523 0.4773 -5.1666
   endloop
 endfacet
 facet normal 0.5610 -0.2998 -0.7716
   outer loop
     vertex -0.8819 0.5893 -4.9393
     vertex -0.6929 0.4630 -4.7528
     vertex -0.7699 0.3189 -4.7528
   endloop
 endfacet
 facet normal 0.5610 -0.2998 -0.7716
   outer loop
     vertex -0.7699 0.3189 -4.7528
     vertex -0.9799 0.4059 -4.9393
     vertex -0.8819 0.5893 -4.9393
   endloop
 endfacet
 facet normal 0.3657 -0.3001 -0.8810
   outer loop
     vertex -0.5893 0.5893 -4.7528
     vertex -0.4059 0.4059 -4.6142
     vertex -0.4773 0.3189 -4.6142
   endloop
 endfacet
 facet normal 0.3658 -0.3001 -0.8810
   outer loop
     vertex -0.4773 0.3189 -4.6142
     vertex -0.6929 0.4630 -4.7528
     vertex -0.5893 0.5893 -4.7528
   endloop
 endfacet
 facet normal 0.1852 -0.2254 -0.9565
   outer loop
     vertex -0.3189 0.4773 -4.6142
     vertex -0.1626 0.2433 -4.5288
     vertex -0.2069 0.2069 -4.5288
   endloop
 endfacet
 facet normal 0.1850 -0.2255 -0.9565
   outer loop
     vertex -0.2069 0.2069 -4.5288
     vertex -0.4059 0.4059 -4.6142
     vertex -0.3189 0.4773 -4.6142
   endloop
 endfacet
 facet normal 0.0465 -0.0867 -0.9951
   outer loop
     vertex -0.1626 0.2433 -4.5288
     vertex -0.1120 0.2704 -4.5288
     vertex 0.0000 0.0000 -4.5000
   endloop
 endfacet
 facet normal -0.0625 -0.0760 -0.9951
   outer loop
     vertex 0.1626 0.2433 -4.5288
     vertex 0.2069 0.2069 -4.5288
     vertex 0.0000 0.0000 -4.5000
   endloop
 endfacet
 facet normal -0.2254 -0.1852 -0.9565
   outer loop
     vertex 0.4773 0.3189 -4.6142
     vertex 0.2433 0.1626 -4.5288
     vertex 0.2069 0.2069 -4.5288
   endloop
 endfacet
 facet normal -0.2255 -0.1850 -0.9565
   outer loop
     vertex 0.2069 0.2069 -4.5288
     vertex 0.4059 0.4059 -4.6142
     vertex 0.4773 0.3189 -4.6142
   endloop
 endfacet
 facet normal -0.4173 -0.2230 -0.8810
   outer loop
     vertex 0.7699 0.3189 -4.7528
     vertex 0.5303 0.2197 -4.6142
     vertex 0.4773 0.3189 -4.6142
   endloop
 endfacet
 facet normal -0.4173 -0.2230 -0.8810
   outer loop
     vertex 0.4773 0.3189 -4.6142
     vertex 0.6929 0.4630 -4.7528
     vertex 0.7699 0.3189 -4.7528
   endloop
 endfacet
 facet normal -0.6087 -0.1846 -0.7716
   outer loop
     vertex 1.0403 0.2069 -4.9393
     vertex 0.8173 0.1626 -4.7528
     vertex 0.7699 0.3189 -4.7528
   endloop
 endfacet
 facet normal -0.6087 -0.1848 -0.7716
   outer loop
     vertex 0.7699 0.3189 -4.7528
     vertex 0.9799 0.4059 -4.9393
     vertex 1.0403 0.2069 -4.9393
   endloop
 endfacet
 facet normal -0.7708 -0.0760 -0.6325
   outer loop
     vertex 1.2472 0.0000 -5.1666
     vertex 1.0607 0.0000 -4.9393
     vertex 1.0403 0.2069 -4.9393
   endloop
 endfacet
 facet normal -0.7709 -0.0760 -0.6325
   outer loop
     vertex 1.0403 0.2069 -4.9393
     vertex 1.2232 0.2433 -5.1666
     vertex 1.2472 0.0000 -5.1666
   endloop
 endfacet
 facet normal -0.8786 0.0867 -0.4697
   outer loop
     vertex 1.3592 -0.2704 -5.4260
     vertex 1.2232 -0.2433 -5.1666
     vertex 1.2472 0.0000 -5.1666
   endloop
 endfacet
 facet normal -0.8787 0.0864 -0.4695
   outer loop
     vertex 1.2472 0.0000 -5.1666
     vertex 1.3858 0.0000 -5.4260
     vertex 1.3592 -0.2704 -5.4260
   endloop
 endfacet
 facet normal -0.9160 0.2781 -0.2891
   outer loop
     vertex 1.3592 -0.5630 -5.7074
     vertex 1.2803 -0.5303 -5.4260
     vertex 1.3592 -0.2704 -5.4260
   endloop
 endfacet
 facet normal -0.9162 0.2778 -0.2889
   outer loop
     vertex 1.3592 -0.2704 -5.4260
     vertex 1.4429 -0.2870 -5.7074
     vertex 1.3592 -0.5630 -5.7074
   endloop
 endfacet
 facet normal -0.8776 0.4693 -0.0978
   outer loop
     vertex 1.2472 -0.8334 -6.0000
     vertex 1.2232 -0.8173 -5.7074
     vertex 1.3592 -0.5630 -5.7074
   endloop
 endfacet
 facet normal -0.8778 0.4690 -0.0974
   outer loop
     vertex 1.3592 -0.5630 -5.7074
     vertex 1.3858 -0.5740 -6.0000
     vertex 1.2472 -0.8334 -6.0000
   endloop
 endfacet
 facet normal 0.8776 0.4694 -0.0974
   outer loop
     vertex -1.3858 -0.5740 -6.0000
     vertex -1.3592 -0.5630 -5.7074
     vertex -1.2232 -0.8173 -5.7074
   endloop
 endfacet
 facet normal 0.8778 0.4690 -0.0978
   outer loop
     vertex -1.2232 -0.8173 -5.7074
     vertex -1.2472 -0.8334 -6.0000
     vertex -1.3858 -0.5740 -6.0000
   endloop
 endfacet
 facet normal 0.9161 0.2781 -0.2889
   outer loop
     vertex -1.4429 -0.2870 -5.7074
     vertex -1.3592 -0.2704 -5.4260
     vertex -1.2803 -0.5303 -5.4260
   endloop
 endfacet
 facet normal 0.9161 0.2778 -0.2891
   outer loop
     vertex -1.2803 -0.5303 -5.4260
     vertex -1.3592 -0.5630 -5.7074
     vertex -1.4429 -0.2870 -5.7074
   endloop
 endfacet
 facet normal 0.8787 0.0867 -0.4695
   outer loop
     vertex -1.3858 0.0000 -5.4260
     vertex -1.2472 0.0000 -5.1666
     vertex -1.2232 -0.2433 -5.1666
   endloop
 endfacet
 facet normal 0.8786 0.0864 -0.4697
   outer loop
     vertex -1.2232 -0.2433 -5.1666
     vertex -1.3592 -0.2704 -5.4260
     vertex -1.3858 0.0000 -5.4260
   endloop
 endfacet
 facet normal 0.7709 -0.0760 -0.6325
   outer loop
     vertex -1.2232 0.2433 -5.1666
     vertex -1.0403 0.2069 -4.9393
     vertex -1.0607 0.0000 -4.9393
   endloop
 endfacet
 facet normal 0.7708 -0.0760 -0.6325
   outer loop
     vertex -1.0607 0.0000 -4.9393
     vertex -1.2472 0.0000 -5.1666
     vertex -1.2232 0.2433 -5.1666
   endloop
 endfacet
 facet normal 0.6088 -0.1846 -0.7716
   outer loop
     vertex -0.9799 0.4059 -4.9393
     vertex -0.7699 0.3189 -4.7528
     vertex -0.8173 0.1626 -4.7528
   endloop
 endfacet
 facet normal 0.6086 -0.1847 -0.7716
   outer loop
     vertex -0.8173 0.1626 -4.7528
     vertex -1.0403 0.2069 -4.9393
     vertex -0.9799 0.4059 -4.9393
   endloop
 endfacet
 facet normal 0.4173 -0.2230 -0.8810
   outer loop
     vertex -0.6929 0.4630 -4.7528
     vertex -0.4773 0.3189 -4.6142
     vertex -0.5303 0.2197 -4.6142
   endloop
 endfacet
 facet normal 0.4173 -0.2230 -0.8810
   outer loop
     vertex -0.5303 0.2197 -4.6142
     vertex -0.7699 0.3189 -4.7528
     vertex -0.6929 0.4630 -4.7528
   endloop
 endfacet
 facet normal 0.2253 -0.1852 -0.9565
   outer loop
     vertex -0.4059 0.4059 -4.6142
     vertex -0.2069 0.2069 -4.5288
     vertex -0.2433 0.1626 -4.5288
   endloop
 endfacet
 facet normal 0.2255 -0.1851 -0.9565
   outer loop
     vertex -0.2433 0.1626 -4.5288
     vertex -0.4773 0.3189 -4.6142
     vertex -0.4059 0.4059 -4.6142
   endloop
 endfacet
 facet normal 0.0625 -0.0760 -0.9951
   outer loop
     vertex -0.2069 0.2069 -4.5288
     vertex -0.1626 0.2433 -4.5288
     vertex 0.0000 0.0000 -4.5000
   endloop
 endfacet
 facet normal -0.0760 -0.0625 -0.9951
   outer loop
     vertex 0.2069 0.2069 -4.5288
     vertex 0.2433 0.1626 -4.5288
     vertex 0.0000 0.0000 -4.5000
   endloop
 endfacet
 facet normal -0.2572 -0.1378 -0.9565
   outer loop
     vertex 0.5303 0.2197 -4.6142
     vertex 0.2704 0.1120 -4.5288
     vertex 0.2433 0.1626 -4.5288
   endloop
 endfacet
 facet normal -0.2573 -0.1375 -0.9565
   outer loop
     vertex 0.2433 0.1626 -4.5288
     vertex 0.4773 0.3189 -4.6142
     vertex 0.5303 0.2197 -4.6142
   endloop
 endfacet
 facet normal -0.4528 -0.1375 -0.8810
   outer loop
     vertex 0.8173 0.1626 -4.7528
     vertex 0.5630 0.1120 -4.6142
     vertex 0.5303 0.2197 -4.6142
   endloop
 endfacet
 facet normal -0.4528 -0.1373 -0.8810
   outer loop
     vertex 0.5303 0.2197 -4.6142
     vertex 0.7699 0.3189 -4.7528
     vertex 0.8173 0.1626 -4.7528
   endloop
 endfacet
 facet normal -0.6331 -0.0627 -0.7716
   outer loop
     vertex 1.0607 0.0000 -4.9393
     vertex 0.8334 0.0000 -4.7528
     vertex 0.8173 0.1626 -4.7528
   endloop
 endfacet
 facet normal -0.6330 -0.0624 -0.7717
   outer loop
     vertex 0.8173 0.1626 -4.7528
     vertex 1.0403 0.2069 -4.9393
     vertex 1.0607 0.0000 -4.9393
   endloop
 endfacet
 facet normal -0.7709 0.0760 -0.6325
   outer loop
     vertex 1.2232 -0.2433 -5.1666
     vertex 1.0403 -0.2069 -4.9393
     vertex 1.0607 0.0000 -4.9393
   endloop
 endfacet
 facet normal -0.7708 0.0760 -0.6325
   outer loop
     vertex 1.0607 0.0000 -4.9393
     vertex 1.2472 0.0000 -5.1666
     vertex 1.2232 -0.2433 -5.1666
   endloop
 endfacet
 facet normal -0.8451 0.2561 -0.4693
   outer loop
     vertex 1.2803 -0.5303 -5.4260
     vertex 1.1523 -0.4773 -5.1666
     vertex 1.2232 -0.2433 -5.1666
   endloop
 endfacet
 facet normal -0.8448 0.2565 -0.4697
   outer loop
     vertex 1.2232 -0.2433 -5.1666
     vertex 1.3592 -0.2704 -5.4260
     vertex 1.2803 -0.5303 -5.4260
   endloop
 endfacet
 facet normal -0.8445 0.4511 -0.2888
   outer loop
     vertex 1.2232 -0.8173 -5.7074
     vertex 1.1523 -0.7699 -5.4260
     vertex 1.2803 -0.5303 -5.4260
   endloop
 endfacet
 facet normal -0.8441 0.4515 -0.2891
   outer loop
     vertex 1.2803 -0.5303 -5.4260
     vertex 1.3592 -0.5630 -5.7074
     vertex 1.2232 -0.8173 -5.7074
   endloop
 endfacet
 facet normal -0.7695 0.6311 -0.0977
   outer loop
     vertex 1.0607 -1.0607 -6.0000
     vertex 1.0403 -1.0403 -5.7074
     vertex 1.2232 -0.8173 -5.7074
   endloop
 endfacet
 facet normal -0.7694 0.6313 -0.0978
   outer loop
     vertex 1.2232 -0.8173 -5.7074
     vertex 1.2472 -0.8334 -6.0000
     vertex 1.0607 -1.0607 -6.0000
   endloop
 endfacet
 facet normal 0.7695 0.6311 -0.0978
   outer loop
     vertex -1.2472 -0.8334 -6.0000
     vertex -1.2232 -0.8173 -5.7074
     vertex -1.0403 -1.0403 -5.7074
   endloop
 endfacet
 facet normal 0.7694 0.6313 -0.0977
   outer loop
     vertex -1.0403 -1.0403 -5.7074
     vertex -1.0607 -1.0607 -6.0000
     vertex -1.2472 -0.8334 -6.0000
   endloop
 endfacet
 facet normal 0.8443 0.4511 -0.2892
   outer loop
     vertex -1.3592 -0.5630 -5.7074
     vertex -1.2803 -0.5303 -5.4260
     vertex -1.1523 -0.7699 -5.4260
   endloop
 endfacet
 facet normal 0.8442 0.4515 -0.2888
   outer loop
     vertex -1.1523 -0.7699 -5.4260
     vertex -1.2232 -0.8173 -5.7074
     vertex -1.3592 -0.5630 -5.7074
   endloop
 endfacet
 facet normal 0.8449 0.2560 -0.4697
   outer loop
     vertex -1.3592 -0.2704 -5.4260
     vertex -1.2232 -0.2433 -5.1666
     vertex -1.1523 -0.4773 -5.1666
   endloop
 endfacet
 facet normal 0.8449 0.2565 -0.4693
   outer loop
     vertex -1.1523 -0.4773 -5.1666
     vertex -1.2803 -0.5303 -5.4260
     vertex -1.3592 -0.2704 -5.4260
   endloop
 endfacet
 facet normal 0.7708 0.0760 -0.6325
   outer loop
     vertex -1.2472 0.0000 -5.1666
     vertex -1.0607 0.0000 -4.9393
     vertex -1.0403 -0.2069 -4.9393
   endloop
 endfacet
 facet normal 0.7709 0.0760 -0.6325
   outer loop
     vertex -1.0403 -0.2069 -4.9393
     vertex -1.2232 -0.2433 -5.1666
     vertex -1.2472 0.0000 -5.1666
   endloop
 endfacet
 facet normal 0.6329 -0.0627 -0.7717
   outer loop
     vertex -1.0403 0.2069 -4.9393
     vertex -0.8173 0.1626 -4.7528
     vertex -0.8334 0.0000 -4.7528
   endloop
 endfacet
 facet normal 0.6331 -0.0624 -0.7716
   outer loop
     vertex -0.8334 0.0000 -4.7528
     vertex -1.0607 0.0000 -4.9393
     vertex -1.0403 0.2069 -4.9393
   endloop
 endfacet
 facet normal 0.4527 -0.1375 -0.8810
   outer loop
     vertex -0.7699 0.3189 -4.7528
     vertex -0.5303 0.2197 -4.6142
     vertex -0.5630 0.1120 -4.6142
   endloop
 endfacet
 facet normal 0.4528 -0.1373 -0.8810
   outer loop
     vertex -0.5630 0.1120 -4.6142
     vertex -0.8173 0.1626 -4.7528
     vertex -0.7699 0.3189 -4.7528
   endloop
 endfacet
 facet normal 0.2571 -0.1377 -0.9565
   outer loop
     vertex -0.4773 0.3189 -4.6142
     vertex -0.2433 0.1626 -4.5288
     vertex -0.2704 0.1120 -4.5288
   endloop
 endfacet
 facet normal 0.2573 -0.1375 -0.9565
   outer loop
     vertex -0.2704 0.1120 -4.5288
     vertex -0.5303 0.2197 -4.6142
     vertex -0.4773 0.3189 -4.6142
   endloop
 endfacet
 facet normal 0.0760 -0.0625 -0.9951
   outer loop
     vertex -0.2433 0.1626 -4.5288
     vertex -0.2069 0.2069 -4.5288
     vertex 0.0000 0.0000 -4.5000
   endloop
 endfacet
 facet normal -0.0867 -0.0465 -0.9951
   outer loop
     vertex 0.2433 0.1626 -4.5288
     vertex 0.2704 0.1120 -4.5288
     vertex 0.0000 0.0000 -4.5000
   endloop
 endfacet
 facet normal -0.2792 -0.0844 -0.9565
   outer loop
     vertex 0.5630 0.1120 -4.6142
     vertex 0.2870 0.0571 -4.5288
     vertex 0.2704 0.1120 -4.5288
   endloop
 endfacet
 facet normal -0.2792 -0.0848 -0.9565
   outer loop
     vertex 0.2704 0.1120 -4.5288
     vertex 0.5303 0.2197 -4.6142
     vertex 0.5630 0.1120 -4.6142
   endloop
 endfacet
 facet normal -0.4708 -0.0462 -0.8811
   outer loop
     vertex 0.8334 0.0000 -4.7528
     vertex 0.5740 0.0000 -4.6142
     vertex 0.5630 0.1120 -4.6142
   endloop
 endfacet
 facet normal -0.4709 -0.0466 -0.8810
   outer loop
     vertex 0.5630 0.1120 -4.6142
     vertex 0.8173 0.1626 -4.7528
     vertex 0.8334 0.0000 -4.7528
   endloop
 endfacet
 facet normal -0.6329 0.0627 -0.7717
   outer loop
     vertex 1.0403 -0.2069 -4.9393
     vertex 0.8173 -0.1626 -4.7528
     vertex 0.8334 0.0000 -4.7528
   endloop
 endfacet
 facet normal -0.6331 0.0624 -0.7716
   outer loop
     vertex 0.8334 0.0000 -4.7528
     vertex 1.0607 0.0000 -4.9393
     vertex 1.0403 -0.2069 -4.9393
   endloop
 endfacet
 facet normal -0.7410 0.2249 -0.6327
   outer loop
     vertex 1.1523 -0.4773 -5.1666
     vertex 0.9799 -0.4059 -4.9393
     vertex 1.0403 -0.2069 -4.9393
   endloop
 endfacet
 facet normal -0.7413 0.2246 -0.6325
   outer loop
     vertex 1.0403 -0.2069 -4.9393
     vertex 1.2232 -0.2433 -5.1666
     vertex 1.1523 -0.4773 -5.1666
   endloop
 endfacet
 facet normal -0.7785 0.4163 -0.4696
   outer loop
     vertex 1.1523 -0.7699 -5.4260
     vertex 1.0370 -0.6929 -5.1666
     vertex 1.1523 -0.4773 -5.1666
   endloop
 endfacet
 facet normal -0.7788 0.4161 -0.4693
   outer loop
     vertex 1.1523 -0.4773 -5.1666
     vertex 1.2803 -0.5303 -5.4260
     vertex 1.1523 -0.7699 -5.4260
   endloop
 endfacet
 facet normal -0.7399 0.6074 -0.2892
   outer loop
     vertex 1.0403 -1.0403 -5.7074
     vertex 0.9799 -0.9799 -5.4260
     vertex 1.1523 -0.7699 -5.4260
   endloop
 endfacet
 facet normal -0.7403 0.6071 -0.2888
   outer loop
     vertex 1.1523 -0.7699 -5.4260
     vertex 1.2232 -0.8173 -5.7074
     vertex 1.0403 -1.0403 -5.7074
   endloop
 endfacet
 facet normal -0.6311 0.7695 -0.0978
   outer loop
     vertex 0.8334 -1.2472 -6.0000
     vertex 0.8173 -1.2232 -5.7074
     vertex 1.0403 -1.0403 -5.7074
   endloop
 endfacet
 facet normal -0.6313 0.7694 -0.0977
   outer loop
     vertex 1.0403 -1.0403 -5.7074
     vertex 1.0607 -1.0607 -6.0000
     vertex 0.8334 -1.2472 -6.0000
   endloop
 endfacet
 facet normal 0.6311 0.7695 -0.0977
   outer loop
     vertex -1.0607 -1.0607 -6.0000
     vertex -1.0403 -1.0403 -5.7074
     vertex -0.8173 -1.2232 -5.7074
   endloop
 endfacet
 facet normal 0.6313 0.7694 -0.0978
   outer loop
     vertex -0.8173 -1.2232 -5.7074
     vertex -0.8334 -1.2472 -6.0000
     vertex -1.0607 -1.0607 -6.0000
   endloop
 endfacet
 facet normal 0.7400 0.6075 -0.2888
   outer loop
     vertex -1.2232 -0.8173 -5.7074
     vertex -1.1523 -0.7699 -5.4260
     vertex -0.9799 -0.9799 -5.4260
   endloop
 endfacet
 facet normal 0.7402 0.6071 -0.2892
   outer loop
     vertex -0.9799 -0.9799 -5.4260
     vertex -1.0403 -1.0403 -5.7074
     vertex -1.2232 -0.8173 -5.7074
   endloop
 endfacet
 facet normal 0.7787 0.4164 -0.4693
   outer loop
     vertex -1.2803 -0.5303 -5.4260
     vertex -1.1523 -0.4773 -5.1666
     vertex -1.0370 -0.6929 -5.1666
   endloop
 endfacet
 facet normal 0.7787 0.4160 -0.4696
   outer loop
     vertex -1.0370 -0.6929 -5.1666
     vertex -1.1523 -0.7699 -5.4260
     vertex -1.2803 -0.5303 -5.4260
   endloop
 endfacet
 facet normal 0.7412 0.2250 -0.6325
   outer loop
     vertex -1.2232 -0.2433 -5.1666
     vertex -1.0403 -0.2069 -4.9393
     vertex -0.9799 -0.4059 -4.9393
   endloop
 endfacet
 facet normal 0.7411 0.2246 -0.6327
   outer loop
     vertex -0.9799 -0.4059 -4.9393
     vertex -1.1523 -0.4773 -5.1666
     vertex -1.2232 -0.2433 -5.1666
   endloop
 endfacet
 facet normal 0.6331 0.0627 -0.7716
   outer loop
     vertex -1.0607 0.0000 -4.9393
     vertex -0.8334 0.0000 -4.7528
     vertex -0.8173 -0.1626 -4.7528
   endloop
 endfacet
 facet normal 0.6330 0.0624 -0.7717
   outer loop
     vertex -0.8173 -0.1626 -4.7528
     vertex -1.0403 -0.2069 -4.9393
     vertex -1.0607 0.0000 -4.9393
   endloop
 endfacet
 facet normal 0.4709 -0.0463 -0.8810
   outer loop
     vertex -0.8173 0.1626 -4.7528
     vertex -0.5630 0.1120 -4.6142
     vertex -0.5740 0.0000 -4.6142
   endloop
 endfacet
 facet normal 0.4707 -0.0466 -0.8810
   outer loop
     vertex -0.5740 0.0000 -4.6142
     vertex -0.8334 0.0000 -4.7528
     vertex -0.8173 0.1626 -4.7528
   endloop
 endfacet
 facet normal 0.2793 -0.0844 -0.9565
   outer loop
     vertex -0.5303 0.2197 -4.6142
     vertex -0.2704 0.1120 -4.5288
     vertex -0.2870 0.0571 -4.5288
   endloop
 endfacet
 facet normal 0.2791 -0.0847 -0.9565
   outer loop
     vertex -0.2870 0.0571 -4.5288
     vertex -0.5630 0.1120 -4.6142
     vertex -0.5303 0.2197 -4.6142
   endloop
 endfacet
 facet normal 0.0867 -0.0465 -0.9951
   outer loop
     vertex -0.2704 0.1120 -4.5288
     vertex -0.2433 0.1626 -4.5288
     vertex 0.0000 0.0000 -4.5000
   endloop
 endfacet
 facet normal -0.0942 -0.0285 -0.9951
   outer loop
     vertex 0.2704 0.1120 -4.5288
     vertex 0.2870 0.0571 -4.5288
     vertex 0.0000 0.0000 -4.5000
   endloop
 endfacet
 facet normal -0.2903 -0.0285 -0.9565
   outer loop
     vertex 0.5740 0.0000 -4.6142
     vertex 0.2926 0.0000 -4.5288
     vertex 0.2870 0.0571 -4.5288
   endloop
 endfacet
 facet normal -0.2903 -0.0285 -0.9565
   outer loop
     vertex 0.2870 0.0571 -4.5288
     vertex 0.5630 0.1120 -4.6142
     vertex 0.5740 0.0000 -4.6142
   endloop
 endfacet
 facet normal -0.4709 0.0463 -0.8810
   outer loop
     vertex 0.8173 -0.1626 -4.7528
     vertex 0.5630 -0.1120 -4.6142
     vertex 0.5740 0.0000 -4.6142
   endloop
 endfacet
 facet normal -0.4707 0.0466 -0.8810
   outer loop
     vertex 0.5740 0.0000 -4.6142
     vertex 0.8334 0.0000 -4.7528
     vertex 0.8173 -0.1626 -4.7528
   endloop
 endfacet
 facet normal -0.6088 0.1846 -0.7716
   outer loop
     vertex 0.9799 -0.4059 -4.9393
     vertex 0.7699 -0.3189 -4.7528
     vertex 0.8173 -0.1626 -4.7528
   endloop
 endfacet
 facet normal -0.6086 0.1847 -0.7716
   outer loop
     vertex 0.8173 -0.1626 -4.7528
     vertex 1.0403 -0.2069 -4.9393
     vertex 0.9799 -0.4059 -4.9393
   endloop
 endfacet
 facet normal -0.6831 0.3650 -0.6325
   outer loop
     vertex 1.0370 -0.6929 -5.1666
     vertex 0.8819 -0.5893 -4.9393
     vertex 0.9799 -0.4059 -4.9393
   endloop
 endfacet
 facet normal -0.6829 0.3652 -0.6327
   outer loop
     vertex 0.9799 -0.4059 -4.9393
     vertex 1.1523 -0.4773 -5.1666
     vertex 1.0370 -0.6929 -5.1666
   endloop
 endfacet
 facet normal -0.6825 0.5601 -0.4695
   outer loop
     vertex 0.9799 -0.9799 -5.4260
     vertex 0.8819 -0.8819 -5.1666
     vertex 1.0370 -0.6929 -5.1666
   endloop
 endfacet
 facet normal -0.6824 0.5602 -0.4696
   outer loop
     vertex 1.0370 -0.6929 -5.1666
     vertex 1.1523 -0.7699 -5.4260
     vertex 0.9799 -0.9799 -5.4260
   endloop
 endfacet
 facet normal -0.6075 0.7400 -0.2888
   outer loop
     vertex 0.8173 -1.2232 -5.7074
     vertex 0.7699 -1.1523 -5.4260
     vertex 0.9799 -0.9799 -5.4260
   endloop
 endfacet
 facet normal -0.6071 0.7402 -0.2892
   outer loop
     vertex 0.9799 -0.9799 -5.4260
     vertex 1.0403 -1.0403 -5.7074
     vertex 0.8173 -1.2232 -5.7074
   endloop
 endfacet
 facet normal -0.4694 0.8776 -0.0974
   outer loop
     vertex 0.5740 -1.3858 -6.0000
     vertex 0.5630 -1.3592 -5.7074
     vertex 0.8173 -1.2232 -5.7074
   endloop
 endfacet
 facet normal -0.4690 0.8778 -0.0978
   outer loop
     vertex 0.8173 -1.2232 -5.7074
     vertex 0.8334 -1.2472 -6.0000
     vertex 0.5740 -1.3858 -6.0000
   endloop
 endfacet
 facet normal 0.4693 0.8776 -0.0978
   outer loop
     vertex -0.8334 -1.2472 -6.0000
     vertex -0.8173 -1.2232 -5.7074
     vertex -0.5630 -1.3592 -5.7074
   endloop
 endfacet
 facet normal 0.4690 0.8778 -0.0974
   outer loop
     vertex -0.5630 -1.3592 -5.7074
     vertex -0.5740 -1.3858 -6.0000
     vertex -0.8334 -1.2472 -6.0000
   endloop
 endfacet
 facet normal 0.6074 0.7399 -0.2892
   outer loop
     vertex -1.0403 -1.0403 -5.7074
     vertex -0.9799 -0.9799 -5.4260
     vertex -0.7699 -1.1523 -5.4260
   endloop
 endfacet
 facet normal 0.6071 0.7403 -0.2888
   outer loop
     vertex -0.7699 -1.1523 -5.4260
     vertex -0.8173 -1.2232 -5.7074
     vertex -1.0403 -1.0403 -5.7074
   endloop
 endfacet
 facet normal 0.6825 0.5601 -0.4696
   outer loop
     vertex -1.1523 -0.7699 -5.4260
     vertex -1.0370 -0.6929 -5.1666
     vertex -0.8819 -0.8819 -5.1666
   endloop
 endfacet
 facet normal 0.6824 0.5602 -0.4695
   outer loop
     vertex -0.8819 -0.8819 -5.1666
     vertex -0.9799 -0.9799 -5.4260
     vertex -1.1523 -0.7699 -5.4260
   endloop
 endfacet
 facet normal 0.6830 0.3650 -0.6327
   outer loop
     vertex -1.1523 -0.4773 -5.1666
     vertex -0.9799 -0.4059 -4.9393
     vertex -0.8819 -0.5893 -4.9393
   endloop
 endfacet
 facet normal 0.6830 0.3653 -0.6325
   outer loop
     vertex -0.8819 -0.5893 -4.9393
     vertex -1.0370 -0.6929 -5.1666
     vertex -1.1523 -0.4773 -5.1666
   endloop
 endfacet
 facet normal 0.6087 0.1846 -0.7716
   outer loop
     vertex -1.0403 -0.2069 -4.9393
     vertex -0.8173 -0.1626 -4.7528
     vertex -0.7699 -0.3189 -4.7528
   endloop
 endfacet
 facet normal 0.6087 0.1848 -0.7716
   outer loop
     vertex -0.7699 -0.3189 -4.7528
     vertex -0.9799 -0.4059 -4.9393
     vertex -1.0403 -0.2069 -4.9393
   endloop
 endfacet
 facet normal 0.4708 0.0462 -0.8811
   outer loop
     vertex -0.8334 0.0000 -4.7528
     vertex -0.5740 0.0000 -4.6142
     vertex -0.5630 -0.1120 -4.6142
   endloop
 endfacet
 facet normal 0.4709 0.0466 -0.8810
   outer loop
     vertex -0.5630 -0.1120 -4.6142
     vertex -0.8173 -0.1626 -4.7528
     vertex -0.8334 0.0000 -4.7528
   endloop
 endfacet
 facet normal 0.2903 -0.0285 -0.9565
   outer loop
     vertex -0.5630 0.1120 -4.6142
     vertex -0.2870 0.0571 -4.5288
     vertex -0.2926 0.0000 -4.5288
   endloop
 endfacet
 facet normal 0.2903 -0.0285 -0.9565
   outer loop
     vertex -0.2926 0.0000 -4.5288
     vertex -0.5740 0.0000 -4.6142
     vertex -0.5630 0.1120 -4.6142
   endloop
 endfacet
 facet normal 0.0942 -0.0285 -0.9951
   outer loop
     vertex -0.2870 0.0571 -4.5288
     vertex -0.2704 0.1120 -4.5288
     vertex 0.0000 0.0000 -4.5000
   endloop
 endfacet
 facet normal -0.0980 -0.0096 -0.9951
   outer loop
     vertex 0.2870 0.0571 -4.5288
     vertex 0.2926 0.0000 -4.5288
     vertex 0.0000 0.0000 -4.5000
   endloop
 endfacet
 facet normal -0.2903 0.0285 -0.9565
   outer loop
     vertex 0.5630 -0.1120 -4.6142
     vertex 0.2870 -0.0571 -4.5288
     vertex 0.2926 0.0000 -4.5288
   endloop
 endfacet
 facet normal -0.2903 0.0285 -0.9565
   outer loop
     vertex 0.2926 0.0000 -4.5288
     vertex 0.5740 0.0000 -4.6142
     vertex 0.5630 -0.1120 -4.6142
   endloop
 endfacet
 facet normal -0.4527 0.1375 -0.8810
   outer loop
     vertex 0.7699 -0.3189 -4.7528
     vertex 0.5303 -0.2197 -4.6142
     vertex 0.5630 -0.1120 -4.6142
   endloop
 endfacet
 facet normal -0.4528 0.1373 -0.8810
   outer loop
     vertex 0.5630 -0.1120 -4.6142
     vertex 0.8173 -0.1626 -4.7528
     vertex 0.7699 -0.3189 -4.7528
   endloop
 endfacet
 facet normal -0.5610 0.2998 -0.7716
   outer loop
     vertex 0.8819 -0.5893 -4.9393
     vertex 0.6929 -0.4630 -4.7528
     vertex 0.7699 -0.3189 -4.7528
   endloop
 endfacet
 facet normal -0.5610 0.2998 -0.7716
   outer loop
     vertex 0.7699 -0.3189 -4.7528
     vertex 0.9799 -0.4059 -4.9393
     vertex 0.8819 -0.5893 -4.9393
   endloop
 endfacet
 facet normal -0.5987 0.4914 -0.6326
   outer loop
     vertex 0.8819 -0.8819 -5.1666
     vertex 0.7500 -0.7500 -4.9393
     vertex 0.8819 -0.5893 -4.9393
   endloop
 endfacet
 facet normal -0.5987 0.4914 -0.6325
   outer loop
     vertex 0.8819 -0.5893 -4.9393
     vertex 1.0370 -0.6929 -5.1666
     vertex 0.8819 -0.8819 -5.1666
   endloop
 endfacet
 facet normal -0.5601 0.6825 -0.4696
   outer loop
     vertex 0.7699 -1.1523 -5.4260
     vertex 0.6929 -1.0370 -5.1666
     vertex 0.8819 -0.8819 -5.1666
   endloop
 endfacet
 facet normal -0.5602 0.6824 -0.4695
   outer loop
     vertex 0.8819 -0.8819 -5.1666
     vertex 0.9799 -0.9799 -5.4260
     vertex 0.7699 -1.1523 -5.4260
   endloop
 endfacet
 facet normal -0.4511 0.8443 -0.2892
   outer loop
     vertex 0.5630 -1.3592 -5.7074
     vertex 0.5303 -1.2803 -5.4260
     vertex 0.7699 -1.1523 -5.4260
   endloop
 endfacet
 facet normal -0.4515 0.8442 -0.2888
   outer loop
     vertex 0.7699 -1.1523 -5.4260
     vertex 0.8173 -1.2232 -5.7074
     vertex 0.5630 -1.3592 -5.7074
   endloop
 endfacet
 facet normal -0.2888 0.9524 -0.0976
   outer loop
     vertex 0.2926 -1.4712 -6.0000
     vertex 0.2870 -1.4429 -5.7074
     vertex 0.5630 -1.3592 -5.7074
   endloop
 endfacet
 facet normal -0.2890 0.9524 -0.0974
   outer loop
     vertex 0.5630 -1.3592 -5.7074
     vertex 0.5740 -1.3858 -6.0000
     vertex 0.2926 -1.4712 -6.0000
   endloop
 endfacet
 facet normal 0.2888 0.9524 -0.0974
   outer loop
     vertex -0.5740 -1.3858 -6.0000
     vertex -0.5630 -1.3592 -5.7074
     vertex -0.2870 -1.4429 -5.7074
   endloop
 endfacet
 facet normal 0.2890 0.9523 -0.0976
   outer loop
     vertex -0.2870 -1.4429 -5.7074
     vertex -0.2926 -1.4712 -6.0000
     vertex -0.5740 -1.3858 -6.0000
   endloop
 endfacet
 facet normal 0.4511 0.8445 -0.2888
   outer loop
     vertex -0.8173 -1.2232 -5.7074
     vertex -0.7699 -1.1523 -5.4260
     vertex -0.5303 -1.2803 -5.4260
   endloop
 endfacet
 facet normal 0.4515 0.8441 -0.2891
   outer loop
     vertex -0.5303 -1.2803 -5.4260
     vertex -0.5630 -1.3592 -5.7074
     vertex -0.8173 -1.2232 -5.7074
   endloop
 endfacet
 facet normal 0.5601 0.6825 -0.4695
   outer loop
     vertex -0.9799 -0.9799 -5.4260
     vertex -0.8819 -0.8819 -5.1666
     vertex -0.6929 -1.0370 -5.1666
   endloop
 endfacet
 facet normal 0.5602 0.6824 -0.4696
   outer loop
     vertex -0.6929 -1.0370 -5.1666
     vertex -0.7699 -1.1523 -5.4260
     vertex -0.9799 -0.9799 -5.4260
   endloop
 endfacet
 facet normal 0.5987 0.4914 -0.6325
   outer loop
     vertex -1.0370 -0.6929 -5.1666
     vertex -0.8819 -0.5893 -4.9393
     vertex -0.7500 -0.7500 -4.9393
   endloop
 endfacet
 facet normal 0.5987 0.4913 -0.6326
   outer loop
     vertex -0.7500 -0.7500 -4.9393
     vertex -0.8819 -0.8819 -5.1666
     vertex -1.0370 -0.6929 -5.1666
   endloop
 endfacet
 facet normal 0.5610 0.2998 -0.7716
   outer loop
     vertex -0.9799 -0.4059 -4.9393
     vertex -0.7699 -0.3189 -4.7528
     vertex -0.6929 -0.4630 -4.7528
   endloop
 endfacet
 facet normal 0.5610 0.2998 -0.7716
   outer loop
     vertex -0.6929 -0.4630 -4.7528
     vertex -0.8819 -0.5893 -4.9393
     vertex -0.9799 -0.4059 -4.9393
   endloop
 endfacet
 facet normal 0.4528 0.1375 -0.8810
   outer loop
     vertex -0.8173 -0.1626 -4.7528
     vertex -0.5630 -0.1120 -4.6142
     vertex -0.5303 -0.2197 -4.6142
   endloop
 endfacet
 facet normal 0.4528 0.1373 -0.8810
   outer loop
     vertex -0.5303 -0.2197 -4.6142
     vertex -0.7699 -0.3189 -4.7528
     vertex -0.8173 -0.1626 -4.7528
   endloop
 endfacet
 facet normal 0.2903 0.0285 -0.9565
   outer loop
     vertex -0.5740 0.0000 -4.6142
     vertex -0.2926 0.0000 -4.5288
     vertex -0.2870 -0.0571 -4.5288
   endloop
 endfacet
 facet normal 0.2903 0.0285 -0.9565
   outer loop
     vertex -0.2870 -0.0571 -4.5288
     vertex -0.5630 -0.1120 -4.6142
     vertex -0.5740 0.0000 -4.6142
   endloop
 endfacet
 facet normal 0.0980 -0.0096 -0.9951
   outer loop
     vertex -0.2926 0.0000 -4.5288
     vertex -0.2870 0.0571 -4.5288
     vertex 0.0000 0.0000 -4.5000
   endloop
 endfacet
 facet normal -0.0980 0.0096 -0.9951
   outer loop
     vertex 0.2926 0.0000 -4.5288
     vertex 0.2870 -0.0571 -4.5288
     vertex 0.0000 0.0000 -4.5000
   endloop
 endfacet
 facet normal -0.2793 0.0844 -0.9565
   outer loop
     vertex 0.5303 -0.2197 -4.6142
     vertex 0.2704 -0.1120 -4.5288
     vertex 0.2870 -0.0571 -4.5288
   endloop
 endfacet
 facet normal -0.2791 0.0847 -0.9565
   outer loop
     vertex 0.2870 -0.0571 -4.5288
     vertex 0.5630 -0.1120 -4.6142
     vertex 0.5303 -0.2197 -4.6142
   endloop
 endfacet
 facet normal -0.4173 0.2230 -0.8810
   outer loop
     vertex 0.6929 -0.4630 -4.7528
     vertex 0.4773 -0.3189 -4.6142
     vertex 0.5303 -0.2197 -4.6142
   endloop
 endfacet
 facet normal -0.4173 0.2230 -0.8810
   outer loop
     vertex 0.5303 -0.2197 -4.6142
     vertex 0.7699 -0.3189 -4.7528
     vertex 0.6929 -0.4630 -4.7528
   endloop
 endfacet
 facet normal -0.4919 0.4035 -0.7715
   outer loop
     vertex 0.7500 -0.7500 -4.9393
     vertex 0.5893 -0.5893 -4.7528
     vertex 0.6929 -0.4630 -4.7528
   endloop
 endfacet
 facet normal -0.4917 0.4036 -0.7716
   outer loop
     vertex 0.6929 -0.4630 -4.7528
     vertex 0.8819 -0.5893 -4.9393
     vertex 0.7500 -0.7500 -4.9393
   endloop
 endfacet
 facet normal -0.4914 0.5987 -0.6325
   outer loop
     vertex 0.6929 -1.0370 -5.1666
     vertex 0.5893 -0.8819 -4.9393
     vertex 0.7500 -0.7500 -4.9393
   endloop
 endfacet
 facet normal -0.4913 0.5987 -0.6326
   outer loop
     vertex 0.7500 -0.7500 -4.9393
     vertex 0.8819 -0.8819 -5.1666
     vertex 0.6929 -1.0370 -5.1666
   endloop
 endfacet
 facet normal -0.4164 0.7787 -0.4693
   outer loop
     vertex 0.5303 -1.2803 -5.4260
     vertex 0.4773 -1.1523 -5.1666
     vertex 0.6929 -1.0370 -5.1666
   endloop
 endfacet
 facet normal -0.4160 0.7787 -0.4696
   outer loop
     vertex 0.6929 -1.0370 -5.1666
     vertex 0.7699 -1.1523 -5.4260
     vertex 0.5303 -1.2803 -5.4260
   endloop
 endfacet
 facet normal -0.2781 0.9161 -0.2889
   outer loop
     vertex 0.2870 -1.4429 -5.7074
     vertex 0.2704 -1.3592 -5.4260
     vertex 0.5303 -1.2803 -5.4260
   endloop
 endfacet
 facet normal -0.2778 0.9161 -0.2891
   outer loop
     vertex 0.5303 -1.2803 -5.4260
     vertex 0.5630 -1.3592 -5.7074
     vertex 0.2870 -1.4429 -5.7074
   endloop
 endfacet
 facet normal -0.0977 0.9904 -0.0975
   outer loop
     vertex 0.0000 -1.5000 -6.0000
     vertex 0.0000 -1.4712 -5.7074
     vertex 0.2870 -1.4429 -5.7074
   endloop
 endfacet
 facet normal -0.0975 0.9904 -0.0977
   outer loop
     vertex 0.2870 -1.4429 -5.7074
     vertex 0.2926 -1.4712 -6.0000
     vertex 0.0000 -1.5000 -6.0000
   endloop
 endfacet
 facet normal 0.0977 0.9904 -0.0977
   outer loop
     vertex -0.2926 -1.4712 -6.0000
     vertex -0.2870 -1.4429 -5.7074
     vertex 0.0000 -1.4712 -5.7074
   endloop
 endfacet
 facet normal 0.0975 0.9905 -0.0975
   outer loop
     vertex 0.0000 -1.4712 -5.7074
     vertex 0.0000 -1.5000 -6.0000
     vertex -0.2926 -1.4712 -6.0000
   endloop
 endfacet
 facet normal 0.2781 0.9160 -0.2891
   outer loop
     vertex -0.5630 -1.3592 -5.7074
     vertex -0.5303 -1.2803 -5.4260
     vertex -0.2704 -1.3592 -5.4260
   endloop
 endfacet
 facet normal 0.2778 0.9162 -0.2889
   outer loop
     vertex -0.2704 -1.3592 -5.4260
     vertex -0.2870 -1.4429 -5.7074
     vertex -0.5630 -1.3592 -5.7074
   endloop
 endfacet
 facet normal 0.4163 0.7785 -0.4696
   outer loop
     vertex -0.7699 -1.1523 -5.4260
     vertex -0.6929 -1.0370 -5.1666
     vertex -0.4773 -1.1523 -5.1666
   endloop
 endfacet
 facet normal 0.4161 0.7788 -0.4693
   outer loop
     vertex -0.4773 -1.1523 -5.1666
     vertex -0.5303 -1.2803 -5.4260
     vertex -0.7699 -1.1523 -5.4260
   endloop
 endfacet
 facet normal 0.4914 0.5987 -0.6326
   outer loop
     vertex -0.8819 -0.8819 -5.1666
     vertex -0.7500 -0.7500 -4.9393
     vertex -0.5893 -0.8819 -4.9393
   endloop
 endfacet
 facet normal 0.4914 0.5987 -0.6325
   outer loop
     vertex -0.5893 -0.8819 -4.9393
     vertex -0.6929 -1.0370 -5.1666
     vertex -0.8819 -0.8819 -5.1666
   endloop
 endfacet
 facet normal 0.4918 0.4034 -0.7716
   outer loop
     vertex -0.8819 -0.5893 -4.9393
     vertex -0.6929 -0.4630 -4.7528
     vertex -0.5893 -0.5893 -4.7528
   endloop
 endfacet
 facet normal 0.4918 0.4036 -0.7715
   outer loop
     vertex -0.5893 -0.5893 -4.7528
     vertex -0.7500 -0.7500 -4.9393
     vertex -0.8819 -0.5893 -4.9393
   endloop
 endfacet
 facet normal 0.4173 0.2230 -0.8810
   outer loop
     vertex -0.7699 -0.3189 -4.7528
     vertex -0.5303 -0.2197 -4.6142
     vertex -0.4773 -0.3189 -4.6142
   endloop
 endfacet
 facet normal 0.4173 0.2230 -0.8810
   outer loop
     vertex -0.4773 -0.3189 -4.6142
     vertex -0.6929 -0.4630 -4.7528
     vertex -0.7699 -0.3189 -4.7528
   endloop
 endfacet
 facet normal 0.2792 0.0844 -0.9565
   outer loop
     vertex -0.5630 -0.1120 -4.6142
     vertex -0.2870 -0.0571 -4.5288
     vertex -0.2704 -0.1120 -4.5288
   endloop
 endfacet
 facet normal 0.2792 0.0848 -0.9565
   outer loop
     vertex -0.2704 -0.1120 -4.5288
     vertex -0.5303 -0.2197 -4.6142
     vertex -0.5630 -0.1120 -4.6142
   endloop
 endfacet
 facet normal 0.0980 0.0096 -0.9951
   outer loop
     vertex -0.2870 -0.0571 -4.5288
     vertex -0.2926 0.0000 -4.5288
     vertex 0.0000 0.0000 -4.5000
   endloop
 endfacet
 facet normal -0.0942 0.0285 -0.9951
   outer loop
     vertex 0.2870 -0.0571 -4.5288
     vertex 0.2704 -0.1120 -4.5288
     vertex 0.0000 0.0000 -4.5000
   endloop
 endfacet
 facet normal -0.2571 0.1377 -0.9565
   outer loop
     vertex 0.4773 -0.3189 -4.6142
     vertex 0.2433 -0.1626 -4.5288
     vertex 0.2704 -0.1120 -4.5288
   endloop
 endfacet
 facet normal -0.2573 0.1375 -0.9565
   outer loop
     vertex 0.2704 -0.1120 -4.5288
     vertex 0.5303 -0.2197 -4.6142
     vertex 0.4773 -0.3189 -4.6142
   endloop
 endfacet
 facet normal -0.3657 0.3001 -0.8810
   outer loop
     vertex 0.5893 -0.5893 -4.7528
     vertex 0.4059 -0.4059 -4.6142
     vertex 0.4773 -0.3189 -4.6142
   endloop
 endfacet
 facet normal -0.3658 0.3001 -0.8810
   outer loop
     vertex 0.4773 -0.3189 -4.6142
     vertex 0.6929 -0.4630 -4.7528
     vertex 0.5893 -0.5893 -4.7528
   endloop
 endfacet
 facet normal -0.4034 0.4918 -0.7716
   outer loop
     vertex 0.5893 -0.8819 -4.9393
     vertex 0.4630 -0.6929 -4.7528
     vertex 0.5893 -0.5893 -4.7528
   endloop
 endfacet
 facet normal -0.4036 0.4918 -0.7715
   outer loop
     vertex 0.5893 -0.5893 -4.7528
     vertex 0.7500 -0.7500 -4.9393
     vertex 0.5893 -0.8819 -4.9393
   endloop
 endfacet
 facet normal -0.3650 0.6830 -0.6327
   outer loop
     vertex 0.4773 -1.1523 -5.1666
     vertex 0.4059 -0.9799 -4.9393
     vertex 0.5893 -0.8819 -4.9393
   endloop
 endfacet
 facet normal -0.3653 0.6830 -0.6325
   outer loop
     vertex 0.5893 -0.8819 -4.9393
     vertex 0.6929 -1.0370 -5.1666
     vertex 0.4773 -1.1523 -5.1666
   endloop
 endfacet
 facet normal -0.2560 0.8449 -0.4697
   outer loop
     vertex 0.2704 -1.3592 -5.4260
     vertex 0.2433 -1.2232 -5.1666
     vertex 0.4773 -1.1523 -5.1666
   endloop
 endfacet
 facet normal -0.2565 0.8449 -0.4693
   outer loop
     vertex 0.4773 -1.1523 -5.1666
     vertex 0.5303 -1.2803 -5.4260
     vertex 0.2704 -1.3592 -5.4260
   endloop
 endfacet
 facet normal -0.0937 0.9527 -0.2891
   outer loop
     vertex 0.0000 -1.4712 -5.7074
     vertex 0.0000 -1.3858 -5.4260
     vertex 0.2704 -1.3592 -5.4260
   endloop
 endfacet
 facet normal -0.0939 0.9527 -0.2889
   outer loop
     vertex 0.2704 -1.3592 -5.4260
     vertex 0.2870 -1.4429 -5.7074
     vertex 0.0000 -1.4712 -5.7074
   endloop
 endfacet
 facet normal 0.0937 0.9528 -0.2889
   outer loop
     vertex -0.2870 -1.4429 -5.7074
     vertex -0.2704 -1.3592 -5.4260
     vertex 0.0000 -1.3858 -5.4260
   endloop
 endfacet
 facet normal 0.0939 0.9527 -0.2891
   outer loop
     vertex 0.0000 -1.3858 -5.4260
     vertex 0.0000 -1.4712 -5.7074
     vertex -0.2870 -1.4429 -5.7074
   endloop
 endfacet
 facet normal 0.2561 0.8451 -0.4693
   outer loop
     vertex -0.5303 -1.2803 -5.4260
     vertex -0.4773 -1.1523 -5.1666
     vertex -0.2433 -1.2232 -5.1666
   endloop
 endfacet
 facet normal 0.2565 0.8448 -0.4697
   outer loop
     vertex -0.2433 -1.2232 -5.1666
     vertex -0.2704 -1.3592 -5.4260
     vertex -0.5303 -1.2803 -5.4260
   endloop
 endfacet
 facet normal 0.3650 0.6831 -0.6325
   outer loop
     vertex -0.6929 -1.0370 -5.1666
     vertex -0.5893 -0.8819 -4.9393
     vertex -0.4059 -0.9799 -4.9393
   endloop
 endfacet
 facet normal 0.3652 0.6829 -0.6327
   outer loop
     vertex -0.4059 -0.9799 -4.9393
     vertex -0.4773 -1.1523 -5.1666
     vertex -0.6929 -1.0370 -5.1666
   endloop
 endfacet
 facet normal 0.4035 0.4919 -0.7715
   outer loop
     vertex -0.7500 -0.7500 -4.9393
     vertex -0.5893 -0.5893 -4.7528
     vertex -0.4630 -0.6929 -4.7528
   endloop
 endfacet
 facet normal 0.4036 0.4917 -0.7716
   outer loop
     vertex -0.4630 -0.6929 -4.7528
     vertex -0.5893 -0.8819 -4.9393
     vertex -0.7500 -0.7500 -4.9393
   endloop
 endfacet
 facet normal 0.3657 0.3002 -0.8810
   outer loop
     vertex -0.6929 -0.4630 -4.7528
     vertex -0.4773 -0.3189 -4.6142
     vertex -0.4059 -0.4059 -4.6142
   endloop
 endfacet
 facet normal 0.3658 0.3000 -0.8810
   outer loop
     vertex -0.4059 -0.4059 -4.6142
     vertex -0.5893 -0.5893 -4.7528
     vertex -0.6929 -0.4630 -4.7528
   endloop
 endfacet
 facet normal 0.2572 0.1378 -0.9565
   outer loop
     vertex -0.5303 -0.2197 -4.6142
     vertex -0.2704 -0.1120 -4.5288
     vertex -0.2433 -0.1626 -4.5288
   endloop
 endfacet
 facet normal 0.2573 0.1375 -0.9565
   outer loop
     vertex -0.2433 -0.1626 -4.5288
     vertex -0.4773 -0.3189 -4.6142
     vertex -0.5303 -0.2197 -4.6142
   endloop
 endfacet
 facet normal 0.0942 0.0285 -0.9951
   outer loop
     vertex -0.2704 -0.1120 -4.5288
     vertex -0.2870 -0.0571 -4.5288
     vertex 0.0000 0.0000 -4.5000
   endloop
 endfacet
 facet normal -0.0867 0.0465 -0.9951
   outer loop
     vertex 0.2704 -0.1120 -4.5288
     vertex 0.2433 -0.1626 -4.5288
     vertex 0.0000 0.0000 -4.5000
   endloop
 endfacet
 facet normal -0.2253 0.1852 -0.9565
   outer loop
     vertex 0.4059 -0.4059 -4.6142
     vertex 0.2069 -0.2069 -4.5288
     vertex 0.2433 -0.1626 -4.5288
   endloop
 endfacet
 facet normal -0.2255 0.1851 -0.9565
   outer loop
     vertex 0.2433 -0.1626 -4.5288
     vertex 0.4773 -0.3189 -4.6142
     vertex 0.4059 -0.4059 -4.6142
   endloop
 endfacet
 facet normal -0.3002 0.3657 -0.8810
   outer loop
     vertex 0.4630 -0.6929 -4.7528
     vertex 0.3189 -0.4773 -4.6142
     vertex 0.4059 -0.4059 -4.6142
   endloop
 endfacet
 facet normal -0.3000 0.3658 -0.8810
   outer loop
     vertex 0.4059 -0.4059 -4.6142
     vertex 0.5893 -0.5893 -4.7528
     vertex 0.4630 -0.6929 -4.7528
   endloop
 endfacet
 facet normal -0.2998 0.5610 -0.7716
   outer loop
     vertex 0.4059 -0.9799 -4.9393
     vertex 0.3189 -0.7699 -4.7528
     vertex 0.4630 -0.6929 -4.7528
   endloop
 endfacet
 facet normal -0.2998 0.5610 -0.7716
   outer loop
     vertex 0.4630 -0.6929 -4.7528
     vertex 0.5893 -0.8819 -4.9393
     vertex 0.4059 -0.9799 -4.9393
   endloop
 endfacet
 facet normal -0.2250 0.7412 -0.6325
   outer loop
     vertex 0.2433 -1.2232 -5.1666
     vertex 0.2069 -1.0403 -4.9393
     vertex 0.4059 -0.9799 -4.9393
   endloop
 endfacet
 facet normal -0.2246 0.7411 -0.6327
   outer loop
     vertex 0.4059 -0.9799 -4.9393
     vertex 0.4773 -1.1523 -5.1666
     vertex 0.2433 -1.2232 -5.1666
   endloop
 endfacet
 facet normal -0.0867 0.8787 -0.4695
   outer loop
     vertex 0.0000 -1.3858 -5.4260
     vertex 0.0000 -1.2472 -5.1666
     vertex 0.2433 -1.2232 -5.1666
   endloop
 endfacet
 facet normal -0.0864 0.8786 -0.4697
   outer loop
     vertex 0.2433 -1.2232 -5.1666
     vertex 0.2704 -1.3592 -5.4260
     vertex 0.0000 -1.3858 -5.4260
   endloop
 endfacet
 facet normal 0.0867 0.8786 -0.4697
   outer loop
     vertex -0.2704 -1.3592 -5.4260
     vertex -0.2433 -1.2232 -5.1666
     vertex 0.0000 -1.2472 -5.1666
   endloop
 endfacet
 facet normal 0.0864 0.8787 -0.4695
   outer loop
     vertex 0.0000 -1.2472 -5.1666
     vertex 0.0000 -1.3858 -5.4260
     vertex -0.2704 -1.3592 -5.4260
   endloop
 endfacet
 facet normal 0.2249 0.7410 -0.6327
   outer loop
     vertex -0.4773 -1.1523 -5.1666
     vertex -0.4059 -0.9799 -4.9393
     vertex -0.2069 -1.0403 -4.9393
   endloop
 endfacet
 facet normal 0.2246 0.7413 -0.6325
   outer loop
     vertex -0.2069 -1.0403 -4.9393
     vertex -0.2433 -1.2232 -5.1666
     vertex -0.4773 -1.1523 -5.1666
   endloop
 endfacet
 facet normal 0.2998 0.5610 -0.7716
   outer loop
     vertex -0.5893 -0.8819 -4.9393
     vertex -0.4630 -0.6929 -4.7528
     vertex -0.3189 -0.7699 -4.7528
   endloop
 endfacet
 facet normal 0.2998 0.5610 -0.7716
   outer loop
     vertex -0.3189 -0.7699 -4.7528
     vertex -0.4059 -0.9799 -4.9393
     vertex -0.5893 -0.8819 -4.9393
   endloop
 endfacet
 facet normal 0.3001 0.3657 -0.8810
   outer loop
     vertex -0.5893 -0.5893 -4.7528
     vertex -0.4059 -0.4059 -4.6142
     vertex -0.3189 -0.4773 -4.6142
   endloop
 endfacet
 facet normal 0.3001 0.3658 -0.8810
   outer loop
     vertex -0.3189 -0.4773 -4.6142
     vertex -0.4630 -0.6929 -4.7528
     vertex -0.5893 -0.5893 -4.7528
   endloop
 endfacet
 facet normal 0.2254 0.1852 -0.9565
   outer loop
     vertex -0.4773 -0.3189 -4.6142
     vertex -0.2433 -0.1626 -4.5288
     vertex -0.2069 -0.2069 -4.5288
   endloop
 endfacet
 facet normal 0.2255 0.1850 -0.9565
   outer loop
     vertex -0.2069 -0.2069 -4.5288
     vertex -0.4059 -0.4059 -4.6142
     vertex -0.4773 -0.3189 -4.6142
   endloop
 endfacet
 facet normal 0.0867 0.0465 -0.9951
   outer loop
     vertex -0.2433 -0.1626 -4.5288
     vertex -0.2704 -0.1120 -4.5288
     vertex 0.0000 0.0000 -4.5000
   endloop
 endfacet
 facet normal -0.0760 0.0625 -0.9951
   outer loop
     vertex 0.2433 -0.1626 -4.5288
     vertex 0.2069 -0.2069 -4.5288
     vertex 0.0000 0.0000 -4.5000
   endloop
 endfacet
 facet normal -0.1852 0.2254 -0.9565
   outer loop
     vertex 0.3189 -0.4773 -4.6142
     vertex 0.1626 -0.2433 -4.5288
     vertex 0.2069 -0.2069 -4.5288
   endloop
 endfacet
 facet normal -0.1850 0.2255 -0.9565
   outer loop
     vertex 0.2069 -0.2069 -4.5288
     vertex 0.4059 -0.4059 -4.6142
     vertex 0.3189 -0.4773 -4.6142
   endloop
 endfacet
 facet normal -0.2230 0.4173 -0.8810
   outer loop
     vertex 0.3189 -0.7699 -4.7528
     vertex 0.2197 -0.5303 -4.6142
     vertex 0.3189 -0.4773 -4.6142
   endloop
 endfacet
 facet normal -0.2230 0.4173 -0.8810
   outer loop
     vertex 0.3189 -0.4773 -4.6142
     vertex 0.4630 -0.6929 -4.7528
     vertex 0.3189 -0.7699 -4.7528
   endloop
 endfacet
 facet normal -0.1846 0.6087 -0.7716
   outer loop
     vertex 0.2069 -1.0403 -4.9393
     vertex 0.1626 -0.8173 -4.7528
     vertex 0.3189 -0.7699 -4.7528
   endloop
 endfacet
 facet normal -0.1848 0.6087 -0.7716
   outer loop
     vertex 0.3189 -0.7699 -4.7528
     vertex 0.4059 -0.9799 -4.9393
     vertex 0.2069 -1.0403 -4.9393
   endloop
 endfacet
 facet normal -0.0760 0.7708 -0.6325
   outer loop
     vertex 0.0000 -1.2472 -5.1666
     vertex 0.0000 -1.0607 -4.9393
     vertex 0.2069 -1.0403 -4.9393
   endloop
 endfacet
 facet normal -0.0760 0.7709 -0.6325
   outer loop
     vertex 0.2069 -1.0403 -4.9393
     vertex 0.2433 -1.2232 -5.1666
     vertex 0.0000 -1.2472 -5.1666
   endloop
 endfacet
 facet normal 0.0760 0.7709 -0.6325
   outer loop
     vertex -0.2433 -1.2232 -5.1666
     vertex -0.2069 -1.0403 -4.9393
     vertex 0.0000 -1.0607 -4.9393
   endloop
 endfacet
 facet normal 0.0760 0.7708 -0.6325
   outer loop
     vertex 0.0000 -1.0607 -4.9393
     vertex 0.0000 -1.2472 -5.1666
     vertex -0.2433 -1.2232 -5.1666
   endloop
 endfacet
 facet normal 0.1846 0.6088 -0.7716
   outer loop
     vertex -0.4059 -0.9799 -4.9393
     vertex -0.3189 -0.7699 -4.7528
     vertex -0.1626 -0.8173 -4.7528
   endloop
 endfacet
 facet normal 0.1847 0.6086 -0.7716
   outer loop
     vertex -0.1626 -0.8173 -4.7528
     vertex -0.2069 -1.0403 -4.9393
     vertex -0.4059 -0.9799 -4.9393
   endloop
 endfacet
 facet normal 0.2230 0.4173 -0.8810
   outer loop
     vertex -0.4630 -0.6929 -4.7528
     vertex -0.3189 -0.4773 -4.6142
     vertex -0.2197 -0.5303 -4.6142
   endloop
 endfacet
 facet normal 0.2230 0.4173 -0.8810
   outer loop
     vertex -0.2197 -0.5303 -4.6142
     vertex -0.3189 -0.7699 -4.7528
     vertex -0.4630 -0.6929 -4.7528
   endloop
 endfacet
 facet normal 0.1852 0.2253 -0.9565
   outer loop
     vertex -0.4059 -0.4059 -4.6142
     vertex -0.2069 -0.2069 -4.5288
     vertex -0.1626 -0.2433 -4.5288
   endloop
 endfacet
 facet normal 0.1851 0.2255 -0.9565
   outer loop
     vertex -0.1626 -0.2433 -4.5288
     vertex -0.3189 -0.4773 -4.6142
     vertex -0.4059 -0.4059 -4.6142
   endloop
 endfacet
 facet normal 0.0760 0.0625 -0.9951
   outer loop
     vertex -0.2069 -0.2069 -4.5288
     vertex -0.2433 -0.1626 -4.5288
     vertex 0.0000 0.0000 -4.5000
   endloop
 endfacet
 facet normal -0.0625 0.0760 -0.9951
   outer loop
     vertex 0.2069 -0.2069 -4.5288
     vertex 0.1626 -0.2433 -4.5288
     vertex 0.0000 0.0000 -4.5000
   endloop
 endfacet
 facet normal -0.1378 0.2572 -0.9565
   outer loop
     vertex 0.2197 -0.5303 -4.6142
     vertex 0.1120 -0.2704 -4.5288
     vertex 0.1626 -0.2433 -4.5288
   endloop
 endfacet
 facet normal -0.1375 0.2573 -0.9565
   outer loop
     vertex 0.1626 -0.2433 -4.5288
     vertex 0.3189 -0.4773 -4.6142
     vertex 0.2197 -0.5303 -4.6142
   endloop
 endfacet
 facet normal -0.1375 0.4528 -0.8810
   outer loop
     vertex 0.1626 -0.8173 -4.7528
     vertex 0.1120 -0.5630 -4.6142
     vertex 0.2197 -0.5303 -4.6142
   endloop
 endfacet
 facet normal -0.1373 0.4528 -0.8810
   outer loop
     vertex 0.2197 -0.5303 -4.6142
     vertex 0.3189 -0.7699 -4.7528
     vertex 0.1626 -0.8173 -4.7528
   endloop
 endfacet
 facet normal -0.0627 0.6331 -0.7716
   outer loop
     vertex 0.0000 -1.0607 -4.9393
     vertex 0.0000 -0.8334 -4.7528
     vertex 0.1626 -0.8173 -4.7528
   endloop
 endfacet
 facet normal -0.0624 0.6330 -0.7717
   outer loop
     vertex 0.1626 -0.8173 -4.7528
     vertex 0.2069 -1.0403 -4.9393
     vertex 0.0000 -1.0607 -4.9393
   endloop
 endfacet
 facet normal 0.0627 0.6329 -0.7717
   outer loop
     vertex -0.2069 -1.0403 -4.9393
     vertex -0.1626 -0.8173 -4.7528
     vertex 0.0000 -0.8334 -4.7528
   endloop
 endfacet
 facet normal 0.0624 0.6331 -0.7716
   outer loop
     vertex 0.0000 -0.8334 -4.7528
     vertex 0.0000 -1.0607 -4.9393
     vertex -0.2069 -1.0403 -4.9393
   endloop
 endfacet
 facet normal 0.1375 0.4527 -0.8810
   outer loop
     vertex -0.3189 -0.7699 -4.7528
     vertex -0.2197 -0.5303 -4.6142
     vertex -0.1120 -0.5630 -4.6142
   endloop
 endfacet
 facet normal 0.1373 0.4528 -0.8810
   outer loop
     vertex -0.1120 -0.5630 -4.6142
     vertex -0.1626 -0.8173 -4.7528
     vertex -0.3189 -0.7699 -4.7528
   endloop
 endfacet
 facet normal 0.1377 0.2571 -0.9565
   outer loop
     vertex -0.3189 -0.4773 -4.6142
     vertex -0.1626 -0.2433 -4.5288
     vertex -0.1120 -0.2704 -4.5288
   endloop
 endfacet
 facet normal 0.1375 0.2573 -0.9565
   outer loop
     vertex -0.1120 -0.2704 -4.5288
     vertex -0.2197 -0.5303 -4.6142
     vertex -0.3189 -0.4773 -4.6142
   endloop
 endfacet
 facet normal 0.0625 0.0760 -0.9951
   outer loop
     vertex -0.1626 -0.2433 -4.5288
     vertex -0.2069 -0.2069 -4.5288
     vertex 0.0000 0.0000 -4.5000
   endloop
 endfacet
 facet normal -0.0465 0.0867 -0.9951
   outer loop
     vertex 0.1626 -0.2433 -4.5288
     vertex 0.1120 -0.2704 -4.5288
     vertex 0.0000 0.0000 -4.5000
   endloop
 endfacet
 facet normal -0.0844 0.2792 -0.9565
   outer loop
     vertex 0.1120 -0.5630 -4.6142
     vertex 0.0571 -0.2870 -4.5288
     vertex 0.1120 -0.2704 -4.5288
   endloop
 endfacet
 facet normal -0.0848 0.2792 -0.9565
   outer loop
     vertex 0.1120 -0.2704 -4.5288
     vertex 0.2197 -0.5303 -4.6142
     vertex 0.1120 -0.5630 -4.6142
   endloop
 endfacet
 facet normal -0.0462 0.4708 -0.8811
   outer loop
     vertex 0.0000 -0.8334 -4.7528
     vertex 0.0000 -0.5740 -4.6142
     vertex 0.1120 -0.5630 -4.6142
   endloop
 endfacet
 facet normal -0.0466 0.4709 -0.8810
   outer loop
     vertex 0.1120 -0.5630 -4.6142
     vertex 0.1626 -0.8173 -4.7528
     vertex 0.0000 -0.8334 -4.7528
   endloop
 endfacet
 facet normal 0.0463 0.4709 -0.8810
   outer loop
     vertex -0.1626 -0.8173 -4.7528
     vertex -0.1120 -0.5630 -4.6142
     vertex 0.0000 -0.5740 -4.6142
   endloop
 endfacet
 facet normal 0.0466 0.4707 -0.8810
   outer loop
     vertex 0.0000 -0.5740 -4.6142
     vertex 0.0000 -0.8334 -4.7528
     vertex -0.1626 -0.8173 -4.7528
   endloop
 endfacet
 facet normal 0.0844 0.2793 -0.9565
   outer loop
     vertex -0.2197 -0.5303 -4.6142
     vertex -0.1120 -0.2704 -4.5288
     vertex -0.0571 -0.2870 -4.5288
   endloop
 endfacet
 facet normal 0.0847 0.2791 -0.9565
   outer loop
     vertex -0.0571 -0.2870 -4.5288
     vertex -0.1120 -0.5630 -4.6142
     vertex -0.2197 -0.5303 -4.6142
   endloop
 endfacet
 facet normal 0.0465 0.0867 -0.9951
   outer loop
     vertex -0.1120 -0.2704 -4.5288
     vertex -0.1626 -0.2433 -4.5288
     vertex 0.0000 0.0000 -4.5000
   endloop
 endfacet
 facet normal -0.0285 0.0942 -0.9951
   outer loop
     vertex 0.1120 -0.2704 -4.5288
     vertex 0.0571 -0.2870 -4.5288
     vertex 0.0000 0.0000 -4.5000
   endloop
 endfacet
 facet normal -0.0285 0.2903 -0.9565
   outer loop
     vertex 0.0000 -0.5740 -4.6142
     vertex 0.0000 -0.2926 -4.5288
     vertex 0.0571 -0.2870 -4.5288
   endloop
 endfacet
 facet normal -0.0285 0.2903 -0.9565
   outer loop
     vertex 0.0571 -0.2870 -4.5288
     vertex 0.1120 -0.5630 -4.6142
     vertex 0.0000 -0.5740 -4.6142
   endloop
 endfacet
 facet normal 0.0285 0.2903 -0.9565
   outer loop
     vertex -0.1120 -0.5630 -4.6142
     vertex -0.0571 -0.2870 -4.5288
     vertex 0.0000 -0.2926 -4.5288
   endloop
 endfacet
 facet normal 0.0285 0.2903 -0.9565
   outer loop
     vertex 0.0000 -0.2926 -4.5288
     vertex 0.0000 -0.5740 -4.6142
     vertex -0.1120 -0.5630 -4.6142
   endloop
 endfacet
 facet normal 0.0285 0.0942 -0.9951
   outer loop
     vertex -0.0571 -0.2870 -4.5288
     vertex -0.1120 -0.2704 -4.5288
     vertex 0.0000 0.0000 -4.5000
   endloop
 endfacet
 facet normal -0.0096 0.0980 -0.9951
   outer loop
     vertex 0.0571 -0.2870 -4.5288
     vertex 0.0000 -0.2926 -4.5288
     vertex 0.0000 0.0000 -4.5000
   endloop
 endfacet
 facet normal 0.0096 0.0980 -0.9951
   outer loop
     vertex 0.0000 -0.2926 -4.5288
     vertex -0.0571 -0.2870 -4.5288
     vertex 0.0000 0.0000 -4.5000
   endloop
 endfacet
endsolid
