solid Cheetah3Dfile
 facet normal 0.0000 -0.0000 1.0000
   outer loop
     vertex -1.0607 -1.0607 6.0000
     vertex -1.2472 -0.8334 6.0000
     vertex -6.0000 -6.0000 6.0000
   endloop
 endfacet
 facet normal -0.0000 -0.0000 1.0000
   outer loop
     vertex 1.0607 1.0607 6.0000
     vertex 6.0000 6.0000 6.0000
     vertex 0.8334 1.2472 6.0000
   endloop
 endfacet
 facet normal -0.0000 -0.0000 1.0000
   outer loop
     vertex -6.0000 -6.0000 6.0000
     vertex -1.2472 -0.8334 6.0000
     vertex -6.0000 6.0000 6.0000
   endloop
 endfacet
 facet normal -0.0000 -0.0000 1.0000
   outer loop
     vertex 0.8334 1.2472 6.0000
     vertex 6.0000 6.0000 6.0000
     vertex 0.5740 1.3858 6.0000
   endloop
 endfacet
 facet normal -0.0000 -0.0000 1.0000
   outer loop
     vertex -1.2472 -0.8334 6.0000
     vertex -1.3858 -0.5740 6.0000
     vertex -6.0000 6.0000 6.0000
   endloop
 endfacet
 facet normal -0.0000 -0.0000 1.0000
   outer loop
     vertex 0.5740 1.3858 6.0000
     vertex 6.0000 6.0000 6.0000
     vertex 0.2926 1.4712 6.0000
   endloop
 endfacet
 facet normal -0.0000 -0.0000 1.0000
   outer loop
     vertex -1.3858 -0.5740 6.0000
     vertex -1.4712 -0.2926 6.0000
     vertex -6.0000 6.0000 6.0000
   endloop
 endfacet
 facet normal -0.0000 -0.0000 1.0000
   outer loop
     vertex 0.2926 1.4712 6.0000
     vertex 6.0000 6.0000 6.0000
     vertex -0.0000 1.5000 6.0000
   endloop
 endfacet
 facet normal -0.0000 -0.0000 1.0000
   outer loop
     vertex -1.4712 -0.2926 6.0000
     vertex -1.5000 -0.0000 6.0000
     vertex -6.0000 6.0000 6.0000
   endloop
 endfacet
 facet normal 0.0000 -0.0000 1.0000
   outer loop
     vertex -0.0000 1.5000 6.0000
     vertex 6.0000 6.0000 6.0000
     vertex -0.2926 1.4712 6.0000
   endloop
 endfacet
 facet normal -0.0000 -0.0000 1.0000
   outer loop
     vertex -1.5000 -0.0000 6.0000
     vertex -1.4712 0.2926 6.0000
     vertex -6.0000 6.0000 6.0000
   endloop
 endfacet
 facet normal 0.0000 -0.0000 1.0000
   outer loop
     vertex -0.2926 1.4712 6.0000
     vertex 6.0000 6.0000 6.0000
     vertex -0.5740 1.3858 6.0000
   endloop
 endfacet
 facet normal -0.0000 -0.0000 1.0000
   outer loop
     vertex -1.4712 0.2926 6.0000
     vertex -1.3858 0.5740 6.0000
     vertex -6.0000 6.0000 6.0000
   endloop
 endfacet
 facet normal 0.0000 -0.0000 1.0000
   outer loop
     vertex -0.5740 1.3858 6.0000
     vertex 6.0000 6.0000 6.0000
     vertex -0.8334 1.2472 6.0000
   endloop
 endfacet
 facet normal -0.0000 -0.0000 1.0000
   outer loop
     vertex -1.3858 0.5740 6.0000
     vertex -1.2472 0.8334 6.0000
     vertex -6.0000 6.0000 6.0000
   endloop
 endfacet
 facet normal 0.0000 -0.0000 1.0000
   outer loop
     vertex 6.0000 6.0000 6.0000
     vertex -6.0000 6.0000 6.0000
     vertex -0.8334 1.2472 6.0000
   endloop
 endfacet
 facet normal -0.0000 -0.0000 1.0000
   outer loop
     vertex -1.2472 0.8334 6.0000
     vertex -1.0607 1.0607 6.0000
     vertex -6.0000 6.0000 6.0000
   endloop
 endfacet
 facet normal 0.0000 -0.0000 1.0000
   outer loop
     vertex -0.8334 1.2472 6.0000
     vertex -6.0000 6.0000 6.0000
     vertex -1.0607 1.0607 6.0000
   endloop
 endfacet
 facet normal -0.0000 -0.0000 1.0000
   outer loop
     vertex 1.0607 1.0607 6.0000
     vertex 1.2472 0.8334 6.0000
     vertex 6.0000 6.0000 6.0000
   endloop
 endfacet
 facet normal -0.0000 0.0000 1.0000
   outer loop
     vertex -1.0607 -1.0607 6.0000
     vertex -6.0000 -6.0000 6.0000
     vertex -1.0607 -1.0607 6.0000
   endloop
 endfacet
 facet normal -0.0000 0.0000 1.0000
   outer loop
     vertex 6.0000 6.0000 6.0000
     vertex 1.2472 0.8334 6.0000
     vertex 6.0000 -6.0000 6.0000
   endloop
 endfacet
 facet normal -0.0000 0.0000 1.0000
   outer loop
     vertex -1.0607 -1.0607 6.0000
     vertex -6.0000 -6.0000 6.0000
     vertex -0.8334 -1.2472 6.0000
   endloop
 endfacet
 facet normal -0.0000 -0.0000 1.0000
   outer loop
     vertex 1.2472 0.8334 6.0000
     vertex 1.3858 0.5740 6.0000
     vertex 6.0000 -6.0000 6.0000
   endloop
 endfacet
 facet normal -0.0000 0.0000 1.0000
   outer loop
     vertex -0.8334 -1.2472 6.0000
     vertex -6.0000 -6.0000 6.0000
     vertex -0.5740 -1.3858 6.0000
   endloop
 endfacet
 facet normal -0.0000 -0.0000 1.0000
   outer loop
     vertex 1.3858 0.5740 6.0000
     vertex 1.4712 0.2926 6.0000
     vertex 6.0000 -6.0000 6.0000
   endloop
 endfacet
 facet normal -0.0000 0.0000 1.0000
   outer loop
     vertex -0.5740 -1.3858 6.0000
     vertex -6.0000 -6.0000 6.0000
     vertex -0.2926 -1.4712 6.0000
   endloop
 endfacet
 facet normal -0.0000 -0.0000 1.0000
   outer loop
     vertex 1.4712 0.2926 6.0000
     vertex 1.5000 0.0000 6.0000
     vertex 6.0000 -6.0000 6.0000
   endloop
 endfacet
 facet normal -0.0000 0.0000 1.0000
   outer loop
     vertex -0.2926 -1.4712 6.0000
     vertex -6.0000 -6.0000 6.0000
     vertex 0.0000 -1.5000 6.0000
   endloop
 endfacet
 facet normal -0.0000 0.0000 1.0000
   outer loop
     vertex 1.5000 0.0000 6.0000
     vertex 1.4712 -0.2926 6.0000
     vertex 6.0000 -6.0000 6.0000
   endloop
 endfacet
 facet normal -0.0000 0.0000 1.0000
   outer loop
     vertex 0.0000 -1.5000 6.0000
     vertex -6.0000 -6.0000 6.0000
     vertex 0.2926 -1.4712 6.0000
   endloop
 endfacet
 facet normal -0.0000 0.0000 1.0000
   outer loop
     vertex 1.4712 -0.2926 6.0000
     vertex 1.3858 -0.5740 6.0000
     vertex 6.0000 -6.0000 6.0000
   endloop
 endfacet
 facet normal -0.0000 0.0000 1.0000
   outer loop
     vertex 0.2926 -1.4712 6.0000
     vertex -6.0000 -6.0000 6.0000
     vertex 0.5740 -1.3858 6.0000
   endloop
 endfacet
 facet normal -0.0000 0.0000 1.0000
   outer loop
     vertex 1.3858 -0.5740 6.0000
     vertex 1.2472 -0.8334 6.0000
     vertex 6.0000 -6.0000 6.0000
   endloop
 endfacet
 facet normal -0.0000 0.0000 1.0000
   outer loop
     vertex 0.5740 -1.3858 6.0000
     vertex -6.0000 -6.0000 6.0000
     vertex 0.8334 -1.2472 6.0000
   endloop
 endfacet
 facet normal -0.0000 0.0000 1.0000
   outer loop
     vertex 1.2472 -0.8334 6.0000
     vertex 1.0607 -1.0607 6.0000
     vertex 6.0000 -6.0000 6.0000
   endloop
 endfacet
 facet normal -0.0000 -0.0000 1.0000
   outer loop
     vertex -6.0000 -6.0000 6.0000
     vertex 6.0000 -6.0000 6.0000
     vertex 0.8334 -1.2472 6.0000
   endloop
 endfacet
 facet normal -0.0000 0.0000 1.0000
   outer loop
     vertex 1.0607 -1.0607 6.0000
     vertex 0.8334 -1.2472 6.0000
     vertex 6.0000 -6.0000 6.0000
   endloop
 endfacet
 facet normal -0.0975 0.9904 0.0975
   outer loop
     vertex 0.2926 -1.4712 6.0000
     vertex 0.2870 -1.4429 5.7074
     vertex 0.0000 -1.4712 5.7074
   endloop
 endfacet
 facet normal -0.0975 0.9904 0.0976
   outer loop
     vertex 0.0000 -1.4712 5.7074
     vertex 0.0000 -1.5000 6.0000
     vertex 0.2926 -1.4712 6.0000
   endloop
 endfacet
 facet normal 0.0975 0.9904 0.0976
   outer loop
     vertex 0.0000 -1.5000 6.0000
     vertex 0.0000 -1.4712 5.7074
     vertex -0.2870 -1.4429 5.7074
   endloop
 endfacet
 facet normal 0.0975 0.9904 0.0975
   outer loop
     vertex -0.2870 -1.4429 5.7074
     vertex -0.2926 -1.4712 6.0000
     vertex 0.0000 -1.5000 6.0000
   endloop
 endfacet
 facet normal -0.0938 0.9527 0.2890
   outer loop
     vertex 0.2870 -1.4429 5.7074
     vertex 0.2704 -1.3592 5.4260
     vertex 0.0000 -1.3858 5.4260
   endloop
 endfacet
 facet normal -0.0938 0.9527 0.2890
   outer loop
     vertex 0.0000 -1.3858 5.4260
     vertex 0.0000 -1.4712 5.7074
     vertex 0.2870 -1.4429 5.7074
   endloop
 endfacet
 facet normal -0.2889 0.9524 0.0975
   outer loop
     vertex 0.5740 -1.3858 6.0000
     vertex 0.5630 -1.3592 5.7074
     vertex 0.2870 -1.4429 5.7074
   endloop
 endfacet
 facet normal -0.2889 0.9524 0.0975
   outer loop
     vertex 0.2870 -1.4429 5.7074
     vertex 0.2926 -1.4712 6.0000
     vertex 0.5740 -1.3858 6.0000
   endloop
 endfacet
 facet normal 0.2889 0.9524 0.0975
   outer loop
     vertex -0.2926 -1.4712 6.0000
     vertex -0.2870 -1.4429 5.7074
     vertex -0.5630 -1.3592 5.7074
   endloop
 endfacet
 facet normal 0.2889 0.9524 0.0976
   outer loop
     vertex -0.5630 -1.3592 5.7074
     vertex -0.5740 -1.3858 6.0000
     vertex -0.2926 -1.4712 6.0000
   endloop
 endfacet
 facet normal 0.0938 0.9527 0.2890
   outer loop
     vertex 0.0000 -1.4712 5.7074
     vertex 0.0000 -1.3858 5.4260
     vertex -0.2704 -1.3592 5.4260
   endloop
 endfacet
 facet normal 0.0938 0.9527 0.2890
   outer loop
     vertex -0.2704 -1.3592 5.4260
     vertex -0.2870 -1.4429 5.7074
     vertex 0.0000 -1.4712 5.7074
   endloop
 endfacet
 facet normal -0.0865 0.8786 0.4696
   outer loop
     vertex 0.2704 -1.3592 5.4260
     vertex 0.2433 -1.2232 5.1666
     vertex 0.0000 -1.2472 5.1666
   endloop
 endfacet
 facet normal -0.0865 0.8786 0.4696
   outer loop
     vertex 0.0000 -1.2472 5.1666
     vertex 0.0000 -1.3858 5.4260
     vertex 0.2704 -1.3592 5.4260
   endloop
 endfacet
 facet normal -0.2779 0.9161 0.2890
   outer loop
     vertex 0.5630 -1.3592 5.7074
     vertex 0.5303 -1.2803 5.4260
     vertex 0.2704 -1.3592 5.4260
   endloop
 endfacet
 facet normal -0.2779 0.9161 0.2890
   outer loop
     vertex 0.2704 -1.3592 5.4260
     vertex 0.2870 -1.4429 5.7074
     vertex 0.5630 -1.3592 5.7074
   endloop
 endfacet
 facet normal -0.4691 0.8777 0.0975
   outer loop
     vertex 0.8334 -1.2472 6.0000
     vertex 0.8173 -1.2232 5.7074
     vertex 0.5630 -1.3592 5.7074
   endloop
 endfacet
 facet normal -0.4691 0.8777 0.0975
   outer loop
     vertex 0.5630 -1.3592 5.7074
     vertex 0.5740 -1.3858 6.0000
     vertex 0.8334 -1.2472 6.0000
   endloop
 endfacet
 facet normal 0.4691 0.8777 0.0976
   outer loop
     vertex -0.5740 -1.3858 6.0000
     vertex -0.5630 -1.3592 5.7074
     vertex -0.8173 -1.2232 5.7074
   endloop
 endfacet
 facet normal 0.4691 0.8777 0.0975
   outer loop
     vertex -0.8173 -1.2232 5.7074
     vertex -0.8334 -1.2472 6.0000
     vertex -0.5740 -1.3858 6.0000
   endloop
 endfacet
 facet normal 0.2779 0.9161 0.2890
   outer loop
     vertex -0.2870 -1.4429 5.7074
     vertex -0.2704 -1.3592 5.4260
     vertex -0.5303 -1.2803 5.4260
   endloop
 endfacet
 facet normal 0.2779 0.9161 0.2890
   outer loop
     vertex -0.5303 -1.2803 5.4260
     vertex -0.5630 -1.3592 5.7074
     vertex -0.2870 -1.4429 5.7074
   endloop
 endfacet
 facet normal 0.0865 0.8786 0.4696
   outer loop
     vertex 0.0000 -1.3858 5.4260
     vertex 0.0000 -1.2472 5.1666
     vertex -0.2433 -1.2232 5.1666
   endloop
 endfacet
 facet normal 0.0865 0.8786 0.4696
   outer loop
     vertex -0.2433 -1.2232 5.1666
     vertex -0.2704 -1.3592 5.4260
     vertex 0.0000 -1.3858 5.4260
   endloop
 endfacet
 facet normal -0.0759 0.7708 0.6326
   outer loop
     vertex 0.2433 -1.2232 5.1666
     vertex 0.2069 -1.0403 4.9393
     vertex 0.0000 -1.0607 4.9393
   endloop
 endfacet
 facet normal -0.0759 0.7708 0.6326
   outer loop
     vertex 0.0000 -1.0607 4.9393
     vertex 0.0000 -1.2472 5.1666
     vertex 0.2433 -1.2232 5.1666
   endloop
 endfacet
 facet normal -0.2563 0.8448 0.4696
   outer loop
     vertex 0.5303 -1.2803 5.4260
     vertex 0.4773 -1.1523 5.1666
     vertex 0.2433 -1.2232 5.1666
   endloop
 endfacet
 facet normal -0.2563 0.8448 0.4696
   outer loop
     vertex 0.2433 -1.2232 5.1666
     vertex 0.2704 -1.3592 5.4260
     vertex 0.5303 -1.2803 5.4260
   endloop
 endfacet
 facet normal -0.4513 0.8443 0.2890
   outer loop
     vertex 0.8173 -1.2232 5.7074
     vertex 0.7699 -1.1523 5.4260
     vertex 0.5303 -1.2803 5.4260
   endloop
 endfacet
 facet normal -0.4513 0.8443 0.2890
   outer loop
     vertex 0.5303 -1.2803 5.4260
     vertex 0.5630 -1.3592 5.7074
     vertex 0.8173 -1.2232 5.7074
   endloop
 endfacet
 facet normal -0.6314 0.7693 0.0976
   outer loop
     vertex 1.0607 -1.0607 6.0000
     vertex 1.0403 -1.0403 5.7074
     vertex 0.8173 -1.2232 5.7074
   endloop
 endfacet
 facet normal -0.6314 0.7693 0.0975
   outer loop
     vertex 0.8173 -1.2232 5.7074
     vertex 0.8334 -1.2472 6.0000
     vertex 1.0607 -1.0607 6.0000
   endloop
 endfacet
 facet normal 0.6314 0.7693 0.0975
   outer loop
     vertex -0.8334 -1.2472 6.0000
     vertex -0.8173 -1.2232 5.7074
     vertex -1.0403 -1.0403 5.7074
   endloop
 endfacet
 facet normal 0.6314 0.7693 0.0976
   outer loop
     vertex -1.0403 -1.0403 5.7074
     vertex -1.0607 -1.0607 6.0000
     vertex -0.8334 -1.2472 6.0000
   endloop
 endfacet
 facet normal 0.4513 0.8443 0.2890
   outer loop
     vertex -0.5630 -1.3592 5.7074
     vertex -0.5303 -1.2803 5.4260
     vertex -0.7699 -1.1523 5.4260
   endloop
 endfacet
 facet normal 0.4513 0.8443 0.2890
   outer loop
     vertex -0.7699 -1.1523 5.4260
     vertex -0.8173 -1.2232 5.7074
     vertex -0.5630 -1.3592 5.7074
   endloop
 endfacet
 facet normal 0.2563 0.8448 0.4696
   outer loop
     vertex -0.2704 -1.3592 5.4260
     vertex -0.2433 -1.2232 5.1666
     vertex -0.4773 -1.1523 5.1666
   endloop
 endfacet
 facet normal 0.2563 0.8448 0.4696
   outer loop
     vertex -0.4773 -1.1523 5.1666
     vertex -0.5303 -1.2803 5.4260
     vertex -0.2704 -1.3592 5.4260
   endloop
 endfacet
 facet normal 0.0759 0.7708 0.6326
   outer loop
     vertex 0.0000 -1.2472 5.1666
     vertex 0.0000 -1.0607 4.9393
     vertex -0.2069 -1.0403 4.9393
   endloop
 endfacet
 facet normal 0.0759 0.7708 0.6326
   outer loop
     vertex -0.2069 -1.0403 4.9393
     vertex -0.2433 -1.2232 5.1666
     vertex 0.0000 -1.2472 5.1666
   endloop
 endfacet
 facet normal -0.0624 0.6332 0.7715
   outer loop
     vertex 0.2069 -1.0403 4.9393
     vertex 0.1626 -0.8173 4.7528
     vertex 0.0000 -0.8334 4.7528
   endloop
 endfacet
 facet normal -0.0624 0.6332 0.7715
   outer loop
     vertex 0.0000 -0.8334 4.7528
     vertex 0.0000 -1.0607 4.9393
     vertex 0.2069 -1.0403 4.9393
   endloop
 endfacet
 facet normal -0.2248 0.7412 0.6326
   outer loop
     vertex 0.4773 -1.1523 5.1666
     vertex 0.4059 -0.9799 4.9393
     vertex 0.2069 -1.0403 4.9393
   endloop
 endfacet
 facet normal -0.2248 0.7412 0.6326
   outer loop
     vertex 0.2069 -1.0403 4.9393
     vertex 0.2433 -1.2232 5.1666
     vertex 0.4773 -1.1523 5.1666
   endloop
 endfacet
 facet normal -0.4162 0.7786 0.4696
   outer loop
     vertex 0.7699 -1.1523 5.4260
     vertex 0.6929 -1.0370 5.1666
     vertex 0.4773 -1.1523 5.1666
   endloop
 endfacet
 facet normal -0.4162 0.7786 0.4696
   outer loop
     vertex 0.4773 -1.1523 5.1666
     vertex 0.5303 -1.2803 5.4260
     vertex 0.7699 -1.1523 5.4260
   endloop
 endfacet
 facet normal -0.6073 0.7400 0.2890
   outer loop
     vertex 1.0403 -1.0403 5.7074
     vertex 0.9799 -0.9799 5.4260
     vertex 0.7699 -1.1523 5.4260
   endloop
 endfacet
 facet normal -0.6073 0.7400 0.2890
   outer loop
     vertex 0.7699 -1.1523 5.4260
     vertex 0.8173 -1.2232 5.7074
     vertex 1.0403 -1.0403 5.7074
   endloop
 endfacet
 facet normal -0.7693 0.6314 0.0976
   outer loop
     vertex 1.2472 -0.8334 6.0000
     vertex 1.2232 -0.8173 5.7074
     vertex 1.0403 -1.0403 5.7074
   endloop
 endfacet
 facet normal -0.7693 0.6314 0.0976
   outer loop
     vertex 1.0403 -1.0403 5.7074
     vertex 1.0607 -1.0607 6.0000
     vertex 1.2472 -0.8334 6.0000
   endloop
 endfacet
 facet normal 0.7037 0.7037 0.0980
   outer loop
     vertex -1.0607 -1.0607 6.0000
     vertex -1.0403 -1.0403 5.7074
     vertex -1.0607 -1.0607 6.0000
   endloop
 endfacet
 facet normal 0.7693 0.6314 0.0976
   outer loop
     vertex -1.2232 -0.8173 5.7074
     vertex -1.2472 -0.8334 6.0000
     vertex -1.0403 -1.0403 5.7074
   endloop
 endfacet
 facet normal 0.7693 0.6314 0.0976
   outer loop
     vertex -1.0607 -1.0607 6.0000
     vertex -1.0403 -1.0403 5.7074
     vertex -1.2472 -0.8334 6.0000
   endloop
 endfacet
 facet normal 0.6073 0.7400 0.2890
   outer loop
     vertex -0.8173 -1.2232 5.7074
     vertex -0.7699 -1.1523 5.4260
     vertex -0.9799 -0.9799 5.4260
   endloop
 endfacet
 facet normal 0.6073 0.7400 0.2890
   outer loop
     vertex -0.9799 -0.9799 5.4260
     vertex -1.0403 -1.0403 5.7074
     vertex -0.8173 -1.2232 5.7074
   endloop
 endfacet
 facet normal 0.4162 0.7786 0.4696
   outer loop
     vertex -0.5303 -1.2803 5.4260
     vertex -0.4773 -1.1523 5.1666
     vertex -0.6929 -1.0370 5.1666
   endloop
 endfacet
 facet normal 0.4162 0.7786 0.4696
   outer loop
     vertex -0.6929 -1.0370 5.1666
     vertex -0.7699 -1.1523 5.4260
     vertex -0.5303 -1.2803 5.4260
   endloop
 endfacet
 facet normal 0.2248 0.7412 0.6326
   outer loop
     vertex -0.2433 -1.2232 5.1666
     vertex -0.2069 -1.0403 4.9393
     vertex -0.4059 -0.9799 4.9393
   endloop
 endfacet
 facet normal 0.2248 0.7412 0.6326
   outer loop
     vertex -0.4059 -0.9799 4.9393
     vertex -0.4773 -1.1523 5.1666
     vertex -0.2433 -1.2232 5.1666
   endloop
 endfacet
 facet normal 0.0624 0.6332 0.7715
   outer loop
     vertex 0.0000 -1.0607 4.9393
     vertex 0.0000 -0.8334 4.7528
     vertex -0.1626 -0.8173 4.7528
   endloop
 endfacet
 facet normal 0.0624 0.6332 0.7715
   outer loop
     vertex -0.1626 -0.8173 4.7528
     vertex -0.2069 -1.0403 4.9393
     vertex 0.0000 -1.0607 4.9393
   endloop
 endfacet
 facet normal -0.0464 0.4709 0.8810
   outer loop
     vertex 0.1626 -0.8173 4.7528
     vertex 0.1120 -0.5630 4.6142
     vertex 0.0000 -0.5740 4.6142
   endloop
 endfacet
 facet normal -0.0464 0.4709 0.8810
   outer loop
     vertex 0.0000 -0.5740 4.6142
     vertex 0.0000 -0.8334 4.7528
     vertex 0.1626 -0.8173 4.7528
   endloop
 endfacet
 facet normal -0.1847 0.6088 0.7715
   outer loop
     vertex 0.4059 -0.9799 4.9393
     vertex 0.3189 -0.7699 4.7528
     vertex 0.1626 -0.8173 4.7528
   endloop
 endfacet
 facet normal -0.1847 0.6088 0.7715
   outer loop
     vertex 0.1626 -0.8173 4.7528
     vertex 0.2069 -1.0403 4.9393
     vertex 0.4059 -0.9799 4.9393
   endloop
 endfacet
 facet normal -0.3651 0.6831 0.6326
   outer loop
     vertex 0.6929 -1.0370 5.1666
     vertex 0.5893 -0.8819 4.9393
     vertex 0.4059 -0.9799 4.9393
   endloop
 endfacet
 facet normal -0.3651 0.6831 0.6326
   outer loop
     vertex 0.4059 -0.9799 4.9393
     vertex 0.4773 -1.1523 5.1666
     vertex 0.6929 -1.0370 5.1666
   endloop
 endfacet
 facet normal -0.5601 0.6825 0.4696
   outer loop
     vertex 0.9799 -0.9799 5.4260
     vertex 0.8819 -0.8819 5.1666
     vertex 0.6929 -1.0370 5.1666
   endloop
 endfacet
 facet normal -0.5601 0.6825 0.4696
   outer loop
     vertex 0.6929 -1.0370 5.1666
     vertex 0.7699 -1.1523 5.4260
     vertex 0.9799 -0.9799 5.4260
   endloop
 endfacet
 facet normal -0.7400 0.6073 0.2890
   outer loop
     vertex 1.2232 -0.8173 5.7074
     vertex 1.1523 -0.7699 5.4260
     vertex 0.9799 -0.9799 5.4260
   endloop
 endfacet
 facet normal -0.7400 0.6073 0.2890
   outer loop
     vertex 0.9799 -0.9799 5.4260
     vertex 1.0403 -1.0403 5.7074
     vertex 1.2232 -0.8173 5.7074
   endloop
 endfacet
 facet normal -0.8777 0.4691 0.0975
   outer loop
     vertex 1.3858 -0.5740 6.0000
     vertex 1.3592 -0.5630 5.7074
     vertex 1.2232 -0.8173 5.7074
   endloop
 endfacet
 facet normal -0.8777 0.4691 0.0976
   outer loop
     vertex 1.2232 -0.8173 5.7074
     vertex 1.2472 -0.8334 6.0000
     vertex 1.3858 -0.5740 6.0000
   endloop
 endfacet
 facet normal 0.8777 0.4691 0.0976
   outer loop
     vertex -1.2472 -0.8334 6.0000
     vertex -1.2232 -0.8173 5.7074
     vertex -1.3592 -0.5630 5.7074
   endloop
 endfacet
 facet normal 0.8777 0.4691 0.0976
   outer loop
     vertex -1.3592 -0.5630 5.7074
     vertex -1.3858 -0.5740 6.0000
     vertex -1.2472 -0.8334 6.0000
   endloop
 endfacet
 facet normal 0.7400 0.6073 0.2890
   outer loop
     vertex -1.0403 -1.0403 5.7074
     vertex -0.9799 -0.9799 5.4260
     vertex -1.1523 -0.7699 5.4260
   endloop
 endfacet
 facet normal 0.7400 0.6073 0.2890
   outer loop
     vertex -1.1523 -0.7699 5.4260
     vertex -1.2232 -0.8173 5.7074
     vertex -1.0403 -1.0403 5.7074
   endloop
 endfacet
 facet normal 0.5601 0.6825 0.4696
   outer loop
     vertex -0.7699 -1.1523 5.4260
     vertex -0.6929 -1.0370 5.1666
     vertex -0.8819 -0.8819 5.1666
   endloop
 endfacet
 facet normal 0.5601 0.6825 0.4696
   outer loop
     vertex -0.8819 -0.8819 5.1666
     vertex -0.9799 -0.9799 5.4260
     vertex -0.7699 -1.1523 5.4260
   endloop
 endfacet
 facet normal 0.3651 0.6831 0.6326
   outer loop
     vertex -0.4773 -1.1523 5.1666
     vertex -0.4059 -0.9799 4.9393
     vertex -0.5893 -0.8819 4.9393
   endloop
 endfacet
 facet normal 0.3651 0.6831 0.6326
   outer loop
     vertex -0.5893 -0.8819 4.9393
     vertex -0.6929 -1.0370 5.1666
     vertex -0.4773 -1.1523 5.1666
   endloop
 endfacet
 facet normal 0.1847 0.6088 0.7715
   outer loop
     vertex -0.2069 -1.0403 4.9393
     vertex -0.1626 -0.8173 4.7528
     vertex -0.3189 -0.7699 4.7528
   endloop
 endfacet
 facet normal 0.1847 0.6088 0.7715
   outer loop
     vertex -0.3189 -0.7699 4.7528
     vertex -0.4059 -0.9799 4.9393
     vertex -0.2069 -1.0403 4.9393
   endloop
 endfacet
 facet normal 0.0464 0.4709 0.8810
   outer loop
     vertex 0.0000 -0.8334 4.7528
     vertex 0.0000 -0.5740 4.6142
     vertex -0.1120 -0.5630 4.6142
   endloop
 endfacet
 facet normal 0.0464 0.4709 0.8810
   outer loop
     vertex -0.1120 -0.5630 4.6142
     vertex -0.1626 -0.8173 4.7528
     vertex 0.0000 -0.8334 4.7528
   endloop
 endfacet
 facet normal -0.0286 0.2902 0.9565
   outer loop
     vertex 0.1120 -0.5630 4.6142
     vertex 0.0571 -0.2870 4.5288
     vertex 0.0000 -0.2926 4.5288
   endloop
 endfacet
 facet normal -0.0286 0.2902 0.9565
   outer loop
     vertex 0.0000 -0.2926 4.5288
     vertex 0.0000 -0.5740 4.6142
     vertex 0.1120 -0.5630 4.6142
   endloop
 endfacet
 facet normal -0.1374 0.4528 0.8810
   outer loop
     vertex 0.3189 -0.7699 4.7528
     vertex 0.2197 -0.5303 4.6142
     vertex 0.1120 -0.5630 4.6142
   endloop
 endfacet
 facet normal -0.1374 0.4528 0.8810
   outer loop
     vertex 0.1120 -0.5630 4.6142
     vertex 0.1626 -0.8173 4.7528
     vertex 0.3189 -0.7699 4.7528
   endloop
 endfacet
 facet normal -0.2999 0.5611 0.7715
   outer loop
     vertex 0.5893 -0.8819 4.9393
     vertex 0.4630 -0.6929 4.7528
     vertex 0.3189 -0.7699 4.7528
   endloop
 endfacet
 facet normal -0.2999 0.5611 0.7715
   outer loop
     vertex 0.3189 -0.7699 4.7528
     vertex 0.4059 -0.9799 4.9393
     vertex 0.5893 -0.8819 4.9393
   endloop
 endfacet
 facet normal -0.4913 0.5987 0.6326
   outer loop
     vertex 0.8819 -0.8819 5.1666
     vertex 0.7500 -0.7500 4.9393
     vertex 0.5893 -0.8819 4.9393
   endloop
 endfacet
 facet normal -0.4913 0.5987 0.6326
   outer loop
     vertex 0.5893 -0.8819 4.9393
     vertex 0.6929 -1.0370 5.1666
     vertex 0.8819 -0.8819 5.1666
   endloop
 endfacet
 facet normal -0.6825 0.5601 0.4696
   outer loop
     vertex 1.1523 -0.7699 5.4260
     vertex 1.0370 -0.6929 5.1666
     vertex 0.8819 -0.8819 5.1666
   endloop
 endfacet
 facet normal -0.6825 0.5601 0.4696
   outer loop
     vertex 0.8819 -0.8819 5.1666
     vertex 0.9799 -0.9799 5.4260
     vertex 1.1523 -0.7699 5.4260
   endloop
 endfacet
 facet normal -0.8443 0.4513 0.2890
   outer loop
     vertex 1.3592 -0.5630 5.7074
     vertex 1.2803 -0.5303 5.4260
     vertex 1.1523 -0.7699 5.4260
   endloop
 endfacet
 facet normal -0.8443 0.4513 0.2890
   outer loop
     vertex 1.1523 -0.7699 5.4260
     vertex 1.2232 -0.8173 5.7074
     vertex 1.3592 -0.5630 5.7074
   endloop
 endfacet
 facet normal -0.9524 0.2889 0.0975
   outer loop
     vertex 1.4712 -0.2926 6.0000
     vertex 1.4429 -0.2870 5.7074
     vertex 1.3592 -0.5630 5.7074
   endloop
 endfacet
 facet normal -0.9524 0.2889 0.0975
   outer loop
     vertex 1.3592 -0.5630 5.7074
     vertex 1.3858 -0.5740 6.0000
     vertex 1.4712 -0.2926 6.0000
   endloop
 endfacet
 facet normal 0.9524 0.2889 0.0976
   outer loop
     vertex -1.3858 -0.5740 6.0000
     vertex -1.3592 -0.5630 5.7074
     vertex -1.4429 -0.2870 5.7074
   endloop
 endfacet
 facet normal 0.9524 0.2889 0.0975
   outer loop
     vertex -1.4429 -0.2870 5.7074
     vertex -1.4712 -0.2926 6.0000
     vertex -1.3858 -0.5740 6.0000
   endloop
 endfacet
 facet normal 0.8443 0.4513 0.2890
   outer loop
     vertex -1.2232 -0.8173 5.7074
     vertex -1.1523 -0.7699 5.4260
     vertex -1.2803 -0.5303 5.4260
   endloop
 endfacet
 facet normal 0.8443 0.4513 0.2890
   outer loop
     vertex -1.2803 -0.5303 5.4260
     vertex -1.3592 -0.5630 5.7074
     vertex -1.2232 -0.8173 5.7074
   endloop
 endfacet
 facet normal 0.6825 0.5601 0.4696
   outer loop
     vertex -0.9799 -0.9799 5.4260
     vertex -0.8819 -0.8819 5.1666
     vertex -1.0370 -0.6929 5.1666
   endloop
 endfacet
 facet normal 0.6825 0.5601 0.4696
   outer loop
     vertex -1.0370 -0.6929 5.1666
     vertex -1.1523 -0.7699 5.4260
     vertex -0.9799 -0.9799 5.4260
   endloop
 endfacet
 facet normal 0.4913 0.5987 0.6326
   outer loop
     vertex -0.6929 -1.0370 5.1666
     vertex -0.5893 -0.8819 4.9393
     vertex -0.7500 -0.7500 4.9393
   endloop
 endfacet
 facet normal 0.4913 0.5987 0.6326
   outer loop
     vertex -0.7500 -0.7500 4.9393
     vertex -0.8819 -0.8819 5.1666
     vertex -0.6929 -1.0370 5.1666
   endloop
 endfacet
 facet normal 0.2999 0.5611 0.7715
   outer loop
     vertex -0.4059 -0.9799 4.9393
     vertex -0.3189 -0.7699 4.7528
     vertex -0.4630 -0.6929 4.7528
   endloop
 endfacet
 facet normal 0.2999 0.5611 0.7715
   outer loop
     vertex -0.4630 -0.6929 4.7528
     vertex -0.5893 -0.8819 4.9393
     vertex -0.4059 -0.9799 4.9393
   endloop
 endfacet
 facet normal 0.1374 0.4528 0.8810
   outer loop
     vertex -0.1626 -0.8173 4.7528
     vertex -0.1120 -0.5630 4.6142
     vertex -0.2197 -0.5303 4.6142
   endloop
 endfacet
 facet normal 0.1374 0.4528 0.8810
   outer loop
     vertex -0.2197 -0.5303 4.6142
     vertex -0.3189 -0.7699 4.7528
     vertex -0.1626 -0.8173 4.7528
   endloop
 endfacet
 facet normal 0.0286 0.2902 0.9565
   outer loop
     vertex 0.0000 -0.5740 4.6142
     vertex 0.0000 -0.2926 4.5288
     vertex -0.0571 -0.2870 4.5288
   endloop
 endfacet
 facet normal 0.0286 0.2902 0.9565
   outer loop
     vertex -0.0571 -0.2870 4.5288
     vertex -0.1120 -0.5630 4.6142
     vertex 0.0000 -0.5740 4.6142
   endloop
 endfacet
 facet normal -0.0097 0.0980 0.9951
   outer loop
     vertex 0.0000 -0.2926 4.5288
     vertex 0.0571 -0.2870 4.5288
     vertex 0.0000 -0.0000 4.5000
   endloop
 endfacet
 facet normal -0.0846 0.2790 0.9565
   outer loop
     vertex 0.2197 -0.5303 4.6142
     vertex 0.1120 -0.2704 4.5288
     vertex 0.0571 -0.2870 4.5288
   endloop
 endfacet
 facet normal -0.0846 0.2790 0.9565
   outer loop
     vertex 0.0571 -0.2870 4.5288
     vertex 0.1120 -0.5630 4.6142
     vertex 0.2197 -0.5303 4.6142
   endloop
 endfacet
 facet normal -0.2230 0.4173 0.8810
   outer loop
     vertex 0.4630 -0.6929 4.7528
     vertex 0.3189 -0.4773 4.6142
     vertex 0.2197 -0.5303 4.6142
   endloop
 endfacet
 facet normal -0.2230 0.4173 0.8810
   outer loop
     vertex 0.2197 -0.5303 4.6142
     vertex 0.3189 -0.7699 4.7528
     vertex 0.4630 -0.6929 4.7528
   endloop
 endfacet
 facet normal -0.4036 0.4918 0.7715
   outer loop
     vertex 0.7500 -0.7500 4.9393
     vertex 0.5893 -0.5893 4.7528
     vertex 0.4630 -0.6929 4.7528
   endloop
 endfacet
 facet normal -0.4036 0.4918 0.7715
   outer loop
     vertex 0.4630 -0.6929 4.7528
     vertex 0.5893 -0.8819 4.9393
     vertex 0.7500 -0.7500 4.9393
   endloop
 endfacet
 facet normal -0.5987 0.4913 0.6326
   outer loop
     vertex 1.0370 -0.6929 5.1666
     vertex 0.8819 -0.5893 4.9393
     vertex 0.7500 -0.7500 4.9393
   endloop
 endfacet
 facet normal -0.5987 0.4913 0.6326
   outer loop
     vertex 0.7500 -0.7500 4.9393
     vertex 0.8819 -0.8819 5.1666
     vertex 1.0370 -0.6929 5.1666
   endloop
 endfacet
 facet normal -0.7786 0.4162 0.4696
   outer loop
     vertex 1.2803 -0.5303 5.4260
     vertex 1.1523 -0.4773 5.1666
     vertex 1.0370 -0.6929 5.1666
   endloop
 endfacet
 facet normal -0.7786 0.4162 0.4696
   outer loop
     vertex 1.0370 -0.6929 5.1666
     vertex 1.1523 -0.7699 5.4260
     vertex 1.2803 -0.5303 5.4260
   endloop
 endfacet
 facet normal -0.9161 0.2779 0.2890
   outer loop
     vertex 1.4429 -0.2870 5.7074
     vertex 1.3592 -0.2704 5.4260
     vertex 1.2803 -0.5303 5.4260
   endloop
 endfacet
 facet normal -0.9161 0.2779 0.2890
   outer loop
     vertex 1.2803 -0.5303 5.4260
     vertex 1.3592 -0.5630 5.7074
     vertex 1.4429 -0.2870 5.7074
   endloop
 endfacet
 facet normal -0.9904 0.0975 0.0976
   outer loop
     vertex 1.5000 0.0000 6.0000
     vertex 1.4712 0.0000 5.7074
     vertex 1.4429 -0.2870 5.7074
   endloop
 endfacet
 facet normal -0.9904 0.0975 0.0975
   outer loop
     vertex 1.4429 -0.2870 5.7074
     vertex 1.4712 -0.2926 6.0000
     vertex 1.5000 0.0000 6.0000
   endloop
 endfacet
 facet normal 0.9904 0.0975 0.0975
   outer loop
     vertex -1.4712 -0.2926 6.0000
     vertex -1.4429 -0.2870 5.7074
     vertex -1.4712 -0.0000 5.7074
   endloop
 endfacet
 facet normal 0.9904 0.0975 0.0976
   outer loop
     vertex -1.4712 -0.0000 5.7074
     vertex -1.5000 -0.0000 6.0000
     vertex -1.4712 -0.2926 6.0000
   endloop
 endfacet
 facet normal 0.9161 0.2779 0.2890
   outer loop
     vertex -1.3592 -0.5630 5.7074
     vertex -1.2803 -0.5303 5.4260
     vertex -1.3592 -0.2704 5.4260
   endloop
 endfacet
 facet normal 0.9161 0.2779 0.2890
   outer loop
     vertex -1.3592 -0.2704 5.4260
     vertex -1.4429 -0.2870 5.7074
     vertex -1.3592 -0.5630 5.7074
   endloop
 endfacet
 facet normal 0.7786 0.4162 0.4696
   outer loop
     vertex -1.1523 -0.7699 5.4260
     vertex -1.0370 -0.6929 5.1666
     vertex -1.1523 -0.4773 5.1666
   endloop
 endfacet
 facet normal 0.7786 0.4162 0.4696
   outer loop
     vertex -1.1523 -0.4773 5.1666
     vertex -1.2803 -0.5303 5.4260
     vertex -1.1523 -0.7699 5.4260
   endloop
 endfacet
 facet normal 0.5987 0.4913 0.6326
   outer loop
     vertex -0.8819 -0.8819 5.1666
     vertex -0.7500 -0.7500 4.9393
     vertex -0.8819 -0.5893 4.9393
   endloop
 endfacet
 facet normal 0.5987 0.4913 0.6326
   outer loop
     vertex -0.8819 -0.5893 4.9393
     vertex -1.0370 -0.6929 5.1666
     vertex -0.8819 -0.8819 5.1666
   endloop
 endfacet
 facet normal 0.4036 0.4918 0.7715
   outer loop
     vertex -0.5893 -0.8819 4.9393
     vertex -0.4630 -0.6929 4.7528
     vertex -0.5893 -0.5893 4.7528
   endloop
 endfacet
 facet normal 0.4036 0.4918 0.7715
   outer loop
     vertex -0.5893 -0.5893 4.7528
     vertex -0.7500 -0.7500 4.9393
     vertex -0.5893 -0.8819 4.9393
   endloop
 endfacet
 facet normal 0.2230 0.4173 0.8810
   outer loop
     vertex -0.3189 -0.7699 4.7528
     vertex -0.2197 -0.5303 4.6142
     vertex -0.3189 -0.4773 4.6142
   endloop
 endfacet
 facet normal 0.2230 0.4173 0.8810
   outer loop
     vertex -0.3189 -0.4773 4.6142
     vertex -0.4630 -0.6929 4.7528
     vertex -0.3189 -0.7699 4.7528
   endloop
 endfacet
 facet normal 0.0846 0.2790 0.9565
   outer loop
     vertex -0.1120 -0.5630 4.6142
     vertex -0.0571 -0.2870 4.5288
     vertex -0.1120 -0.2704 4.5288
   endloop
 endfacet
 facet normal 0.0846 0.2790 0.9565
   outer loop
     vertex -0.1120 -0.2704 4.5288
     vertex -0.2197 -0.5303 4.6142
     vertex -0.1120 -0.5630 4.6142
   endloop
 endfacet
 facet normal 0.0097 0.0980 0.9951
   outer loop
     vertex -0.0571 -0.2870 4.5288
     vertex 0.0000 -0.2926 4.5288
     vertex 0.0000 -0.0000 4.5000
   endloop
 endfacet
 facet normal -0.0286 0.0942 0.9951
   outer loop
     vertex 0.0571 -0.2870 4.5288
     vertex 0.1120 -0.2704 4.5288
     vertex 0.0000 -0.0000 4.5000
   endloop
 endfacet
 facet normal -0.1374 0.2571 0.9565
   outer loop
     vertex 0.3189 -0.4773 4.6142
     vertex 0.1626 -0.2433 4.5288
     vertex 0.1120 -0.2704 4.5288
   endloop
 endfacet
 facet normal -0.1374 0.2571 0.9565
   outer loop
     vertex 0.1120 -0.2704 4.5288
     vertex 0.2197 -0.5303 4.6142
     vertex 0.3189 -0.4773 4.6142
   endloop
 endfacet
 facet normal -0.3002 0.3658 0.8810
   outer loop
     vertex 0.5893 -0.5893 4.7528
     vertex 0.4059 -0.4059 4.6142
     vertex 0.3189 -0.4773 4.6142
   endloop
 endfacet
 facet normal -0.3002 0.3658 0.8810
   outer loop
     vertex 0.3189 -0.4773 4.6142
     vertex 0.4630 -0.6929 4.7528
     vertex 0.5893 -0.5893 4.7528
   endloop
 endfacet
 facet normal -0.4918 0.4036 0.7715
   outer loop
     vertex 0.8819 -0.5893 4.9393
     vertex 0.6929 -0.4630 4.7528
     vertex 0.5893 -0.5893 4.7528
   endloop
 endfacet
 facet normal -0.4918 0.4036 0.7715
   outer loop
     vertex 0.5893 -0.5893 4.7528
     vertex 0.7500 -0.7500 4.9393
     vertex 0.8819 -0.5893 4.9393
   endloop
 endfacet
 facet normal -0.6831 0.3651 0.6326
   outer loop
     vertex 1.1523 -0.4773 5.1666
     vertex 0.9799 -0.4059 4.9393
     vertex 0.8819 -0.5893 4.9393
   endloop
 endfacet
 facet normal -0.6831 0.3651 0.6326
   outer loop
     vertex 0.8819 -0.5893 4.9393
     vertex 1.0370 -0.6929 5.1666
     vertex 1.1523 -0.4773 5.1666
   endloop
 endfacet
 facet normal -0.8448 0.2563 0.4696
   outer loop
     vertex 1.3592 -0.2704 5.4260
     vertex 1.2232 -0.2433 5.1666
     vertex 1.1523 -0.4773 5.1666
   endloop
 endfacet
 facet normal -0.8448 0.2563 0.4696
   outer loop
     vertex 1.1523 -0.4773 5.1666
     vertex 1.2803 -0.5303 5.4260
     vertex 1.3592 -0.2704 5.4260
   endloop
 endfacet
 facet normal -0.9527 0.0938 0.2890
   outer loop
     vertex 1.4712 0.0000 5.7074
     vertex 1.3858 0.0000 5.4260
     vertex 1.3592 -0.2704 5.4260
   endloop
 endfacet
 facet normal -0.9527 0.0938 0.2890
   outer loop
     vertex 1.3592 -0.2704 5.4260
     vertex 1.4429 -0.2870 5.7074
     vertex 1.4712 0.0000 5.7074
   endloop
 endfacet
 facet normal -0.9904 -0.0975 0.0975
   outer loop
     vertex 1.4712 0.2926 6.0000
     vertex 1.4429 0.2870 5.7074
     vertex 1.4712 0.0000 5.7074
   endloop
 endfacet
 facet normal -0.9904 -0.0976 0.0976
   outer loop
     vertex 1.4712 0.0000 5.7074
     vertex 1.5000 0.0000 6.0000
     vertex 1.4712 0.2926 6.0000
   endloop
 endfacet
 facet normal 0.9904 -0.0975 0.0976
   outer loop
     vertex -1.5000 -0.0000 6.0000
     vertex -1.4712 -0.0000 5.7074
     vertex -1.4429 0.2870 5.7074
   endloop
 endfacet
 facet normal 0.9904 -0.0975 0.0975
   outer loop
     vertex -1.4429 0.2870 5.7074
     vertex -1.4712 0.2926 6.0000
     vertex -1.5000 -0.0000 6.0000
   endloop
 endfacet
 facet normal 0.9527 0.0938 0.2890
   outer loop
     vertex -1.4429 -0.2870 5.7074
     vertex -1.3592 -0.2704 5.4260
     vertex -1.3858 -0.0000 5.4260
   endloop
 endfacet
 facet normal 0.9527 0.0938 0.2890
   outer loop
     vertex -1.3858 -0.0000 5.4260
     vertex -1.4712 -0.0000 5.7074
     vertex -1.4429 -0.2870 5.7074
   endloop
 endfacet
 facet normal 0.8448 0.2563 0.4696
   outer loop
     vertex -1.2803 -0.5303 5.4260
     vertex -1.1523 -0.4773 5.1666
     vertex -1.2232 -0.2433 5.1666
   endloop
 endfacet
 facet normal 0.8448 0.2563 0.4696
   outer loop
     vertex -1.2232 -0.2433 5.1666
     vertex -1.3592 -0.2704 5.4260
     vertex -1.2803 -0.5303 5.4260
   endloop
 endfacet
 facet normal 0.6831 0.3651 0.6326
   outer loop
     vertex -1.0370 -0.6929 5.1666
     vertex -0.8819 -0.5893 4.9393
     vertex -0.9799 -0.4059 4.9393
   endloop
 endfacet
 facet normal 0.6831 0.3651 0.6326
   outer loop
     vertex -0.9799 -0.4059 4.9393
     vertex -1.1523 -0.4773 5.1666
     vertex -1.0370 -0.6929 5.1666
   endloop
 endfacet
 facet normal 0.4918 0.4036 0.7715
   outer loop
     vertex -0.7500 -0.7500 4.9393
     vertex -0.5893 -0.5893 4.7528
     vertex -0.6929 -0.4630 4.7528
   endloop
 endfacet
 facet normal 0.4918 0.4036 0.7715
   outer loop
     vertex -0.6929 -0.4630 4.7528
     vertex -0.8819 -0.5893 4.9393
     vertex -0.7500 -0.7500 4.9393
   endloop
 endfacet
 facet normal 0.3002 0.3658 0.8810
   outer loop
     vertex -0.4630 -0.6929 4.7528
     vertex -0.3189 -0.4773 4.6142
     vertex -0.4059 -0.4059 4.6142
   endloop
 endfacet
 facet normal 0.3002 0.3658 0.8810
   outer loop
     vertex -0.4059 -0.4059 4.6142
     vertex -0.5893 -0.5893 4.7528
     vertex -0.4630 -0.6929 4.7528
   endloop
 endfacet
 facet normal 0.1374 0.2571 0.9565
   outer loop
     vertex -0.2197 -0.5303 4.6142
     vertex -0.1120 -0.2704 4.5288
     vertex -0.1626 -0.2433 4.5288
   endloop
 endfacet
 facet normal 0.1374 0.2571 0.9565
   outer loop
     vertex -0.1626 -0.2433 4.5288
     vertex -0.3189 -0.4773 4.6142
     vertex -0.2197 -0.5303 4.6142
   endloop
 endfacet
 facet normal 0.0286 0.0942 0.9951
   outer loop
     vertex -0.1120 -0.2704 4.5288
     vertex -0.0571 -0.2870 4.5288
     vertex 0.0000 -0.0000 4.5000
   endloop
 endfacet
 facet normal -0.0464 0.0869 0.9951
   outer loop
     vertex 0.1120 -0.2704 4.5288
     vertex 0.1626 -0.2433 4.5288
     vertex 0.0000 -0.0000 4.5000
   endloop
 endfacet
 facet normal -0.1850 0.2254 0.9565
   outer loop
     vertex 0.4059 -0.4059 4.6142
     vertex 0.2069 -0.2069 4.5288
     vertex 0.1626 -0.2433 4.5288
   endloop
 endfacet
 facet normal -0.1850 0.2254 0.9565
   outer loop
     vertex 0.1626 -0.2433 4.5288
     vertex 0.3189 -0.4773 4.6142
     vertex 0.4059 -0.4059 4.6142
   endloop
 endfacet
 facet normal -0.3658 0.3002 0.8810
   outer loop
     vertex 0.6929 -0.4630 4.7528
     vertex 0.4773 -0.3189 4.6142
     vertex 0.4059 -0.4059 4.6142
   endloop
 endfacet
 facet normal -0.3658 0.3002 0.8810
   outer loop
     vertex 0.4059 -0.4059 4.6142
     vertex 0.5893 -0.5893 4.7528
     vertex 0.6929 -0.4630 4.7528
   endloop
 endfacet
 facet normal -0.5611 0.2999 0.7715
   outer loop
     vertex 0.9799 -0.4059 4.9393
     vertex 0.7699 -0.3189 4.7528
     vertex 0.6929 -0.4630 4.7528
   endloop
 endfacet
 facet normal -0.5611 0.2999 0.7715
   outer loop
     vertex 0.6929 -0.4630 4.7528
     vertex 0.8819 -0.5893 4.9393
     vertex 0.9799 -0.4059 4.9393
   endloop
 endfacet
 facet normal -0.7412 0.2248 0.6326
   outer loop
     vertex 1.2232 -0.2433 5.1666
     vertex 1.0403 -0.2069 4.9393
     vertex 0.9799 -0.4059 4.9393
   endloop
 endfacet
 facet normal -0.7412 0.2248 0.6326
   outer loop
     vertex 0.9799 -0.4059 4.9393
     vertex 1.1523 -0.4773 5.1666
     vertex 1.2232 -0.2433 5.1666
   endloop
 endfacet
 facet normal -0.8786 0.0865 0.4696
   outer loop
     vertex 1.3858 0.0000 5.4260
     vertex 1.2472 0.0000 5.1666
     vertex 1.2232 -0.2433 5.1666
   endloop
 endfacet
 facet normal -0.8786 0.0865 0.4696
   outer loop
     vertex 1.2232 -0.2433 5.1666
     vertex 1.3592 -0.2704 5.4260
     vertex 1.3858 0.0000 5.4260
   endloop
 endfacet
 facet normal -0.9527 -0.0938 0.2890
   outer loop
     vertex 1.4429 0.2870 5.7074
     vertex 1.3592 0.2704 5.4260
     vertex 1.3858 0.0000 5.4260
   endloop
 endfacet
 facet normal -0.9527 -0.0938 0.2890
   outer loop
     vertex 1.3858 0.0000 5.4260
     vertex 1.4712 0.0000 5.7074
     vertex 1.4429 0.2870 5.7074
   endloop
 endfacet
 facet normal -0.9524 -0.2889 0.0975
   outer loop
     vertex 1.3858 0.5740 6.0000
     vertex 1.3592 0.5630 5.7074
     vertex 1.4429 0.2870 5.7074
   endloop
 endfacet
 facet normal -0.9524 -0.2889 0.0975
   outer loop
     vertex 1.4429 0.2870 5.7074
     vertex 1.4712 0.2926 6.0000
     vertex 1.3858 0.5740 6.0000
   endloop
 endfacet
 facet normal 0.9524 -0.2889 0.0975
   outer loop
     vertex -1.4712 0.2926 6.0000
     vertex -1.4429 0.2870 5.7074
     vertex -1.3592 0.5630 5.7074
   endloop
 endfacet
 facet normal 0.9524 -0.2889 0.0976
   outer loop
     vertex -1.3592 0.5630 5.7074
     vertex -1.3858 0.5740 6.0000
     vertex -1.4712 0.2926 6.0000
   endloop
 endfacet
 facet normal 0.9527 -0.0938 0.2890
   outer loop
     vertex -1.4712 -0.0000 5.7074
     vertex -1.3858 -0.0000 5.4260
     vertex -1.3592 0.2704 5.4260
   endloop
 endfacet
 facet normal 0.9527 -0.0938 0.2890
   outer loop
     vertex -1.3592 0.2704 5.4260
     vertex -1.4429 0.2870 5.7074
     vertex -1.4712 -0.0000 5.7074
   endloop
 endfacet
 facet normal 0.8786 0.0865 0.4696
   outer loop
     vertex -1.3592 -0.2704 5.4260
     vertex -1.2232 -0.2433 5.1666
     vertex -1.2472 -0.0000 5.1666
   endloop
 endfacet
 facet normal 0.8786 0.0865 0.4696
   outer loop
     vertex -1.2472 -0.0000 5.1666
     vertex -1.3858 -0.0000 5.4260
     vertex -1.3592 -0.2704 5.4260
   endloop
 endfacet
 facet normal 0.7412 0.2248 0.6326
   outer loop
     vertex -1.1523 -0.4773 5.1666
     vertex -0.9799 -0.4059 4.9393
     vertex -1.0403 -0.2069 4.9393
   endloop
 endfacet
 facet normal 0.7412 0.2248 0.6326
   outer loop
     vertex -1.0403 -0.2069 4.9393
     vertex -1.2232 -0.2433 5.1666
     vertex -1.1523 -0.4773 5.1666
   endloop
 endfacet
 facet normal 0.5611 0.2999 0.7715
   outer loop
     vertex -0.8819 -0.5893 4.9393
     vertex -0.6929 -0.4630 4.7528
     vertex -0.7699 -0.3189 4.7528
   endloop
 endfacet
 facet normal 0.5611 0.2999 0.7715
   outer loop
     vertex -0.7699 -0.3189 4.7528
     vertex -0.9799 -0.4059 4.9393
     vertex -0.8819 -0.5893 4.9393
   endloop
 endfacet
 facet normal 0.3658 0.3002 0.8810
   outer loop
     vertex -0.5893 -0.5893 4.7528
     vertex -0.4059 -0.4059 4.6142
     vertex -0.4773 -0.3189 4.6142
   endloop
 endfacet
 facet normal 0.3658 0.3002 0.8810
   outer loop
     vertex -0.4773 -0.3189 4.6142
     vertex -0.6929 -0.4630 4.7528
     vertex -0.5893 -0.5893 4.7528
   endloop
 endfacet
 facet normal 0.1850 0.2254 0.9565
   outer loop
     vertex -0.3189 -0.4773 4.6142
     vertex -0.1626 -0.2433 4.5288
     vertex -0.2069 -0.2069 4.5288
   endloop
 endfacet
 facet normal 0.1850 0.2254 0.9565
   outer loop
     vertex -0.2069 -0.2069 4.5288
     vertex -0.4059 -0.4059 4.6142
     vertex -0.3189 -0.4773 4.6142
   endloop
 endfacet
 facet normal 0.0464 0.0869 0.9951
   outer loop
     vertex -0.1626 -0.2433 4.5288
     vertex -0.1120 -0.2704 4.5288
     vertex 0.0000 -0.0000 4.5000
   endloop
 endfacet
 facet normal -0.0625 0.0761 0.9951
   outer loop
     vertex 0.1626 -0.2433 4.5288
     vertex 0.2069 -0.2069 4.5288
     vertex 0.0000 -0.0000 4.5000
   endloop
 endfacet
 facet normal -0.2254 0.1850 0.9565
   outer loop
     vertex 0.4773 -0.3189 4.6142
     vertex 0.2433 -0.1626 4.5288
     vertex 0.2069 -0.2069 4.5288
   endloop
 endfacet
 facet normal -0.2254 0.1850 0.9565
   outer loop
     vertex 0.2069 -0.2069 4.5288
     vertex 0.4059 -0.4059 4.6142
     vertex 0.4773 -0.3189 4.6142
   endloop
 endfacet
 facet normal -0.4173 0.2230 0.8810
   outer loop
     vertex 0.7699 -0.3189 4.7528
     vertex 0.5303 -0.2197 4.6142
     vertex 0.4773 -0.3189 4.6142
   endloop
 endfacet
 facet normal -0.4173 0.2230 0.8810
   outer loop
     vertex 0.4773 -0.3189 4.6142
     vertex 0.6929 -0.4630 4.7528
     vertex 0.7699 -0.3189 4.7528
   endloop
 endfacet
 facet normal -0.6088 0.1847 0.7715
   outer loop
     vertex 1.0403 -0.2069 4.9393
     vertex 0.8173 -0.1626 4.7528
     vertex 0.7699 -0.3189 4.7528
   endloop
 endfacet
 facet normal -0.6088 0.1847 0.7715
   outer loop
     vertex 0.7699 -0.3189 4.7528
     vertex 0.9799 -0.4059 4.9393
     vertex 1.0403 -0.2069 4.9393
   endloop
 endfacet
 facet normal -0.7708 0.0759 0.6326
   outer loop
     vertex 1.2472 0.0000 5.1666
     vertex 1.0607 0.0000 4.9393
     vertex 1.0403 -0.2069 4.9393
   endloop
 endfacet
 facet normal -0.7708 0.0759 0.6326
   outer loop
     vertex 1.0403 -0.2069 4.9393
     vertex 1.2232 -0.2433 5.1666
     vertex 1.2472 0.0000 5.1666
   endloop
 endfacet
 facet normal -0.8786 -0.0865 0.4696
   outer loop
     vertex 1.3592 0.2704 5.4260
     vertex 1.2232 0.2433 5.1666
     vertex 1.2472 0.0000 5.1666
   endloop
 endfacet
 facet normal -0.8786 -0.0865 0.4696
   outer loop
     vertex 1.2472 0.0000 5.1666
     vertex 1.3858 0.0000 5.4260
     vertex 1.3592 0.2704 5.4260
   endloop
 endfacet
 facet normal -0.9161 -0.2779 0.2890
   outer loop
     vertex 1.3592 0.5630 5.7074
     vertex 1.2803 0.5303 5.4260
     vertex 1.3592 0.2704 5.4260
   endloop
 endfacet
 facet normal -0.9161 -0.2779 0.2890
   outer loop
     vertex 1.3592 0.2704 5.4260
     vertex 1.4429 0.2870 5.7074
     vertex 1.3592 0.5630 5.7074
   endloop
 endfacet
 facet normal -0.8777 -0.4691 0.0975
   outer loop
     vertex 1.2472 0.8334 6.0000
     vertex 1.2232 0.8173 5.7074
     vertex 1.3592 0.5630 5.7074
   endloop
 endfacet
 facet normal -0.8777 -0.4691 0.0975
   outer loop
     vertex 1.3592 0.5630 5.7074
     vertex 1.3858 0.5740 6.0000
     vertex 1.2472 0.8334 6.0000
   endloop
 endfacet
 facet normal 0.8777 -0.4691 0.0976
   outer loop
     vertex -1.3858 0.5740 6.0000
     vertex -1.3592 0.5630 5.7074
     vertex -1.2232 0.8173 5.7074
   endloop
 endfacet
 facet normal 0.8777 -0.4691 0.0975
   outer loop
     vertex -1.2232 0.8173 5.7074
     vertex -1.2472 0.8334 6.0000
     vertex -1.3858 0.5740 6.0000
   endloop
 endfacet
 facet normal 0.9161 -0.2779 0.2890
   outer loop
     vertex -1.4429 0.2870 5.7074
     vertex -1.3592 0.2704 5.4260
     vertex -1.2803 0.5303 5.4260
   endloop
 endfacet
 facet normal 0.9161 -0.2779 0.2890
   outer loop
     vertex -1.2803 0.5303 5.4260
     vertex -1.3592 0.5630 5.7074
     vertex -1.4429 0.2870 5.7074
   endloop
 endfacet
 facet normal 0.8786 -0.0865 0.4696
   outer loop
     vertex -1.3858 -0.0000 5.4260
     vertex -1.2472 -0.0000 5.1666
     vertex -1.2232 0.2433 5.1666
   endloop
 endfacet
 facet normal 0.8786 -0.0865 0.4696
   outer loop
     vertex -1.2232 0.2433 5.1666
     vertex -1.3592 0.2704 5.4260
     vertex -1.3858 -0.0000 5.4260
   endloop
 endfacet
 facet normal 0.7708 0.0759 0.6326
   outer loop
     vertex -1.2232 -0.2433 5.1666
     vertex -1.0403 -0.2069 4.9393
     vertex -1.0607 -0.0000 4.9393
   endloop
 endfacet
 facet normal 0.7708 0.0759 0.6326
   outer loop
     vertex -1.0607 -0.0000 4.9393
     vertex -1.2472 -0.0000 5.1666
     vertex -1.2232 -0.2433 5.1666
   endloop
 endfacet
 facet normal 0.6088 0.1847 0.7715
   outer loop
     vertex -0.9799 -0.4059 4.9393
     vertex -0.7699 -0.3189 4.7528
     vertex -0.8173 -0.1626 4.7528
   endloop
 endfacet
 facet normal 0.6088 0.1847 0.7715
   outer loop
     vertex -0.8173 -0.1626 4.7528
     vertex -1.0403 -0.2069 4.9393
     vertex -0.9799 -0.4059 4.9393
   endloop
 endfacet
 facet normal 0.4173 0.2230 0.8810
   outer loop
     vertex -0.6929 -0.4630 4.7528
     vertex -0.4773 -0.3189 4.6142
     vertex -0.5303 -0.2197 4.6142
   endloop
 endfacet
 facet normal 0.4173 0.2230 0.8810
   outer loop
     vertex -0.5303 -0.2197 4.6142
     vertex -0.7699 -0.3189 4.7528
     vertex -0.6929 -0.4630 4.7528
   endloop
 endfacet
 facet normal 0.2254 0.1850 0.9565
   outer loop
     vertex -0.4059 -0.4059 4.6142
     vertex -0.2069 -0.2069 4.5288
     vertex -0.2433 -0.1626 4.5288
   endloop
 endfacet
 facet normal 0.2254 0.1850 0.9565
   outer loop
     vertex -0.2433 -0.1626 4.5288
     vertex -0.4773 -0.3189 4.6142
     vertex -0.4059 -0.4059 4.6142
   endloop
 endfacet
 facet normal 0.0625 0.0761 0.9951
   outer loop
     vertex -0.2069 -0.2069 4.5288
     vertex -0.1626 -0.2433 4.5288
     vertex 0.0000 -0.0000 4.5000
   endloop
 endfacet
 facet normal -0.0761 0.0625 0.9951
   outer loop
     vertex 0.2069 -0.2069 4.5288
     vertex 0.2433 -0.1626 4.5288
     vertex 0.0000 -0.0000 4.5000
   endloop
 endfacet
 facet normal -0.2571 0.1374 0.9565
   outer loop
     vertex 0.5303 -0.2197 4.6142
     vertex 0.2704 -0.1120 4.5288
     vertex 0.2433 -0.1626 4.5288
   endloop
 endfacet
 facet normal -0.2571 0.1374 0.9565
   outer loop
     vertex 0.2433 -0.1626 4.5288
     vertex 0.4773 -0.3189 4.6142
     vertex 0.5303 -0.2197 4.6142
   endloop
 endfacet
 facet normal -0.4528 0.1374 0.8810
   outer loop
     vertex 0.8173 -0.1626 4.7528
     vertex 0.5630 -0.1120 4.6142
     vertex 0.5303 -0.2197 4.6142
   endloop
 endfacet
 facet normal -0.4528 0.1374 0.8810
   outer loop
     vertex 0.5303 -0.2197 4.6142
     vertex 0.7699 -0.3189 4.7528
     vertex 0.8173 -0.1626 4.7528
   endloop
 endfacet
 facet normal -0.6332 0.0624 0.7715
   outer loop
     vertex 1.0607 0.0000 4.9393
     vertex 0.8334 0.0000 4.7528
     vertex 0.8173 -0.1626 4.7528
   endloop
 endfacet
 facet normal -0.6332 0.0624 0.7715
   outer loop
     vertex 0.8173 -0.1626 4.7528
     vertex 1.0403 -0.2069 4.9393
     vertex 1.0607 0.0000 4.9393
   endloop
 endfacet
 facet normal -0.7708 -0.0759 0.6326
   outer loop
     vertex 1.2232 0.2433 5.1666
     vertex 1.0403 0.2069 4.9393
     vertex 1.0607 0.0000 4.9393
   endloop
 endfacet
 facet normal -0.7708 -0.0759 0.6326
   outer loop
     vertex 1.0607 0.0000 4.9393
     vertex 1.2472 0.0000 5.1666
     vertex 1.2232 0.2433 5.1666
   endloop
 endfacet
 facet normal -0.8448 -0.2563 0.4696
   outer loop
     vertex 1.2803 0.5303 5.4260
     vertex 1.1523 0.4773 5.1666
     vertex 1.2232 0.2433 5.1666
   endloop
 endfacet
 facet normal -0.8448 -0.2563 0.4696
   outer loop
     vertex 1.2232 0.2433 5.1666
     vertex 1.3592 0.2704 5.4260
     vertex 1.2803 0.5303 5.4260
   endloop
 endfacet
 facet normal -0.8443 -0.4513 0.2890
   outer loop
     vertex 1.2232 0.8173 5.7074
     vertex 1.1523 0.7699 5.4260
     vertex 1.2803 0.5303 5.4260
   endloop
 endfacet
 facet normal -0.8443 -0.4513 0.2890
   outer loop
     vertex 1.2803 0.5303 5.4260
     vertex 1.3592 0.5630 5.7074
     vertex 1.2232 0.8173 5.7074
   endloop
 endfacet
 facet normal -0.7693 -0.6314 0.0976
   outer loop
     vertex 1.0607 1.0607 6.0000
     vertex 1.0403 1.0403 5.7074
     vertex 1.2232 0.8173 5.7074
   endloop
 endfacet
 facet normal -0.7693 -0.6314 0.0975
   outer loop
     vertex 1.2232 0.8173 5.7074
     vertex 1.2472 0.8334 6.0000
     vertex 1.0607 1.0607 6.0000
   endloop
 endfacet
 facet normal 0.7693 -0.6314 0.0975
   outer loop
     vertex -1.2472 0.8334 6.0000
     vertex -1.2232 0.8173 5.7074
     vertex -1.0403 1.0403 5.7074
   endloop
 endfacet
 facet normal 0.7693 -0.6314 0.0976
   outer loop
     vertex -1.0403 1.0403 5.7074
     vertex -1.0607 1.0607 6.0000
     vertex -1.2472 0.8334 6.0000
   endloop
 endfacet
 facet normal 0.8443 -0.4513 0.2890
   outer loop
     vertex -1.3592 0.5630 5.7074
     vertex -1.2803 0.5303 5.4260
     vertex -1.1523 0.7699 5.4260
   endloop
 endfacet
 facet normal 0.8443 -0.4513 0.2890
   outer loop
     vertex -1.1523 0.7699 5.4260
     vertex -1.2232 0.8173 5.7074
     vertex -1.3592 0.5630 5.7074
   endloop
 endfacet
 facet normal 0.8448 -0.2563 0.4696
   outer loop
     vertex -1.3592 0.2704 5.4260
     vertex -1.2232 0.2433 5.1666
     vertex -1.1523 0.4773 5.1666
   endloop
 endfacet
 facet normal 0.8448 -0.2563 0.4696
   outer loop
     vertex -1.1523 0.4773 5.1666
     vertex -1.2803 0.5303 5.4260
     vertex -1.3592 0.2704 5.4260
   endloop
 endfacet
 facet normal 0.7708 -0.0759 0.6326
   outer loop
     vertex -1.2472 -0.0000 5.1666
     vertex -1.0607 -0.0000 4.9393
     vertex -1.0403 0.2069 4.9393
   endloop
 endfacet
 facet normal 0.7708 -0.0759 0.6326
   outer loop
     vertex -1.0403 0.2069 4.9393
     vertex -1.2232 0.2433 5.1666
     vertex -1.2472 -0.0000 5.1666
   endloop
 endfacet
 facet normal 0.6332 0.0624 0.7715
   outer loop
     vertex -1.0403 -0.2069 4.9393
     vertex -0.8173 -0.1626 4.7528
     vertex -0.8334 -0.0000 4.7528
   endloop
 endfacet
 facet normal 0.6332 0.0624 0.7715
   outer loop
     vertex -0.8334 -0.0000 4.7528
     vertex -1.0607 -0.0000 4.9393
     vertex -1.0403 -0.2069 4.9393
   endloop
 endfacet
 facet normal 0.4528 0.1374 0.8810
   outer loop
     vertex -0.7699 -0.3189 4.7528
     vertex -0.5303 -0.2197 4.6142
     vertex -0.5630 -0.1120 4.6142
   endloop
 endfacet
 facet normal 0.4528 0.1374 0.8810
   outer loop
     vertex -0.5630 -0.1120 4.6142
     vertex -0.8173 -0.1626 4.7528
     vertex -0.7699 -0.3189 4.7528
   endloop
 endfacet
 facet normal 0.2571 0.1374 0.9565
   outer loop
     vertex -0.4773 -0.3189 4.6142
     vertex -0.2433 -0.1626 4.5288
     vertex -0.2704 -0.1120 4.5288
   endloop
 endfacet
 facet normal 0.2571 0.1374 0.9565
   outer loop
     vertex -0.2704 -0.1120 4.5288
     vertex -0.5303 -0.2197 4.6142
     vertex -0.4773 -0.3189 4.6142
   endloop
 endfacet
 facet normal 0.0761 0.0625 0.9951
   outer loop
     vertex -0.2433 -0.1626 4.5288
     vertex -0.2069 -0.2069 4.5288
     vertex 0.0000 -0.0000 4.5000
   endloop
 endfacet
 facet normal -0.0869 0.0464 0.9951
   outer loop
     vertex 0.2433 -0.1626 4.5288
     vertex 0.2704 -0.1120 4.5288
     vertex 0.0000 -0.0000 4.5000
   endloop
 endfacet
 facet normal -0.2790 0.0846 0.9565
   outer loop
     vertex 0.5630 -0.1120 4.6142
     vertex 0.2870 -0.0571 4.5288
     vertex 0.2704 -0.1120 4.5288
   endloop
 endfacet
 facet normal -0.2790 0.0846 0.9565
   outer loop
     vertex 0.2704 -0.1120 4.5288
     vertex 0.5303 -0.2197 4.6142
     vertex 0.5630 -0.1120 4.6142
   endloop
 endfacet
 facet normal -0.4709 0.0464 0.8810
   outer loop
     vertex 0.8334 0.0000 4.7528
     vertex 0.5740 0.0000 4.6142
     vertex 0.5630 -0.1120 4.6142
   endloop
 endfacet
 facet normal -0.4709 0.0464 0.8810
   outer loop
     vertex 0.5630 -0.1120 4.6142
     vertex 0.8173 -0.1626 4.7528
     vertex 0.8334 0.0000 4.7528
   endloop
 endfacet
 facet normal -0.6332 -0.0624 0.7715
   outer loop
     vertex 1.0403 0.2069 4.9393
     vertex 0.8173 0.1626 4.7528
     vertex 0.8334 0.0000 4.7528
   endloop
 endfacet
 facet normal -0.6332 -0.0624 0.7715
   outer loop
     vertex 0.8334 0.0000 4.7528
     vertex 1.0607 0.0000 4.9393
     vertex 1.0403 0.2069 4.9393
   endloop
 endfacet
 facet normal -0.7412 -0.2248 0.6326
   outer loop
     vertex 1.1523 0.4773 5.1666
     vertex 0.9799 0.4059 4.9393
     vertex 1.0403 0.2069 4.9393
   endloop
 endfacet
 facet normal -0.7412 -0.2248 0.6326
   outer loop
     vertex 1.0403 0.2069 4.9393
     vertex 1.2232 0.2433 5.1666
     vertex 1.1523 0.4773 5.1666
   endloop
 endfacet
 facet normal -0.7786 -0.4162 0.4696
   outer loop
     vertex 1.1523 0.7699 5.4260
     vertex 1.0370 0.6929 5.1666
     vertex 1.1523 0.4773 5.1666
   endloop
 endfacet
 facet normal -0.7786 -0.4162 0.4696
   outer loop
     vertex 1.1523 0.4773 5.1666
     vertex 1.2803 0.5303 5.4260
     vertex 1.1523 0.7699 5.4260
   endloop
 endfacet
 facet normal -0.7400 -0.6073 0.2890
   outer loop
     vertex 1.0403 1.0403 5.7074
     vertex 0.9799 0.9799 5.4260
     vertex 1.1523 0.7699 5.4260
   endloop
 endfacet
 facet normal -0.7400 -0.6073 0.2890
   outer loop
     vertex 1.1523 0.7699 5.4260
     vertex 1.2232 0.8173 5.7074
     vertex 1.0403 1.0403 5.7074
   endloop
 endfacet
 facet normal -0.6314 -0.7693 0.0976
   outer loop
     vertex 0.8334 1.2472 6.0000
     vertex 0.8173 1.2232 5.7074
     vertex 1.0403 1.0403 5.7074
   endloop
 endfacet
 facet normal -0.6314 -0.7693 0.0976
   outer loop
     vertex 1.0403 1.0403 5.7074
     vertex 1.0607 1.0607 6.0000
     vertex 0.8334 1.2472 6.0000
   endloop
 endfacet
 facet normal 0.6314 -0.7693 0.0976
   outer loop
     vertex -1.0607 1.0607 6.0000
     vertex -1.0403 1.0403 5.7074
     vertex -0.8173 1.2232 5.7074
   endloop
 endfacet
 facet normal 0.6314 -0.7693 0.0975
   outer loop
     vertex -0.8173 1.2232 5.7074
     vertex -0.8334 1.2472 6.0000
     vertex -1.0607 1.0607 6.0000
   endloop
 endfacet
 facet normal 0.7400 -0.6073 0.2890
   outer loop
     vertex -1.2232 0.8173 5.7074
     vertex -1.1523 0.7699 5.4260
     vertex -0.9799 0.9799 5.4260
   endloop
 endfacet
 facet normal 0.7400 -0.6073 0.2890
   outer loop
     vertex -0.9799 0.9799 5.4260
     vertex -1.0403 1.0403 5.7074
     vertex -1.2232 0.8173 5.7074
   endloop
 endfacet
 facet normal 0.7786 -0.4162 0.4696
   outer loop
     vertex -1.2803 0.5303 5.4260
     vertex -1.1523 0.4773 5.1666
     vertex -1.0370 0.6929 5.1666
   endloop
 endfacet
 facet normal 0.7786 -0.4162 0.4696
   outer loop
     vertex -1.0370 0.6929 5.1666
     vertex -1.1523 0.7699 5.4260
     vertex -1.2803 0.5303 5.4260
   endloop
 endfacet
 facet normal 0.7412 -0.2248 0.6326
   outer loop
     vertex -1.2232 0.2433 5.1666
     vertex -1.0403 0.2069 4.9393
     vertex -0.9799 0.4059 4.9393
   endloop
 endfacet
 facet normal 0.7412 -0.2248 0.6326
   outer loop
     vertex -0.9799 0.4059 4.9393
     vertex -1.1523 0.4773 5.1666
     vertex -1.2232 0.2433 5.1666
   endloop
 endfacet
 facet normal 0.6332 -0.0624 0.7715
   outer loop
     vertex -1.0607 -0.0000 4.9393
     vertex -0.8334 -0.0000 4.7528
     vertex -0.8173 0.1626 4.7528
   endloop
 endfacet
 facet normal 0.6332 -0.0624 0.7715
   outer loop
     vertex -0.8173 0.1626 4.7528
     vertex -1.0403 0.2069 4.9393
     vertex -1.0607 -0.0000 4.9393
   endloop
 endfacet
 facet normal 0.4709 0.0464 0.8810
   outer loop
     vertex -0.8173 -0.1626 4.7528
     vertex -0.5630 -0.1120 4.6142
     vertex -0.5740 -0.0000 4.6142
   endloop
 endfacet
 facet normal 0.4709 0.0464 0.8810
   outer loop
     vertex -0.5740 -0.0000 4.6142
     vertex -0.8334 -0.0000 4.7528
     vertex -0.8173 -0.1626 4.7528
   endloop
 endfacet
 facet normal 0.2790 0.0846 0.9565
   outer loop
     vertex -0.5303 -0.2197 4.6142
     vertex -0.2704 -0.1120 4.5288
     vertex -0.2870 -0.0571 4.5288
   endloop
 endfacet
 facet normal 0.2790 0.0846 0.9565
   outer loop
     vertex -0.2870 -0.0571 4.5288
     vertex -0.5630 -0.1120 4.6142
     vertex -0.5303 -0.2197 4.6142
   endloop
 endfacet
 facet normal 0.0869 0.0464 0.9951
   outer loop
     vertex -0.2704 -0.1120 4.5288
     vertex -0.2433 -0.1626 4.5288
     vertex 0.0000 -0.0000 4.5000
   endloop
 endfacet
 facet normal -0.0942 0.0286 0.9951
   outer loop
     vertex 0.2704 -0.1120 4.5288
     vertex 0.2870 -0.0571 4.5288
     vertex 0.0000 -0.0000 4.5000
   endloop
 endfacet
 facet normal -0.2902 0.0286 0.9565
   outer loop
     vertex 0.5740 0.0000 4.6142
     vertex 0.2926 0.0000 4.5288
     vertex 0.2870 -0.0571 4.5288
   endloop
 endfacet
 facet normal -0.2902 0.0286 0.9565
   outer loop
     vertex 0.2870 -0.0571 4.5288
     vertex 0.5630 -0.1120 4.6142
     vertex 0.5740 0.0000 4.6142
   endloop
 endfacet
 facet normal -0.4709 -0.0464 0.8810
   outer loop
     vertex 0.8173 0.1626 4.7528
     vertex 0.5630 0.1120 4.6142
     vertex 0.5740 0.0000 4.6142
   endloop
 endfacet
 facet normal -0.4709 -0.0464 0.8810
   outer loop
     vertex 0.5740 0.0000 4.6142
     vertex 0.8334 0.0000 4.7528
     vertex 0.8173 0.1626 4.7528
   endloop
 endfacet
 facet normal -0.6088 -0.1847 0.7715
   outer loop
     vertex 0.9799 0.4059 4.9393
     vertex 0.7699 0.3189 4.7528
     vertex 0.8173 0.1626 4.7528
   endloop
 endfacet
 facet normal -0.6088 -0.1847 0.7715
   outer loop
     vertex 0.8173 0.1626 4.7528
     vertex 1.0403 0.2069 4.9393
     vertex 0.9799 0.4059 4.9393
   endloop
 endfacet
 facet normal -0.6831 -0.3651 0.6326
   outer loop
     vertex 1.0370 0.6929 5.1666
     vertex 0.8819 0.5893 4.9393
     vertex 0.9799 0.4059 4.9393
   endloop
 endfacet
 facet normal -0.6831 -0.3651 0.6326
   outer loop
     vertex 0.9799 0.4059 4.9393
     vertex 1.1523 0.4773 5.1666
     vertex 1.0370 0.6929 5.1666
   endloop
 endfacet
 facet normal -0.6825 -0.5601 0.4696
   outer loop
     vertex 0.9799 0.9799 5.4260
     vertex 0.8819 0.8819 5.1666
     vertex 1.0370 0.6929 5.1666
   endloop
 endfacet
 facet normal -0.6825 -0.5601 0.4696
   outer loop
     vertex 1.0370 0.6929 5.1666
     vertex 1.1523 0.7699 5.4260
     vertex 0.9799 0.9799 5.4260
   endloop
 endfacet
 facet normal -0.6073 -0.7400 0.2890
   outer loop
     vertex 0.8173 1.2232 5.7074
     vertex 0.7699 1.1523 5.4260
     vertex 0.9799 0.9799 5.4260
   endloop
 endfacet
 facet normal -0.6073 -0.7400 0.2890
   outer loop
     vertex 0.9799 0.9799 5.4260
     vertex 1.0403 1.0403 5.7074
     vertex 0.8173 1.2232 5.7074
   endloop
 endfacet
 facet normal -0.4691 -0.8777 0.0976
   outer loop
     vertex 0.5740 1.3858 6.0000
     vertex 0.5630 1.3592 5.7074
     vertex 0.8173 1.2232 5.7074
   endloop
 endfacet
 facet normal -0.4691 -0.8777 0.0976
   outer loop
     vertex 0.8173 1.2232 5.7074
     vertex 0.8334 1.2472 6.0000
     vertex 0.5740 1.3858 6.0000
   endloop
 endfacet
 facet normal 0.4691 -0.8777 0.0975
   outer loop
     vertex -0.8334 1.2472 6.0000
     vertex -0.8173 1.2232 5.7074
     vertex -0.5630 1.3592 5.7074
   endloop
 endfacet
 facet normal 0.4691 -0.8777 0.0975
   outer loop
     vertex -0.5630 1.3592 5.7074
     vertex -0.5740 1.3858 6.0000
     vertex -0.8334 1.2472 6.0000
   endloop
 endfacet
 facet normal 0.6073 -0.7400 0.2890
   outer loop
     vertex -1.0403 1.0403 5.7074
     vertex -0.9799 0.9799 5.4260
     vertex -0.7699 1.1523 5.4260
   endloop
 endfacet
 facet normal 0.6073 -0.7400 0.2890
   outer loop
     vertex -0.7699 1.1523 5.4260
     vertex -0.8173 1.2232 5.7074
     vertex -1.0403 1.0403 5.7074
   endloop
 endfacet
 facet normal 0.6825 -0.5601 0.4696
   outer loop
     vertex -1.1523 0.7699 5.4260
     vertex -1.0370 0.6929 5.1666
     vertex -0.8819 0.8819 5.1666
   endloop
 endfacet
 facet normal 0.6825 -0.5601 0.4696
   outer loop
     vertex -0.8819 0.8819 5.1666
     vertex -0.9799 0.9799 5.4260
     vertex -1.1523 0.7699 5.4260
   endloop
 endfacet
 facet normal 0.6831 -0.3651 0.6326
   outer loop
     vertex -1.1523 0.4773 5.1666
     vertex -0.9799 0.4059 4.9393
     vertex -0.8819 0.5893 4.9393
   endloop
 endfacet
 facet normal 0.6831 -0.3651 0.6326
   outer loop
     vertex -0.8819 0.5893 4.9393
     vertex -1.0370 0.6929 5.1666
     vertex -1.1523 0.4773 5.1666
   endloop
 endfacet
 facet normal 0.6088 -0.1847 0.7715
   outer loop
     vertex -1.0403 0.2069 4.9393
     vertex -0.8173 0.1626 4.7528
     vertex -0.7699 0.3189 4.7528
   endloop
 endfacet
 facet normal 0.6088 -0.1847 0.7715
   outer loop
     vertex -0.7699 0.3189 4.7528
     vertex -0.9799 0.4059 4.9393
     vertex -1.0403 0.2069 4.9393
   endloop
 endfacet
 facet normal 0.4709 -0.0464 0.8810
   outer loop
     vertex -0.8334 -0.0000 4.7528
     vertex -0.5740 -0.0000 4.6142
     vertex -0.5630 0.1120 4.6142
   endloop
 endfacet
 facet normal 0.4709 -0.0464 0.8810
   outer loop
     vertex -0.5630 0.1120 4.6142
     vertex -0.8173 0.1626 4.7528
     vertex -0.8334 -0.0000 4.7528
   endloop
 endfacet
 facet normal 0.2902 0.0286 0.9565
   outer loop
     vertex -0.5630 -0.1120 4.6142
     vertex -0.2870 -0.0571 4.5288
     vertex -0.2926 -0.0000 4.5288
   endloop
 endfacet
 facet normal 0.2902 0.0286 0.9565
   outer loop
     vertex -0.2926 -0.0000 4.5288
     vertex -0.5740 -0.0000 4.6142
     vertex -0.5630 -0.1120 4.6142
   endloop
 endfacet
 facet normal 0.0942 0.0286 0.9951
   outer loop
     vertex -0.2870 -0.0571 4.5288
     vertex -0.2704 -0.1120 4.5288
     vertex 0.0000 -0.0000 4.5000
   endloop
 endfacet
 facet normal -0.0980 0.0097 0.9951
   outer loop
     vertex 0.2870 -0.0571 4.5288
     vertex 0.2926 0.0000 4.5288
     vertex 0.0000 -0.0000 4.5000
   endloop
 endfacet
 facet normal -0.2902 -0.0286 0.9565
   outer loop
     vertex 0.5630 0.1120 4.6142
     vertex 0.2870 0.0571 4.5288
     vertex 0.2926 0.0000 4.5288
   endloop
 endfacet
 facet normal -0.2902 -0.0286 0.9565
   outer loop
     vertex 0.2926 0.0000 4.5288
     vertex 0.5740 0.0000 4.6142
     vertex 0.5630 0.1120 4.6142
   endloop
 endfacet
 facet normal -0.4528 -0.1374 0.8810
   outer loop
     vertex 0.7699 0.3189 4.7528
     vertex 0.5303 0.2197 4.6142
     vertex 0.5630 0.1120 4.6142
   endloop
 endfacet
 facet normal -0.4528 -0.1374 0.8810
   outer loop
     vertex 0.5630 0.1120 4.6142
     vertex 0.8173 0.1626 4.7528
     vertex 0.7699 0.3189 4.7528
   endloop
 endfacet
 facet normal -0.5611 -0.2999 0.7715
   outer loop
     vertex 0.8819 0.5893 4.9393
     vertex 0.6929 0.4630 4.7528
     vertex 0.7699 0.3189 4.7528
   endloop
 endfacet
 facet normal -0.5611 -0.2999 0.7715
   outer loop
     vertex 0.7699 0.3189 4.7528
     vertex 0.9799 0.4059 4.9393
     vertex 0.8819 0.5893 4.9393
   endloop
 endfacet
 facet normal -0.5987 -0.4913 0.6326
   outer loop
     vertex 0.8819 0.8819 5.1666
     vertex 0.7500 0.7500 4.9393
     vertex 0.8819 0.5893 4.9393
   endloop
 endfacet
 facet normal -0.5987 -0.4913 0.6326
   outer loop
     vertex 0.8819 0.5893 4.9393
     vertex 1.0370 0.6929 5.1666
     vertex 0.8819 0.8819 5.1666
   endloop
 endfacet
 facet normal -0.5601 -0.6825 0.4696
   outer loop
     vertex 0.7699 1.1523 5.4260
     vertex 0.6929 1.0370 5.1666
     vertex 0.8819 0.8819 5.1666
   endloop
 endfacet
 facet normal -0.5601 -0.6825 0.4696
   outer loop
     vertex 0.8819 0.8819 5.1666
     vertex 0.9799 0.9799 5.4260
     vertex 0.7699 1.1523 5.4260
   endloop
 endfacet
 facet normal -0.4513 -0.8443 0.2890
   outer loop
     vertex 0.5630 1.3592 5.7074
     vertex 0.5303 1.2803 5.4260
     vertex 0.7699 1.1523 5.4260
   endloop
 endfacet
 facet normal -0.4513 -0.8443 0.2890
   outer loop
     vertex 0.7699 1.1523 5.4260
     vertex 0.8173 1.2232 5.7074
     vertex 0.5630 1.3592 5.7074
   endloop
 endfacet
 facet normal -0.2889 -0.9524 0.0975
   outer loop
     vertex 0.2926 1.4712 6.0000
     vertex 0.2870 1.4429 5.7074
     vertex 0.5630 1.3592 5.7074
   endloop
 endfacet
 facet normal -0.2889 -0.9524 0.0976
   outer loop
     vertex 0.5630 1.3592 5.7074
     vertex 0.5740 1.3858 6.0000
     vertex 0.2926 1.4712 6.0000
   endloop
 endfacet
 facet normal 0.2889 -0.9524 0.0975
   outer loop
     vertex -0.5740 1.3858 6.0000
     vertex -0.5630 1.3592 5.7074
     vertex -0.2870 1.4429 5.7074
   endloop
 endfacet
 facet normal 0.2889 -0.9524 0.0975
   outer loop
     vertex -0.2870 1.4429 5.7074
     vertex -0.2926 1.4712 6.0000
     vertex -0.5740 1.3858 6.0000
   endloop
 endfacet
 facet normal 0.4513 -0.8443 0.2890
   outer loop
     vertex -0.8173 1.2232 5.7074
     vertex -0.7699 1.1523 5.4260
     vertex -0.5303 1.2803 5.4260
   endloop
 endfacet
 facet normal 0.4513 -0.8443 0.2890
   outer loop
     vertex -0.5303 1.2803 5.4260
     vertex -0.5630 1.3592 5.7074
     vertex -0.8173 1.2232 5.7074
   endloop
 endfacet
 facet normal 0.5601 -0.6825 0.4696
   outer loop
     vertex -0.9799 0.9799 5.4260
     vertex -0.8819 0.8819 5.1666
     vertex -0.6929 1.0370 5.1666
   endloop
 endfacet
 facet normal 0.5601 -0.6825 0.4696
   outer loop
     vertex -0.6929 1.0370 5.1666
     vertex -0.7699 1.1523 5.4260
     vertex -0.9799 0.9799 5.4260
   endloop
 endfacet
 facet normal 0.5987 -0.4913 0.6326
   outer loop
     vertex -1.0370 0.6929 5.1666
     vertex -0.8819 0.5893 4.9393
     vertex -0.7500 0.7500 4.9393
   endloop
 endfacet
 facet normal 0.5987 -0.4913 0.6326
   outer loop
     vertex -0.7500 0.7500 4.9393
     vertex -0.8819 0.8819 5.1666
     vertex -1.0370 0.6929 5.1666
   endloop
 endfacet
 facet normal 0.5611 -0.2999 0.7715
   outer loop
     vertex -0.9799 0.4059 4.9393
     vertex -0.7699 0.3189 4.7528
     vertex -0.6929 0.4630 4.7528
   endloop
 endfacet
 facet normal 0.5611 -0.2999 0.7715
   outer loop
     vertex -0.6929 0.4630 4.7528
     vertex -0.8819 0.5893 4.9393
     vertex -0.9799 0.4059 4.9393
   endloop
 endfacet
 facet normal 0.4528 -0.1374 0.8810
   outer loop
     vertex -0.8173 0.1626 4.7528
     vertex -0.5630 0.1120 4.6142
     vertex -0.5303 0.2197 4.6142
   endloop
 endfacet
 facet normal 0.4528 -0.1374 0.8810
   outer loop
     vertex -0.5303 0.2197 4.6142
     vertex -0.7699 0.3189 4.7528
     vertex -0.8173 0.1626 4.7528
   endloop
 endfacet
 facet normal 0.2902 -0.0286 0.9565
   outer loop
     vertex -0.5740 -0.0000 4.6142
     vertex -0.2926 -0.0000 4.5288
     vertex -0.2870 0.0571 4.5288
   endloop
 endfacet
 facet normal 0.2902 -0.0286 0.9565
   outer loop
     vertex -0.2870 0.0571 4.5288
     vertex -0.5630 0.1120 4.6142
     vertex -0.5740 -0.0000 4.6142
   endloop
 endfacet
 facet normal 0.0980 0.0097 0.9951
   outer loop
     vertex -0.2926 -0.0000 4.5288
     vertex -0.2870 -0.0571 4.5288
     vertex 0.0000 -0.0000 4.5000
   endloop
 endfacet
 facet normal -0.0980 -0.0097 0.9951
   outer loop
     vertex 0.2926 0.0000 4.5288
     vertex 0.2870 0.0571 4.5288
     vertex 0.0000 -0.0000 4.5000
   endloop
 endfacet
 facet normal -0.2790 -0.0846 0.9565
   outer loop
     vertex 0.5303 0.2197 4.6142
     vertex 0.2704 0.1120 4.5288
     vertex 0.2870 0.0571 4.5288
   endloop
 endfacet
 facet normal -0.2790 -0.0846 0.9565
   outer loop
     vertex 0.2870 0.0571 4.5288
     vertex 0.5630 0.1120 4.6142
     vertex 0.5303 0.2197 4.6142
   endloop
 endfacet
 facet normal -0.4173 -0.2230 0.8810
   outer loop
     vertex 0.6929 0.4630 4.7528
     vertex 0.4773 0.3189 4.6142
     vertex 0.5303 0.2197 4.6142
   endloop
 endfacet
 facet normal -0.4173 -0.2230 0.8810
   outer loop
     vertex 0.5303 0.2197 4.6142
     vertex 0.7699 0.3189 4.7528
     vertex 0.6929 0.4630 4.7528
   endloop
 endfacet
 facet normal -0.4918 -0.4036 0.7715
   outer loop
     vertex 0.7500 0.7500 4.9393
     vertex 0.5893 0.5893 4.7528
     vertex 0.6929 0.4630 4.7528
   endloop
 endfacet
 facet normal -0.4918 -0.4036 0.7715
   outer loop
     vertex 0.6929 0.4630 4.7528
     vertex 0.8819 0.5893 4.9393
     vertex 0.7500 0.7500 4.9393
   endloop
 endfacet
 facet normal -0.4913 -0.5987 0.6326
   outer loop
     vertex 0.6929 1.0370 5.1666
     vertex 0.5893 0.8819 4.9393
     vertex 0.7500 0.7500 4.9393
   endloop
 endfacet
 facet normal -0.4913 -0.5987 0.6326
   outer loop
     vertex 0.7500 0.7500 4.9393
     vertex 0.8819 0.8819 5.1666
     vertex 0.6929 1.0370 5.1666
   endloop
 endfacet
 facet normal -0.4162 -0.7786 0.4696
   outer loop
     vertex 0.5303 1.2803 5.4260
     vertex 0.4773 1.1523 5.1666
     vertex 0.6929 1.0370 5.1666
   endloop
 endfacet
 facet normal -0.4162 -0.7786 0.4696
   outer loop
     vertex 0.6929 1.0370 5.1666
     vertex 0.7699 1.1523 5.4260
     vertex 0.5303 1.2803 5.4260
   endloop
 endfacet
 facet normal -0.2779 -0.9161 0.2890
   outer loop
     vertex 0.2870 1.4429 5.7074
     vertex 0.2704 1.3592 5.4260
     vertex 0.5303 1.2803 5.4260
   endloop
 endfacet
 facet normal -0.2779 -0.9161 0.2890
   outer loop
     vertex 0.5303 1.2803 5.4260
     vertex 0.5630 1.3592 5.7074
     vertex 0.2870 1.4429 5.7074
   endloop
 endfacet
 facet normal -0.0975 -0.9904 0.0976
   outer loop
     vertex -0.0000 1.5000 6.0000
     vertex -0.0000 1.4712 5.7074
     vertex 0.2870 1.4429 5.7074
   endloop
 endfacet
 facet normal -0.0975 -0.9904 0.0975
   outer loop
     vertex 0.2870 1.4429 5.7074
     vertex 0.2926 1.4712 6.0000
     vertex -0.0000 1.5000 6.0000
   endloop
 endfacet
 facet normal 0.0975 -0.9904 0.0975
   outer loop
     vertex -0.2926 1.4712 6.0000
     vertex -0.2870 1.4429 5.7074
     vertex -0.0000 1.4712 5.7074
   endloop
 endfacet
 facet normal 0.0975 -0.9904 0.0976
   outer loop
     vertex -0.0000 1.4712 5.7074
     vertex -0.0000 1.5000 6.0000
     vertex -0.2926 1.4712 6.0000
   endloop
 endfacet
 facet normal 0.2779 -0.9161 0.2890
   outer loop
     vertex -0.5630 1.3592 5.7074
     vertex -0.5303 1.2803 5.4260
     vertex -0.2704 1.3592 5.4260
   endloop
 endfacet
 facet normal 0.2779 -0.9161 0.2890
   outer loop
     vertex -0.2704 1.3592 5.4260
     vertex -0.2870 1.4429 5.7074
     vertex -0.5630 1.3592 5.7074
   endloop
 endfacet
 facet normal 0.4162 -0.7786 0.4696
   outer loop
     vertex -0.7699 1.1523 5.4260
     vertex -0.6929 1.0370 5.1666
     vertex -0.4773 1.1523 5.1666
   endloop
 endfacet
 facet normal 0.4162 -0.7786 0.4696
   outer loop
     vertex -0.4773 1.1523 5.1666
     vertex -0.5303 1.2803 5.4260
     vertex -0.7699 1.1523 5.4260
   endloop
 endfacet
 facet normal 0.4913 -0.5987 0.6326
   outer loop
     vertex -0.8819 0.8819 5.1666
     vertex -0.7500 0.7500 4.9393
     vertex -0.5893 0.8819 4.9393
   endloop
 endfacet
 facet normal 0.4913 -0.5987 0.6326
   outer loop
     vertex -0.5893 0.8819 4.9393
     vertex -0.6929 1.0370 5.1666
     vertex -0.8819 0.8819 5.1666
   endloop
 endfacet
 facet normal 0.4918 -0.4036 0.7715
   outer loop
     vertex -0.8819 0.5893 4.9393
     vertex -0.6929 0.4630 4.7528
     vertex -0.5893 0.5893 4.7528
   endloop
 endfacet
 facet normal 0.4918 -0.4036 0.7715
   outer loop
     vertex -0.5893 0.5893 4.7528
     vertex -0.7500 0.7500 4.9393
     vertex -0.8819 0.5893 4.9393
   endloop
 endfacet
 facet normal 0.4173 -0.2230 0.8810
   outer loop
     vertex -0.7699 0.3189 4.7528
     vertex -0.5303 0.2197 4.6142
     vertex -0.4773 0.3189 4.6142
   endloop
 endfacet
 facet normal 0.4173 -0.2230 0.8810
   outer loop
     vertex -0.4773 0.3189 4.6142
     vertex -0.6929 0.4630 4.7528
     vertex -0.7699 0.3189 4.7528
   endloop
 endfacet
 facet normal 0.2790 -0.0846 0.9565
   outer loop
     vertex -0.5630 0.1120 4.6142
     vertex -0.2870 0.0571 4.5288
     vertex -0.2704 0.1120 4.5288
   endloop
 endfacet
 facet normal 0.2790 -0.0846 0.9565
   outer loop
     vertex -0.2704 0.1120 4.5288
     vertex -0.5303 0.2197 4.6142
     vertex -0.5630 0.1120 4.6142
   endloop
 endfacet
 facet normal 0.0980 -0.0097 0.9951
   outer loop
     vertex -0.2870 0.0571 4.5288
     vertex -0.2926 -0.0000 4.5288
     vertex 0.0000 -0.0000 4.5000
   endloop
 endfacet
 facet normal -0.0942 -0.0286 0.9951
   outer loop
     vertex 0.2870 0.0571 4.5288
     vertex 0.2704 0.1120 4.5288
     vertex 0.0000 -0.0000 4.5000
   endloop
 endfacet
 facet normal -0.2571 -0.1374 0.9565
   outer loop
     vertex 0.4773 0.3189 4.6142
     vertex 0.2433 0.1626 4.5288
     vertex 0.2704 0.1120 4.5288
   endloop
 endfacet
 facet normal -0.2571 -0.1374 0.9565
   outer loop
     vertex 0.2704 0.1120 4.5288
     vertex 0.5303 0.2197 4.6142
     vertex 0.4773 0.3189 4.6142
   endloop
 endfacet
 facet normal -0.3658 -0.3002 0.8810
   outer loop
     vertex 0.5893 0.5893 4.7528
     vertex 0.4059 0.4059 4.6142
     vertex 0.4773 0.3189 4.6142
   endloop
 endfacet
 facet normal -0.3658 -0.3002 0.8810
   outer loop
     vertex 0.4773 0.3189 4.6142
     vertex 0.6929 0.4630 4.7528
     vertex 0.5893 0.5893 4.7528
   endloop
 endfacet
 facet normal -0.4036 -0.4918 0.7715
   outer loop
     vertex 0.5893 0.8819 4.9393
     vertex 0.4630 0.6929 4.7528
     vertex 0.5893 0.5893 4.7528
   endloop
 endfacet
 facet normal -0.4036 -0.4918 0.7715
   outer loop
     vertex 0.5893 0.5893 4.7528
     vertex 0.7500 0.7500 4.9393
     vertex 0.5893 0.8819 4.9393
   endloop
 endfacet
 facet normal -0.3651 -0.6831 0.6326
   outer loop
     vertex 0.4773 1.1523 5.1666
     vertex 0.4059 0.9799 4.9393
     vertex 0.5893 0.8819 4.9393
   endloop
 endfacet
 facet normal -0.3651 -0.6831 0.6326
   outer loop
     vertex 0.5893 0.8819 4.9393
     vertex 0.6929 1.0370 5.1666
     vertex 0.4773 1.1523 5.1666
   endloop
 endfacet
 facet normal -0.2563 -0.8448 0.4696
   outer loop
     vertex 0.2704 1.3592 5.4260
     vertex 0.2433 1.2232 5.1666
     vertex 0.4773 1.1523 5.1666
   endloop
 endfacet
 facet normal -0.2563 -0.8448 0.4696
   outer loop
     vertex 0.4773 1.1523 5.1666
     vertex 0.5303 1.2803 5.4260
     vertex 0.2704 1.3592 5.4260
   endloop
 endfacet
 facet normal -0.0938 -0.9527 0.2890
   outer loop
     vertex -0.0000 1.4712 5.7074
     vertex -0.0000 1.3858 5.4260
     vertex 0.2704 1.3592 5.4260
   endloop
 endfacet
 facet normal -0.0938 -0.9527 0.2890
   outer loop
     vertex 0.2704 1.3592 5.4260
     vertex 0.2870 1.4429 5.7074
     vertex -0.0000 1.4712 5.7074
   endloop
 endfacet
 facet normal 0.0938 -0.9527 0.2890
   outer loop
     vertex -0.2870 1.4429 5.7074
     vertex -0.2704 1.3592 5.4260
     vertex -0.0000 1.3858 5.4260
   endloop
 endfacet
 facet normal 0.0938 -0.9527 0.2890
   outer loop
     vertex -0.0000 1.3858 5.4260
     vertex -0.0000 1.4712 5.7074
     vertex -0.2870 1.4429 5.7074
   endloop
 endfacet
 facet normal 0.2563 -0.8448 0.4696
   outer loop
     vertex -0.5303 1.2803 5.4260
     vertex -0.4773 1.1523 5.1666
     vertex -0.2433 1.2232 5.1666
   endloop
 endfacet
 facet normal 0.2563 -0.8448 0.4696
   outer loop
     vertex -0.2433 1.2232 5.1666
     vertex -0.2704 1.3592 5.4260
     vertex -0.5303 1.2803 5.4260
   endloop
 endfacet
 facet normal 0.3651 -0.6831 0.6326
   outer loop
     vertex -0.6929 1.0370 5.1666
     vertex -0.5893 0.8819 4.9393
     vertex -0.4059 0.9799 4.9393
   endloop
 endfacet
 facet normal 0.3651 -0.6831 0.6326
   outer loop
     vertex -0.4059 0.9799 4.9393
     vertex -0.4773 1.1523 5.1666
     vertex -0.6929 1.0370 5.1666
   endloop
 endfacet
 facet normal 0.4036 -0.4918 0.7715
   outer loop
     vertex -0.7500 0.7500 4.9393
     vertex -0.5893 0.5893 4.7528
     vertex -0.4630 0.6929 4.7528
   endloop
 endfacet
 facet normal 0.4036 -0.4918 0.7715
   outer loop
     vertex -0.4630 0.6929 4.7528
     vertex -0.5893 0.8819 4.9393
     vertex -0.7500 0.7500 4.9393
   endloop
 endfacet
 facet normal 0.3658 -0.3002 0.8810
   outer loop
     vertex -0.6929 0.4630 4.7528
     vertex -0.4773 0.3189 4.6142
     vertex -0.4059 0.4059 4.6142
   endloop
 endfacet
 facet normal 0.3658 -0.3002 0.8810
   outer loop
     vertex -0.4059 0.4059 4.6142
     vertex -0.5893 0.5893 4.7528
     vertex -0.6929 0.4630 4.7528
   endloop
 endfacet
 facet normal 0.2571 -0.1374 0.9565
   outer loop
     vertex -0.5303 0.2197 4.6142
     vertex -0.2704 0.1120 4.5288
     vertex -0.2433 0.1626 4.5288
   endloop
 endfacet
 facet normal 0.2571 -0.1374 0.9565
   outer loop
     vertex -0.2433 0.1626 4.5288
     vertex -0.4773 0.3189 4.6142
     vertex -0.5303 0.2197 4.6142
   endloop
 endfacet
 facet normal 0.0942 -0.0286 0.9951
   outer loop
     vertex -0.2704 0.1120 4.5288
     vertex -0.2870 0.0571 4.5288
     vertex 0.0000 -0.0000 4.5000
   endloop
 endfacet
 facet normal -0.0869 -0.0464 0.9951
   outer loop
     vertex 0.2704 0.1120 4.5288
     vertex 0.2433 0.1626 4.5288
     vertex 0.0000 -0.0000 4.5000
   endloop
 endfacet
 facet normal -0.2254 -0.1850 0.9565
   outer loop
     vertex 0.4059 0.4059 4.6142
     vertex 0.2069 0.2069 4.5288
     vertex 0.2433 0.1626 4.5288
   endloop
 endfacet
 facet normal -0.2254 -0.1850 0.9565
   outer loop
     vertex 0.2433 0.1626 4.5288
     vertex 0.4773 0.3189 4.6142
     vertex 0.4059 0.4059 4.6142
   endloop
 endfacet
 facet normal -0.3002 -0.3658 0.8810
   outer loop
     vertex 0.4630 0.6929 4.7528
     vertex 0.3189 0.4773 4.6142
     vertex 0.4059 0.4059 4.6142
   endloop
 endfacet
 facet normal -0.3002 -0.3658 0.8810
   outer loop
     vertex 0.4059 0.4059 4.6142
     vertex 0.5893 0.5893 4.7528
     vertex 0.4630 0.6929 4.7528
   endloop
 endfacet
 facet normal -0.2999 -0.5611 0.7715
   outer loop
     vertex 0.4059 0.9799 4.9393
     vertex 0.3189 0.7699 4.7528
     vertex 0.4630 0.6929 4.7528
   endloop
 endfacet
 facet normal -0.2999 -0.5611 0.7715
   outer loop
     vertex 0.4630 0.6929 4.7528
     vertex 0.5893 0.8819 4.9393
     vertex 0.4059 0.9799 4.9393
   endloop
 endfacet
 facet normal -0.2248 -0.7412 0.6326
   outer loop
     vertex 0.2433 1.2232 5.1666
     vertex 0.2069 1.0403 4.9393
     vertex 0.4059 0.9799 4.9393
   endloop
 endfacet
 facet normal -0.2248 -0.7412 0.6326
   outer loop
     vertex 0.4059 0.9799 4.9393
     vertex 0.4773 1.1523 5.1666
     vertex 0.2433 1.2232 5.1666
   endloop
 endfacet
 facet normal -0.0865 -0.8786 0.4696
   outer loop
     vertex -0.0000 1.3858 5.4260
     vertex -0.0000 1.2472 5.1666
     vertex 0.2433 1.2232 5.1666
   endloop
 endfacet
 facet normal -0.0865 -0.8786 0.4696
   outer loop
     vertex 0.2433 1.2232 5.1666
     vertex 0.2704 1.3592 5.4260
     vertex -0.0000 1.3858 5.4260
   endloop
 endfacet
 facet normal 0.0865 -0.8786 0.4696
   outer loop
     vertex -0.2704 1.3592 5.4260
     vertex -0.2433 1.2232 5.1666
     vertex -0.0000 1.2472 5.1666
   endloop
 endfacet
 facet normal 0.0865 -0.8786 0.4696
   outer loop
     vertex -0.0000 1.2472 5.1666
     vertex -0.0000 1.3858 5.4260
     vertex -0.2704 1.3592 5.4260
   endloop
 endfacet
 facet normal 0.2248 -0.7412 0.6326
   outer loop
     vertex -0.4773 1.1523 5.1666
     vertex -0.4059 0.9799 4.9393
     vertex -0.2069 1.0403 4.9393
   endloop
 endfacet
 facet normal 0.2248 -0.7412 0.6326
   outer loop
     vertex -0.2069 1.0403 4.9393
     vertex -0.2433 1.2232 5.1666
     vertex -0.4773 1.1523 5.1666
   endloop
 endfacet
 facet normal 0.2999 -0.5611 0.7715
   outer loop
     vertex -0.5893 0.8819 4.9393
     vertex -0.4630 0.6929 4.7528
     vertex -0.3189 0.7699 4.7528
   endloop
 endfacet
 facet normal 0.2999 -0.5611 0.7715
   outer loop
     vertex -0.3189 0.7699 4.7528
     vertex -0.4059 0.9799 4.9393
     vertex -0.5893 0.8819 4.9393
   endloop
 endfacet
 facet normal 0.3002 -0.3658 0.8810
   outer loop
     vertex -0.5893 0.5893 4.7528
     vertex -0.4059 0.4059 4.6142
     vertex -0.3189 0.4773 4.6142
   endloop
 endfacet
 facet normal 0.3002 -0.3658 0.8810
   outer loop
     vertex -0.3189 0.4773 4.6142
     vertex -0.4630 0.6929 4.7528
     vertex -0.5893 0.5893 4.7528
   endloop
 endfacet
 facet normal 0.2254 -0.1850 0.9565
   outer loop
     vertex -0.4773 0.3189 4.6142
     vertex -0.2433 0.1626 4.5288
     vertex -0.2069 0.2069 4.5288
   endloop
 endfacet
 facet normal 0.2254 -0.1850 0.9565
   outer loop
     vertex -0.2069 0.2069 4.5288
     vertex -0.4059 0.4059 4.6142
     vertex -0.4773 0.3189 4.6142
   endloop
 endfacet
 facet normal 0.0869 -0.0464 0.9951
   outer loop
     vertex -0.2433 0.1626 4.5288
     vertex -0.2704 0.1120 4.5288
     vertex 0.0000 -0.0000 4.5000
   endloop
 endfacet
 facet normal -0.0761 -0.0625 0.9951
   outer loop
     vertex 0.2433 0.1626 4.5288
     vertex 0.2069 0.2069 4.5288
     vertex 0.0000 -0.0000 4.5000
   endloop
 endfacet
 facet normal -0.1850 -0.2254 0.9565
   outer loop
     vertex 0.3189 0.4773 4.6142
     vertex 0.1626 0.2433 4.5288
     vertex 0.2069 0.2069 4.5288
   endloop
 endfacet
 facet normal -0.1850 -0.2254 0.9565
   outer loop
     vertex 0.2069 0.2069 4.5288
     vertex 0.4059 0.4059 4.6142
     vertex 0.3189 0.4773 4.6142
   endloop
 endfacet
 facet normal -0.2230 -0.4173 0.8810
   outer loop
     vertex 0.3189 0.7699 4.7528
     vertex 0.2197 0.5303 4.6142
     vertex 0.3189 0.4773 4.6142
   endloop
 endfacet
 facet normal -0.2230 -0.4173 0.8810
   outer loop
     vertex 0.3189 0.4773 4.6142
     vertex 0.4630 0.6929 4.7528
     vertex 0.3189 0.7699 4.7528
   endloop
 endfacet
 facet normal -0.1847 -0.6088 0.7715
   outer loop
     vertex 0.2069 1.0403 4.9393
     vertex 0.1626 0.8173 4.7528
     vertex 0.3189 0.7699 4.7528
   endloop
 endfacet
 facet normal -0.1847 -0.6088 0.7715
   outer loop
     vertex 0.3189 0.7699 4.7528
     vertex 0.4059 0.9799 4.9393
     vertex 0.2069 1.0403 4.9393
   endloop
 endfacet
 facet normal -0.0759 -0.7708 0.6326
   outer loop
     vertex -0.0000 1.2472 5.1666
     vertex -0.0000 1.0607 4.9393
     vertex 0.2069 1.0403 4.9393
   endloop
 endfacet
 facet normal -0.0759 -0.7708 0.6326
   outer loop
     vertex 0.2069 1.0403 4.9393
     vertex 0.2433 1.2232 5.1666
     vertex -0.0000 1.2472 5.1666
   endloop
 endfacet
 facet normal 0.0759 -0.7708 0.6326
   outer loop
     vertex -0.2433 1.2232 5.1666
     vertex -0.2069 1.0403 4.9393
     vertex -0.0000 1.0607 4.9393
   endloop
 endfacet
 facet normal 0.0759 -0.7708 0.6326
   outer loop
     vertex -0.0000 1.0607 4.9393
     vertex -0.0000 1.2472 5.1666
     vertex -0.2433 1.2232 5.1666
   endloop
 endfacet
 facet normal 0.1847 -0.6088 0.7715
   outer loop
     vertex -0.4059 0.9799 4.9393
     vertex -0.3189 0.7699 4.7528
     vertex -0.1626 0.8173 4.7528
   endloop
 endfacet
 facet normal 0.1847 -0.6088 0.7715
   outer loop
     vertex -0.1626 0.8173 4.7528
     vertex -0.2069 1.0403 4.9393
     vertex -0.4059 0.9799 4.9393
   endloop
 endfacet
 facet normal 0.2230 -0.4173 0.8810
   outer loop
     vertex -0.4630 0.6929 4.7528
     vertex -0.3189 0.4773 4.6142
     vertex -0.2197 0.5303 4.6142
   endloop
 endfacet
 facet normal 0.2230 -0.4173 0.8810
   outer loop
     vertex -0.2197 0.5303 4.6142
     vertex -0.3189 0.7699 4.7528
     vertex -0.4630 0.6929 4.7528
   endloop
 endfacet
 facet normal 0.1850 -0.2254 0.9565
   outer loop
     vertex -0.4059 0.4059 4.6142
     vertex -0.2069 0.2069 4.5288
     vertex -0.1626 0.2433 4.5288
   endloop
 endfacet
 facet normal 0.1850 -0.2254 0.9565
   outer loop
     vertex -0.1626 0.2433 4.5288
     vertex -0.3189 0.4773 4.6142
     vertex -0.4059 0.4059 4.6142
   endloop
 endfacet
 facet normal 0.0761 -0.0625 0.9951
   outer loop
     vertex -0.2069 0.2069 4.5288
     vertex -0.2433 0.1626 4.5288
     vertex 0.0000 -0.0000 4.5000
   endloop
 endfacet
 facet normal -0.0625 -0.0761 0.9951
   outer loop
     vertex 0.2069 0.2069 4.5288
     vertex 0.1626 0.2433 4.5288
     vertex 0.0000 -0.0000 4.5000
   endloop
 endfacet
 facet normal -0.1374 -0.2571 0.9565
   outer loop
     vertex 0.2197 0.5303 4.6142
     vertex 0.1120 0.2704 4.5288
     vertex 0.1626 0.2433 4.5288
   endloop
 endfacet
 facet normal -0.1374 -0.2571 0.9565
   outer loop
     vertex 0.1626 0.2433 4.5288
     vertex 0.3189 0.4773 4.6142
     vertex 0.2197 0.5303 4.6142
   endloop
 endfacet
 facet normal -0.1374 -0.4528 0.8810
   outer loop
     vertex 0.1626 0.8173 4.7528
     vertex 0.1120 0.5630 4.6142
     vertex 0.2197 0.5303 4.6142
   endloop
 endfacet
 facet normal -0.1374 -0.4528 0.8810
   outer loop
     vertex 0.2197 0.5303 4.6142
     vertex 0.3189 0.7699 4.7528
     vertex 0.1626 0.8173 4.7528
   endloop
 endfacet
 facet normal -0.0624 -0.6332 0.7715
   outer loop
     vertex -0.0000 1.0607 4.9393
     vertex -0.0000 0.8334 4.7528
     vertex 0.1626 0.8173 4.7528
   endloop
 endfacet
 facet normal -0.0624 -0.6332 0.7715
   outer loop
     vertex 0.1626 0.8173 4.7528
     vertex 0.2069 1.0403 4.9393
     vertex -0.0000 1.0607 4.9393
   endloop
 endfacet
 facet normal 0.0624 -0.6332 0.7715
   outer loop
     vertex -0.2069 1.0403 4.9393
     vertex -0.1626 0.8173 4.7528
     vertex -0.0000 0.8334 4.7528
   endloop
 endfacet
 facet normal 0.0624 -0.6332 0.7715
   outer loop
     vertex -0.0000 0.8334 4.7528
     vertex -0.0000 1.0607 4.9393
     vertex -0.2069 1.0403 4.9393
   endloop
 endfacet
 facet normal 0.1374 -0.4528 0.8810
   outer loop
     vertex -0.3189 0.7699 4.7528
     vertex -0.2197 0.5303 4.6142
     vertex -0.1120 0.5630 4.6142
   endloop
 endfacet
 facet normal 0.1374 -0.4528 0.8810
   outer loop
     vertex -0.1120 0.5630 4.6142
     vertex -0.1626 0.8173 4.7528
     vertex -0.3189 0.7699 4.7528
   endloop
 endfacet
 facet normal 0.1374 -0.2571 0.9565
   outer loop
     vertex -0.3189 0.4773 4.6142
     vertex -0.1626 0.2433 4.5288
     vertex -0.1120 0.2704 4.5288
   endloop
 endfacet
 facet normal 0.1374 -0.2571 0.9565
   outer loop
     vertex -0.1120 0.2704 4.5288
     vertex -0.2197 0.5303 4.6142
     vertex -0.3189 0.4773 4.6142
   endloop
 endfacet
 facet normal 0.0625 -0.0761 0.9951
   outer loop
     vertex -0.1626 0.2433 4.5288
     vertex -0.2069 0.2069 4.5288
     vertex 0.0000 -0.0000 4.5000
   endloop
 endfacet
 facet normal -0.0464 -0.0869 0.9951
   outer loop
     vertex 0.1626 0.2433 4.5288
     vertex 0.1120 0.2704 4.5288
     vertex 0.0000 -0.0000 4.5000
   endloop
 endfacet
 facet normal -0.0846 -0.2790 0.9565
   outer loop
     vertex 0.1120 0.5630 4.6142
     vertex 0.0571 0.2870 4.5288
     vertex 0.1120 0.2704 4.5288
   endloop
 endfacet
 facet normal -0.0846 -0.2790 0.9565
   outer loop
     vertex 0.1120 0.2704 4.5288
     vertex 0.2197 0.5303 4.6142
     vertex 0.1120 0.5630 4.6142
   endloop
 endfacet
 facet normal -0.0464 -0.4709 0.8810
   outer loop
     vertex -0.0000 0.8334 4.7528
     vertex -0.0000 0.5740 4.6142
     vertex 0.1120 0.5630 4.6142
   endloop
 endfacet
 facet normal -0.0464 -0.4709 0.8810
   outer loop
     vertex 0.1120 0.5630 4.6142
     vertex 0.1626 0.8173 4.7528
     vertex -0.0000 0.8334 4.7528
   endloop
 endfacet
 facet normal 0.0464 -0.4709 0.8810
   outer loop
     vertex -0.1626 0.8173 4.7528
     vertex -0.1120 0.5630 4.6142
     vertex -0.0000 0.5740 4.6142
   endloop
 endfacet
 facet normal 0.0464 -0.4709 0.8810
   outer loop
     vertex -0.0000 0.5740 4.6142
     vertex -0.0000 0.8334 4.7528
     vertex -0.1626 0.8173 4.7528
   endloop
 endfacet
 facet normal 0.0846 -0.2790 0.9565
   outer loop
     vertex -0.2197 0.5303 4.6142
     vertex -0.1120 0.2704 4.5288
     vertex -0.0571 0.2870 4.5288
   endloop
 endfacet
 facet normal 0.0846 -0.2790 0.9565
   outer loop
     vertex -0.0571 0.2870 4.5288
     vertex -0.1120 0.5630 4.6142
     vertex -0.2197 0.5303 4.6142
   endloop
 endfacet
 facet normal 0.0464 -0.0869 0.9951
   outer loop
     vertex -0.1120 0.2704 4.5288
     vertex -0.1626 0.2433 4.5288
     vertex 0.0000 -0.0000 4.5000
   endloop
 endfacet
 facet normal -0.0286 -0.0942 0.9951
   outer loop
     vertex 0.1120 0.2704 4.5288
     vertex 0.0571 0.2870 4.5288
     vertex 0.0000 -0.0000 4.5000
   endloop
 endfacet
 facet normal -0.0286 -0.2902 0.9565
   outer loop
     vertex -0.0000 0.5740 4.6142
     vertex -0.0000 0.2926 4.5288
     vertex 0.0571 0.2870 4.5288
   endloop
 endfacet
 facet normal -0.0286 -0.2902 0.9565
   outer loop
     vertex 0.0571 0.2870 4.5288
     vertex 0.1120 0.5630 4.6142
     vertex -0.0000 0.5740 4.6142
   endloop
 endfacet
 facet normal 0.0286 -0.2902 0.9565
   outer loop
     vertex -0.1120 0.5630 4.6142
     vertex -0.0571 0.2870 4.5288
     vertex -0.0000 0.2926 4.5288
   endloop
 endfacet
 facet normal 0.0286 -0.2902 0.9565
   outer loop
     vertex -0.0000 0.2926 4.5288
     vertex -0.0000 0.5740 4.6142
     vertex -0.1120 0.5630 4.6142
   endloop
 endfacet
 facet normal 0.0286 -0.0942 0.9951
   outer loop
     vertex -0.0571 0.2870 4.5288
     vertex -0.1120 0.2704 4.5288
     vertex 0.0000 -0.0000 4.5000
   endloop
 endfacet
 facet normal -0.0097 -0.0980 0.9951
   outer loop
     vertex 0.0571 0.2870 4.5288
     vertex -0.0000 0.2926 4.5288
     vertex 0.0000 -0.0000 4.5000
   endloop
 endfacet
 facet normal 0.0097 -0.0980 0.9951
   outer loop
     vertex -0.0000 0.2926 4.5288
     vertex -0.0571 0.2870 4.5288
     vertex 0.0000 -0.0000 4.5000
   endloop
 endfacet
endsolid
