solid Cheetah3Dfile
 facet normal -0.0000 -1.0000 -0.0000
   outer loop
     vertex -1.0607 -6.0000 -1.0607
     vertex -1.2472 -6.0000 -0.8334
     vertex -6.0000 -6.0000 -6.0000
   endloop
 endfacet
 facet normal -0.0000 -1.0000 -0.0000
   outer loop
     vertex 1.0607 -6.0000 1.0607
     vertex 6.0000 -6.0000 6.0000
     vertex 0.8334 -6.0000 1.2472
   endloop
 endfacet
 facet normal -0.0000 -1.0000 -0.0000
   outer loop
     vertex -6.0000 -6.0000 -6.0000
     vertex -1.2472 -6.0000 -0.8334
     vertex -6.0000 -6.0000 6.0000
   endloop
 endfacet
 facet normal -0.0000 -1.0000 -0.0000
   outer loop
     vertex 0.8334 -6.0000 1.2472
     vertex 6.0000 -6.0000 6.0000
     vertex 0.5740 -6.0000 1.3858
   endloop
 endfacet
 facet normal 0.0000 -1.0000 0.0000
   outer loop
     vertex -1.2472 -6.0000 -0.8334
     vertex -1.3858 -6.0000 -0.5740
     vertex -6.0000 -6.0000 6.0000
   endloop
 endfacet
 facet normal -0.0000 -1.0000 -0.0000
   outer loop
     vertex 0.5740 -6.0000 1.3858
     vertex 6.0000 -6.0000 6.0000
     vertex 0.2926 -6.0000 1.4712
   endloop
 endfacet
 facet normal 0.0000 -1.0000 0.0000
   outer loop
     vertex -1.3858 -6.0000 -0.5740
     vertex -1.4712 -6.0000 -0.2926
     vertex -6.0000 -6.0000 6.0000
   endloop
 endfacet
 facet normal -0.0000 -1.0000 -0.0000
   outer loop
     vertex 0.2926 -6.0000 1.4712
     vertex 6.0000 -6.0000 6.0000
     vertex 0.0000 -6.0000 1.5000
   endloop
 endfacet
 facet normal 0.0000 -1.0000 0.0000
   outer loop
     vertex -1.4712 -6.0000 -0.2926
     vertex -1.5000 -6.0000 -0.0000
     vertex -6.0000 -6.0000 6.0000
   endloop
 endfacet
 facet normal 0.0000 -1.0000 -0.0000
   outer loop
     vertex 0.0000 -6.0000 1.5000
     vertex 6.0000 -6.0000 6.0000
     vertex -0.2926 -6.0000 1.4712
   endloop
 endfacet
 facet normal 0.0000 -1.0000 -0.0000
   outer loop
     vertex -1.5000 -6.0000 -0.0000
     vertex -1.4712 -6.0000 0.2926
     vertex -6.0000 -6.0000 6.0000
   endloop
 endfacet
 facet normal 0.0000 -1.0000 -0.0000
   outer loop
     vertex -0.2926 -6.0000 1.4712
     vertex 6.0000 -6.0000 6.0000
     vertex -0.5740 -6.0000 1.3858
   endloop
 endfacet
 facet normal 0.0000 -1.0000 -0.0000
   outer loop
     vertex -1.4712 -6.0000 0.2926
     vertex -1.3858 -6.0000 0.5740
     vertex -6.0000 -6.0000 6.0000
   endloop
 endfacet
 facet normal 0.0000 -1.0000 -0.0000
   outer loop
     vertex -0.5740 -6.0000 1.3858
     vertex 6.0000 -6.0000 6.0000
     vertex -0.8334 -6.0000 1.2472
   endloop
 endfacet
 facet normal 0.0000 -1.0000 -0.0000
   outer loop
     vertex -1.3858 -6.0000 0.5740
     vertex -1.2472 -6.0000 0.8334
     vertex -6.0000 -6.0000 6.0000
   endloop
 endfacet
 facet normal -0.0000 -1.0000 -0.0000
   outer loop
     vertex 6.0000 -6.0000 6.0000
     vertex -6.0000 -6.0000 6.0000
     vertex -0.8334 -6.0000 1.2472
   endloop
 endfacet
 facet normal 0.0000 -1.0000 -0.0000
   outer loop
     vertex -1.2472 -6.0000 0.8334
     vertex -1.0607 -6.0000 1.0607
     vertex -6.0000 -6.0000 6.0000
   endloop
 endfacet
 facet normal 0.0000 -1.0000 -0.0000
   outer loop
     vertex -0.8334 -6.0000 1.2472
     vertex -6.0000 -6.0000 6.0000
     vertex -1.0607 -6.0000 1.0607
   endloop
 endfacet
 facet normal -0.0000 -1.0000 -0.0000
   outer loop
     vertex 1.0607 -6.0000 1.0607
     vertex 1.2472 -6.0000 0.8334
     vertex 6.0000 -6.0000 6.0000
   endloop
 endfacet
 facet normal nan nan nan
   outer loop
     vertex -1.0607 -6.0000 -1.0607
     vertex -6.0000 -6.0000 -6.0000
     vertex -1.0607 -6.0000 -1.0607
   endloop
 endfacet
 facet normal -0.0000 -1.0000 -0.0000
   outer loop
     vertex 6.0000 -6.0000 6.0000
     vertex 1.2472 -6.0000 0.8334
     vertex 6.0000 -6.0000 -6.0000
   endloop
 endfacet
 facet normal -0.0000 -1.0000 -0.0000
   outer loop
     vertex -1.0607 -6.0000 -1.0607
     vertex -6.0000 -6.0000 -6.0000
     vertex -0.8334 -6.0000 -1.2472
   endloop
 endfacet
 facet normal 0.0000 -1.0000 0.0000
   outer loop
     vertex 1.2472 -6.0000 0.8334
     vertex 1.3858 -6.0000 0.5740
     vertex 6.0000 -6.0000 -6.0000
   endloop
 endfacet
 facet normal -0.0000 -1.0000 -0.0000
   outer loop
     vertex -0.8334 -6.0000 -1.2472
     vertex -6.0000 -6.0000 -6.0000
     vertex -0.5740 -6.0000 -1.3858
   endloop
 endfacet
 facet normal 0.0000 -1.0000 0.0000
   outer loop
     vertex 1.3858 -6.0000 0.5740
     vertex 1.4712 -6.0000 0.2926
     vertex 6.0000 -6.0000 -6.0000
   endloop
 endfacet
 facet normal -0.0000 -1.0000 -0.0000
   outer loop
     vertex -0.5740 -6.0000 -1.3858
     vertex -6.0000 -6.0000 -6.0000
     vertex -0.2926 -6.0000 -1.4712
   endloop
 endfacet
 facet normal 0.0000 -1.0000 0.0000
   outer loop
     vertex 1.4712 -6.0000 0.2926
     vertex 1.5000 -6.0000 -0.0000
     vertex 6.0000 -6.0000 -6.0000
   endloop
 endfacet
 facet normal -0.0000 -1.0000 -0.0000
   outer loop
     vertex -0.2926 -6.0000 -1.4712
     vertex -6.0000 -6.0000 -6.0000
     vertex 0.0000 -6.0000 -1.5000
   endloop
 endfacet
 facet normal 0.0000 -1.0000 -0.0000
   outer loop
     vertex 1.5000 -6.0000 -0.0000
     vertex 1.4712 -6.0000 -0.2926
     vertex 6.0000 -6.0000 -6.0000
   endloop
 endfacet
 facet normal 0.0000 -1.0000 -0.0000
   outer loop
     vertex 0.0000 -6.0000 -1.5000
     vertex -6.0000 -6.0000 -6.0000
     vertex 0.2926 -6.0000 -1.4712
   endloop
 endfacet
 facet normal 0.0000 -1.0000 -0.0000
   outer loop
     vertex 1.4712 -6.0000 -0.2926
     vertex 1.3858 -6.0000 -0.5740
     vertex 6.0000 -6.0000 -6.0000
   endloop
 endfacet
 facet normal 0.0000 -1.0000 -0.0000
   outer loop
     vertex 0.2926 -6.0000 -1.4712
     vertex -6.0000 -6.0000 -6.0000
     vertex 0.5740 -6.0000 -1.3858
   endloop
 endfacet
 facet normal 0.0000 -1.0000 -0.0000
   outer loop
     vertex 1.3858 -6.0000 -0.5740
     vertex 1.2472 -6.0000 -0.8334
     vertex 6.0000 -6.0000 -6.0000
   endloop
 endfacet
 facet normal 0.0000 -1.0000 -0.0000
   outer loop
     vertex 0.5740 -6.0000 -1.3858
     vertex -6.0000 -6.0000 -6.0000
     vertex 0.8334 -6.0000 -1.2472
   endloop
 endfacet
 facet normal 0.0000 -1.0000 -0.0000
   outer loop
     vertex 1.2472 -6.0000 -0.8334
     vertex 1.0607 -6.0000 -1.0607
     vertex 6.0000 -6.0000 -6.0000
   endloop
 endfacet
 facet normal 0.0000 -1.0000 -0.0000
   outer loop
     vertex -6.0000 -6.0000 -6.0000
     vertex 6.0000 -6.0000 -6.0000
     vertex 0.8334 -6.0000 -1.2472
   endloop
 endfacet
 facet normal 0.0000 -1.0000 -0.0000
   outer loop
     vertex 1.0607 -6.0000 -1.0607
     vertex 0.8334 -6.0000 -1.2472
     vertex 6.0000 -6.0000 -6.0000
   endloop
 endfacet
 facet normal -0.0977 -0.0977 0.9904
   outer loop
     vertex 0.2926 -6.0000 -1.4712
     vertex 0.2870 -5.7074 -1.4429
     vertex 0.0000 -5.7074 -1.4712
   endloop
 endfacet
 facet normal -0.0975 -0.0975 0.9905
   outer loop
     vertex 0.0000 -5.7074 -1.4712
     vertex 0.0000 -6.0000 -1.5000
     vertex 0.2926 -6.0000 -1.4712
   endloop
 endfacet
 facet normal 0.0977 -0.0975 0.9904
   outer loop
     vertex 0.0000 -6.0000 -1.5000
     vertex 0.0000 -5.7074 -1.4712
     vertex -0.2870 -5.7074 -1.4429
   endloop
 endfacet
 facet normal 0.0975 -0.0977 0.9904
   outer loop
     vertex -0.2870 -5.7074 -1.4429
     vertex -0.2926 -6.0000 -1.4712
     vertex 0.0000 -6.0000 -1.5000
   endloop
 endfacet
 facet normal -0.0937 -0.2889 0.9528
   outer loop
     vertex 0.2870 -5.7074 -1.4429
     vertex 0.2704 -5.4260 -1.3592
     vertex 0.0000 -5.4260 -1.3858
   endloop
 endfacet
 facet normal -0.0939 -0.2891 0.9527
   outer loop
     vertex 0.0000 -5.4260 -1.3858
     vertex 0.0000 -5.7074 -1.4712
     vertex 0.2870 -5.7074 -1.4429
   endloop
 endfacet
 facet normal -0.2888 -0.0974 0.9524
   outer loop
     vertex 0.5740 -6.0000 -1.3858
     vertex 0.5630 -5.7074 -1.3592
     vertex 0.2870 -5.7074 -1.4429
   endloop
 endfacet
 facet normal -0.2890 -0.0976 0.9523
   outer loop
     vertex 0.2870 -5.7074 -1.4429
     vertex 0.2926 -6.0000 -1.4712
     vertex 0.5740 -6.0000 -1.3858
   endloop
 endfacet
 facet normal 0.2888 -0.0976 0.9524
   outer loop
     vertex -0.2926 -6.0000 -1.4712
     vertex -0.2870 -5.7074 -1.4429
     vertex -0.5630 -5.7074 -1.3592
   endloop
 endfacet
 facet normal 0.2890 -0.0974 0.9524
   outer loop
     vertex -0.5630 -5.7074 -1.3592
     vertex -0.5740 -6.0000 -1.3858
     vertex -0.2926 -6.0000 -1.4712
   endloop
 endfacet
 facet normal 0.0937 -0.2891 0.9527
   outer loop
     vertex 0.0000 -5.7074 -1.4712
     vertex 0.0000 -5.4260 -1.3858
     vertex -0.2704 -5.4260 -1.3592
   endloop
 endfacet
 facet normal 0.0939 -0.2889 0.9527
   outer loop
     vertex -0.2704 -5.4260 -1.3592
     vertex -0.2870 -5.7074 -1.4429
     vertex 0.0000 -5.7074 -1.4712
   endloop
 endfacet
 facet normal -0.0867 -0.4697 0.8786
   outer loop
     vertex 0.2704 -5.4260 -1.3592
     vertex 0.2433 -5.1666 -1.2232
     vertex 0.0000 -5.1666 -1.2472
   endloop
 endfacet
 facet normal -0.0864 -0.4695 0.8787
   outer loop
     vertex 0.0000 -5.1666 -1.2472
     vertex 0.0000 -5.4260 -1.3858
     vertex 0.2704 -5.4260 -1.3592
   endloop
 endfacet
 facet normal -0.2781 -0.2891 0.9160
   outer loop
     vertex 0.5630 -5.7074 -1.3592
     vertex 0.5303 -5.4260 -1.2803
     vertex 0.2704 -5.4260 -1.3592
   endloop
 endfacet
 facet normal -0.2778 -0.2889 0.9162
   outer loop
     vertex 0.2704 -5.4260 -1.3592
     vertex 0.2870 -5.7074 -1.4429
     vertex 0.5630 -5.7074 -1.3592
   endloop
 endfacet
 facet normal -0.4693 -0.0978 0.8776
   outer loop
     vertex 0.8334 -6.0000 -1.2472
     vertex 0.8173 -5.7074 -1.2232
     vertex 0.5630 -5.7074 -1.3592
   endloop
 endfacet
 facet normal -0.4690 -0.0974 0.8778
   outer loop
     vertex 0.5630 -5.7074 -1.3592
     vertex 0.5740 -6.0000 -1.3858
     vertex 0.8334 -6.0000 -1.2472
   endloop
 endfacet
 facet normal 0.4694 -0.0974 0.8776
   outer loop
     vertex -0.5740 -6.0000 -1.3858
     vertex -0.5630 -5.7074 -1.3592
     vertex -0.8173 -5.7074 -1.2232
   endloop
 endfacet
 facet normal 0.4690 -0.0978 0.8778
   outer loop
     vertex -0.8173 -5.7074 -1.2232
     vertex -0.8334 -6.0000 -1.2472
     vertex -0.5740 -6.0000 -1.3858
   endloop
 endfacet
 facet normal 0.2781 -0.2889 0.9161
   outer loop
     vertex -0.2870 -5.7074 -1.4429
     vertex -0.2704 -5.4260 -1.3592
     vertex -0.5303 -5.4260 -1.2803
   endloop
 endfacet
 facet normal 0.2778 -0.2891 0.9161
   outer loop
     vertex -0.5303 -5.4260 -1.2803
     vertex -0.5630 -5.7074 -1.3592
     vertex -0.2870 -5.7074 -1.4429
   endloop
 endfacet
 facet normal 0.0867 -0.4695 0.8787
   outer loop
     vertex 0.0000 -5.4260 -1.3858
     vertex 0.0000 -5.1666 -1.2472
     vertex -0.2433 -5.1666 -1.2232
   endloop
 endfacet
 facet normal 0.0864 -0.4697 0.8786
   outer loop
     vertex -0.2433 -5.1666 -1.2232
     vertex -0.2704 -5.4260 -1.3592
     vertex 0.0000 -5.4260 -1.3858
   endloop
 endfacet
 facet normal -0.0760 -0.6325 0.7709
   outer loop
     vertex 0.2433 -5.1666 -1.2232
     vertex 0.2069 -4.9393 -1.0403
     vertex 0.0000 -4.9393 -1.0607
   endloop
 endfacet
 facet normal -0.0760 -0.6325 0.7708
   outer loop
     vertex 0.0000 -4.9393 -1.0607
     vertex 0.0000 -5.1666 -1.2472
     vertex 0.2433 -5.1666 -1.2232
   endloop
 endfacet
 facet normal -0.2561 -0.4693 0.8451
   outer loop
     vertex 0.5303 -5.4260 -1.2803
     vertex 0.4773 -5.1666 -1.1523
     vertex 0.2433 -5.1666 -1.2232
   endloop
 endfacet
 facet normal -0.2565 -0.4697 0.8448
   outer loop
     vertex 0.2433 -5.1666 -1.2232
     vertex 0.2704 -5.4260 -1.3592
     vertex 0.5303 -5.4260 -1.2803
   endloop
 endfacet
 facet normal -0.4511 -0.2888 0.8445
   outer loop
     vertex 0.8173 -5.7074 -1.2232
     vertex 0.7699 -5.4260 -1.1523
     vertex 0.5303 -5.4260 -1.2803
   endloop
 endfacet
 facet normal -0.4515 -0.2891 0.8441
   outer loop
     vertex 0.5303 -5.4260 -1.2803
     vertex 0.5630 -5.7074 -1.3592
     vertex 0.8173 -5.7074 -1.2232
   endloop
 endfacet
 facet normal -0.6311 -0.0977 0.7695
   outer loop
     vertex 1.0607 -6.0000 -1.0607
     vertex 1.0403 -5.7074 -1.0403
     vertex 0.8173 -5.7074 -1.2232
   endloop
 endfacet
 facet normal -0.6313 -0.0978 0.7694
   outer loop
     vertex 0.8173 -5.7074 -1.2232
     vertex 0.8334 -6.0000 -1.2472
     vertex 1.0607 -6.0000 -1.0607
   endloop
 endfacet
 facet normal 0.6311 -0.0978 0.7695
   outer loop
     vertex -0.8334 -6.0000 -1.2472
     vertex -0.8173 -5.7074 -1.2232
     vertex -1.0403 -5.7074 -1.0403
   endloop
 endfacet
 facet normal 0.6313 -0.0977 0.7694
   outer loop
     vertex -1.0403 -5.7074 -1.0403
     vertex -1.0607 -6.0000 -1.0607
     vertex -0.8334 -6.0000 -1.2472
   endloop
 endfacet
 facet normal 0.4511 -0.2892 0.8443
   outer loop
     vertex -0.5630 -5.7074 -1.3592
     vertex -0.5303 -5.4260 -1.2803
     vertex -0.7699 -5.4260 -1.1523
   endloop
 endfacet
 facet normal 0.4515 -0.2888 0.8442
   outer loop
     vertex -0.7699 -5.4260 -1.1523
     vertex -0.8173 -5.7074 -1.2232
     vertex -0.5630 -5.7074 -1.3592
   endloop
 endfacet
 facet normal 0.2560 -0.4697 0.8449
   outer loop
     vertex -0.2704 -5.4260 -1.3592
     vertex -0.2433 -5.1666 -1.2232
     vertex -0.4773 -5.1666 -1.1523
   endloop
 endfacet
 facet normal 0.2565 -0.4693 0.8449
   outer loop
     vertex -0.4773 -5.1666 -1.1523
     vertex -0.5303 -5.4260 -1.2803
     vertex -0.2704 -5.4260 -1.3592
   endloop
 endfacet
 facet normal 0.0760 -0.6325 0.7708
   outer loop
     vertex 0.0000 -5.1666 -1.2472
     vertex 0.0000 -4.9393 -1.0607
     vertex -0.2069 -4.9393 -1.0403
   endloop
 endfacet
 facet normal 0.0760 -0.6325 0.7709
   outer loop
     vertex -0.2069 -4.9393 -1.0403
     vertex -0.2433 -5.1666 -1.2232
     vertex 0.0000 -5.1666 -1.2472
   endloop
 endfacet
 facet normal -0.0627 -0.7717 0.6329
   outer loop
     vertex 0.2069 -4.9393 -1.0403
     vertex 0.1626 -4.7528 -0.8173
     vertex 0.0000 -4.7528 -0.8334
   endloop
 endfacet
 facet normal -0.0624 -0.7716 0.6331
   outer loop
     vertex 0.0000 -4.7528 -0.8334
     vertex 0.0000 -4.9393 -1.0607
     vertex 0.2069 -4.9393 -1.0403
   endloop
 endfacet
 facet normal -0.2249 -0.6327 0.7410
   outer loop
     vertex 0.4773 -5.1666 -1.1523
     vertex 0.4059 -4.9393 -0.9799
     vertex 0.2069 -4.9393 -1.0403
   endloop
 endfacet
 facet normal -0.2246 -0.6325 0.7413
   outer loop
     vertex 0.2069 -4.9393 -1.0403
     vertex 0.2433 -5.1666 -1.2232
     vertex 0.4773 -5.1666 -1.1523
   endloop
 endfacet
 facet normal -0.4163 -0.4696 0.7785
   outer loop
     vertex 0.7699 -5.4260 -1.1523
     vertex 0.6929 -5.1666 -1.0370
     vertex 0.4773 -5.1666 -1.1523
   endloop
 endfacet
 facet normal -0.4161 -0.4693 0.7788
   outer loop
     vertex 0.4773 -5.1666 -1.1523
     vertex 0.5303 -5.4260 -1.2803
     vertex 0.7699 -5.4260 -1.1523
   endloop
 endfacet
 facet normal -0.6074 -0.2892 0.7399
   outer loop
     vertex 1.0403 -5.7074 -1.0403
     vertex 0.9799 -5.4260 -0.9799
     vertex 0.7699 -5.4260 -1.1523
   endloop
 endfacet
 facet normal -0.6071 -0.2888 0.7403
   outer loop
     vertex 0.7699 -5.4260 -1.1523
     vertex 0.8173 -5.7074 -1.2232
     vertex 1.0403 -5.7074 -1.0403
   endloop
 endfacet
 facet normal -0.7695 -0.0978 0.6311
   outer loop
     vertex 1.2472 -6.0000 -0.8334
     vertex 1.2232 -5.7074 -0.8173
     vertex 1.0403 -5.7074 -1.0403
   endloop
 endfacet
 facet normal -0.7694 -0.0977 0.6313
   outer loop
     vertex 1.0403 -5.7074 -1.0403
     vertex 1.0607 -6.0000 -1.0607
     vertex 1.2472 -6.0000 -0.8334
   endloop
 endfacet
 facet normal nan nan nan
   outer loop
     vertex -1.0607 -6.0000 -1.0607
     vertex -1.0403 -5.7074 -1.0403
     vertex -1.0607 -6.0000 -1.0607
   endloop
 endfacet
 facet normal 0.7695 -0.0978 0.6311
   outer loop
     vertex -1.2232 -5.7074 -0.8173
     vertex -1.2472 -6.0000 -0.8334
     vertex -1.0403 -5.7074 -1.0403
   endloop
 endfacet
 facet normal 0.7694 -0.0977 0.6313
   outer loop
     vertex -1.0607 -6.0000 -1.0607
     vertex -1.0403 -5.7074 -1.0403
     vertex -1.2472 -6.0000 -0.8334
   endloop
 endfacet
 facet normal 0.6075 -0.2888 0.7400
   outer loop
     vertex -0.8173 -5.7074 -1.2232
     vertex -0.7699 -5.4260 -1.1523
     vertex -0.9799 -5.4260 -0.9799
   endloop
 endfacet
 facet normal 0.6071 -0.2892 0.7402
   outer loop
     vertex -0.9799 -5.4260 -0.9799
     vertex -1.0403 -5.7074 -1.0403
     vertex -0.8173 -5.7074 -1.2232
   endloop
 endfacet
 facet normal 0.4164 -0.4693 0.7787
   outer loop
     vertex -0.5303 -5.4260 -1.2803
     vertex -0.4773 -5.1666 -1.1523
     vertex -0.6929 -5.1666 -1.0370
   endloop
 endfacet
 facet normal 0.4160 -0.4696 0.7787
   outer loop
     vertex -0.6929 -5.1666 -1.0370
     vertex -0.7699 -5.4260 -1.1523
     vertex -0.5303 -5.4260 -1.2803
   endloop
 endfacet
 facet normal 0.2250 -0.6325 0.7412
   outer loop
     vertex -0.2433 -5.1666 -1.2232
     vertex -0.2069 -4.9393 -1.0403
     vertex -0.4059 -4.9393 -0.9799
   endloop
 endfacet
 facet normal 0.2246 -0.6327 0.7411
   outer loop
     vertex -0.4059 -4.9393 -0.9799
     vertex -0.4773 -5.1666 -1.1523
     vertex -0.2433 -5.1666 -1.2232
   endloop
 endfacet
 facet normal 0.0627 -0.7716 0.6331
   outer loop
     vertex 0.0000 -4.9393 -1.0607
     vertex 0.0000 -4.7528 -0.8334
     vertex -0.1626 -4.7528 -0.8173
   endloop
 endfacet
 facet normal 0.0624 -0.7717 0.6330
   outer loop
     vertex -0.1626 -4.7528 -0.8173
     vertex -0.2069 -4.9393 -1.0403
     vertex 0.0000 -4.9393 -1.0607
   endloop
 endfacet
 facet normal -0.0463 -0.8810 0.4709
   outer loop
     vertex 0.1626 -4.7528 -0.8173
     vertex 0.1120 -4.6142 -0.5630
     vertex 0.0000 -4.6142 -0.5740
   endloop
 endfacet
 facet normal -0.0466 -0.8810 0.4707
   outer loop
     vertex 0.0000 -4.6142 -0.5740
     vertex 0.0000 -4.7528 -0.8334
     vertex 0.1626 -4.7528 -0.8173
   endloop
 endfacet
 facet normal -0.1846 -0.7716 0.6088
   outer loop
     vertex 0.4059 -4.9393 -0.9799
     vertex 0.3189 -4.7528 -0.7699
     vertex 0.1626 -4.7528 -0.8173
   endloop
 endfacet
 facet normal -0.1847 -0.7716 0.6086
   outer loop
     vertex 0.1626 -4.7528 -0.8173
     vertex 0.2069 -4.9393 -1.0403
     vertex 0.4059 -4.9393 -0.9799
   endloop
 endfacet
 facet normal -0.3650 -0.6325 0.6831
   outer loop
     vertex 0.6929 -5.1666 -1.0370
     vertex 0.5893 -4.9393 -0.8819
     vertex 0.4059 -4.9393 -0.9799
   endloop
 endfacet
 facet normal -0.3652 -0.6327 0.6829
   outer loop
     vertex 0.4059 -4.9393 -0.9799
     vertex 0.4773 -5.1666 -1.1523
     vertex 0.6929 -5.1666 -1.0370
   endloop
 endfacet
 facet normal -0.5601 -0.4695 0.6825
   outer loop
     vertex 0.9799 -5.4260 -0.9799
     vertex 0.8819 -5.1666 -0.8819
     vertex 0.6929 -5.1666 -1.0370
   endloop
 endfacet
 facet normal -0.5602 -0.4696 0.6824
   outer loop
     vertex 0.6929 -5.1666 -1.0370
     vertex 0.7699 -5.4260 -1.1523
     vertex 0.9799 -5.4260 -0.9799
   endloop
 endfacet
 facet normal -0.7400 -0.2888 0.6075
   outer loop
     vertex 1.2232 -5.7074 -0.8173
     vertex 1.1523 -5.4260 -0.7699
     vertex 0.9799 -5.4260 -0.9799
   endloop
 endfacet
 facet normal -0.7402 -0.2892 0.6071
   outer loop
     vertex 0.9799 -5.4260 -0.9799
     vertex 1.0403 -5.7074 -1.0403
     vertex 1.2232 -5.7074 -0.8173
   endloop
 endfacet
 facet normal -0.8776 -0.0974 0.4694
   outer loop
     vertex 1.3858 -6.0000 -0.5740
     vertex 1.3592 -5.7074 -0.5630
     vertex 1.2232 -5.7074 -0.8173
   endloop
 endfacet
 facet normal -0.8778 -0.0978 0.4690
   outer loop
     vertex 1.2232 -5.7074 -0.8173
     vertex 1.2472 -6.0000 -0.8334
     vertex 1.3858 -6.0000 -0.5740
   endloop
 endfacet
 facet normal 0.8776 -0.0978 0.4693
   outer loop
     vertex -1.2472 -6.0000 -0.8334
     vertex -1.2232 -5.7074 -0.8173
     vertex -1.3592 -5.7074 -0.5630
   endloop
 endfacet
 facet normal 0.8778 -0.0974 0.4690
   outer loop
     vertex -1.3592 -5.7074 -0.5630
     vertex -1.3858 -6.0000 -0.5740
     vertex -1.2472 -6.0000 -0.8334
   endloop
 endfacet
 facet normal 0.7399 -0.2892 0.6074
   outer loop
     vertex -1.0403 -5.7074 -1.0403
     vertex -0.9799 -5.4260 -0.9799
     vertex -1.1523 -5.4260 -0.7699
   endloop
 endfacet
 facet normal 0.7403 -0.2888 0.6071
   outer loop
     vertex -1.1523 -5.4260 -0.7699
     vertex -1.2232 -5.7074 -0.8173
     vertex -1.0403 -5.7074 -1.0403
   endloop
 endfacet
 facet normal 0.5601 -0.4696 0.6825
   outer loop
     vertex -0.7699 -5.4260 -1.1523
     vertex -0.6929 -5.1666 -1.0370
     vertex -0.8819 -5.1666 -0.8819
   endloop
 endfacet
 facet normal 0.5602 -0.4695 0.6824
   outer loop
     vertex -0.8819 -5.1666 -0.8819
     vertex -0.9799 -5.4260 -0.9799
     vertex -0.7699 -5.4260 -1.1523
   endloop
 endfacet
 facet normal 0.3650 -0.6327 0.6830
   outer loop
     vertex -0.4773 -5.1666 -1.1523
     vertex -0.4059 -4.9393 -0.9799
     vertex -0.5893 -4.9393 -0.8819
   endloop
 endfacet
 facet normal 0.3653 -0.6325 0.6830
   outer loop
     vertex -0.5893 -4.9393 -0.8819
     vertex -0.6929 -5.1666 -1.0370
     vertex -0.4773 -5.1666 -1.1523
   endloop
 endfacet
 facet normal 0.1846 -0.7716 0.6087
   outer loop
     vertex -0.2069 -4.9393 -1.0403
     vertex -0.1626 -4.7528 -0.8173
     vertex -0.3189 -4.7528 -0.7699
   endloop
 endfacet
 facet normal 0.1848 -0.7716 0.6087
   outer loop
     vertex -0.3189 -4.7528 -0.7699
     vertex -0.4059 -4.9393 -0.9799
     vertex -0.2069 -4.9393 -1.0403
   endloop
 endfacet
 facet normal 0.0462 -0.8811 0.4708
   outer loop
     vertex 0.0000 -4.7528 -0.8334
     vertex 0.0000 -4.6142 -0.5740
     vertex -0.1120 -4.6142 -0.5630
   endloop
 endfacet
 facet normal 0.0466 -0.8810 0.4709
   outer loop
     vertex -0.1120 -4.6142 -0.5630
     vertex -0.1626 -4.7528 -0.8173
     vertex 0.0000 -4.7528 -0.8334
   endloop
 endfacet
 facet normal -0.0285 -0.9565 0.2903
   outer loop
     vertex 0.1120 -4.6142 -0.5630
     vertex 0.0571 -4.5288 -0.2870
     vertex 0.0000 -4.5288 -0.2926
   endloop
 endfacet
 facet normal -0.0285 -0.9565 0.2903
   outer loop
     vertex 0.0000 -4.5288 -0.2926
     vertex 0.0000 -4.6142 -0.5740
     vertex 0.1120 -4.6142 -0.5630
   endloop
 endfacet
 facet normal -0.1375 -0.8810 0.4527
   outer loop
     vertex 0.3189 -4.7528 -0.7699
     vertex 0.2197 -4.6142 -0.5303
     vertex 0.1120 -4.6142 -0.5630
   endloop
 endfacet
 facet normal -0.1373 -0.8810 0.4528
   outer loop
     vertex 0.1120 -4.6142 -0.5630
     vertex 0.1626 -4.7528 -0.8173
     vertex 0.3189 -4.7528 -0.7699
   endloop
 endfacet
 facet normal -0.2998 -0.7716 0.5610
   outer loop
     vertex 0.5893 -4.9393 -0.8819
     vertex 0.4630 -4.7528 -0.6929
     vertex 0.3189 -4.7528 -0.7699
   endloop
 endfacet
 facet normal -0.2998 -0.7716 0.5610
   outer loop
     vertex 0.3189 -4.7528 -0.7699
     vertex 0.4059 -4.9393 -0.9799
     vertex 0.5893 -4.9393 -0.8819
   endloop
 endfacet
 facet normal -0.4914 -0.6326 0.5987
   outer loop
     vertex 0.8819 -5.1666 -0.8819
     vertex 0.7500 -4.9393 -0.7500
     vertex 0.5893 -4.9393 -0.8819
   endloop
 endfacet
 facet normal -0.4914 -0.6325 0.5987
   outer loop
     vertex 0.5893 -4.9393 -0.8819
     vertex 0.6929 -5.1666 -1.0370
     vertex 0.8819 -5.1666 -0.8819
   endloop
 endfacet
 facet normal -0.6825 -0.4696 0.5601
   outer loop
     vertex 1.1523 -5.4260 -0.7699
     vertex 1.0370 -5.1666 -0.6929
     vertex 0.8819 -5.1666 -0.8819
   endloop
 endfacet
 facet normal -0.6824 -0.4695 0.5602
   outer loop
     vertex 0.8819 -5.1666 -0.8819
     vertex 0.9799 -5.4260 -0.9799
     vertex 1.1523 -5.4260 -0.7699
   endloop
 endfacet
 facet normal -0.8443 -0.2892 0.4511
   outer loop
     vertex 1.3592 -5.7074 -0.5630
     vertex 1.2803 -5.4260 -0.5303
     vertex 1.1523 -5.4260 -0.7699
   endloop
 endfacet
 facet normal -0.8442 -0.2888 0.4515
   outer loop
     vertex 1.1523 -5.4260 -0.7699
     vertex 1.2232 -5.7074 -0.8173
     vertex 1.3592 -5.7074 -0.5630
   endloop
 endfacet
 facet normal -0.9524 -0.0976 0.2888
   outer loop
     vertex 1.4712 -6.0000 -0.2926
     vertex 1.4429 -5.7074 -0.2870
     vertex 1.3592 -5.7074 -0.5630
   endloop
 endfacet
 facet normal -0.9524 -0.0974 0.2890
   outer loop
     vertex 1.3592 -5.7074 -0.5630
     vertex 1.3858 -6.0000 -0.5740
     vertex 1.4712 -6.0000 -0.2926
   endloop
 endfacet
 facet normal 0.9524 -0.0974 0.2888
   outer loop
     vertex -1.3858 -6.0000 -0.5740
     vertex -1.3592 -5.7074 -0.5630
     vertex -1.4429 -5.7074 -0.2870
   endloop
 endfacet
 facet normal 0.9523 -0.0976 0.2890
   outer loop
     vertex -1.4429 -5.7074 -0.2870
     vertex -1.4712 -6.0000 -0.2926
     vertex -1.3858 -6.0000 -0.5740
   endloop
 endfacet
 facet normal 0.8445 -0.2888 0.4511
   outer loop
     vertex -1.2232 -5.7074 -0.8173
     vertex -1.1523 -5.4260 -0.7699
     vertex -1.2803 -5.4260 -0.5303
   endloop
 endfacet
 facet normal 0.8441 -0.2891 0.4515
   outer loop
     vertex -1.2803 -5.4260 -0.5303
     vertex -1.3592 -5.7074 -0.5630
     vertex -1.2232 -5.7074 -0.8173
   endloop
 endfacet
 facet normal 0.6825 -0.4695 0.5601
   outer loop
     vertex -0.9799 -5.4260 -0.9799
     vertex -0.8819 -5.1666 -0.8819
     vertex -1.0370 -5.1666 -0.6929
   endloop
 endfacet
 facet normal 0.6824 -0.4696 0.5602
   outer loop
     vertex -1.0370 -5.1666 -0.6929
     vertex -1.1523 -5.4260 -0.7699
     vertex -0.9799 -5.4260 -0.9799
   endloop
 endfacet
 facet normal 0.4914 -0.6325 0.5987
   outer loop
     vertex -0.6929 -5.1666 -1.0370
     vertex -0.5893 -4.9393 -0.8819
     vertex -0.7500 -4.9393 -0.7500
   endloop
 endfacet
 facet normal 0.4913 -0.6326 0.5987
   outer loop
     vertex -0.7500 -4.9393 -0.7500
     vertex -0.8819 -5.1666 -0.8819
     vertex -0.6929 -5.1666 -1.0370
   endloop
 endfacet
 facet normal 0.2998 -0.7716 0.5610
   outer loop
     vertex -0.4059 -4.9393 -0.9799
     vertex -0.3189 -4.7528 -0.7699
     vertex -0.4630 -4.7528 -0.6929
   endloop
 endfacet
 facet normal 0.2998 -0.7716 0.5610
   outer loop
     vertex -0.4630 -4.7528 -0.6929
     vertex -0.5893 -4.9393 -0.8819
     vertex -0.4059 -4.9393 -0.9799
   endloop
 endfacet
 facet normal 0.1375 -0.8810 0.4528
   outer loop
     vertex -0.1626 -4.7528 -0.8173
     vertex -0.1120 -4.6142 -0.5630
     vertex -0.2197 -4.6142 -0.5303
   endloop
 endfacet
 facet normal 0.1373 -0.8810 0.4528
   outer loop
     vertex -0.2197 -4.6142 -0.5303
     vertex -0.3189 -4.7528 -0.7699
     vertex -0.1626 -4.7528 -0.8173
   endloop
 endfacet
 facet normal 0.0285 -0.9565 0.2903
   outer loop
     vertex 0.0000 -4.6142 -0.5740
     vertex 0.0000 -4.5288 -0.2926
     vertex -0.0571 -4.5288 -0.2870
   endloop
 endfacet
 facet normal 0.0285 -0.9565 0.2903
   outer loop
     vertex -0.0571 -4.5288 -0.2870
     vertex -0.1120 -4.6142 -0.5630
     vertex 0.0000 -4.6142 -0.5740
   endloop
 endfacet
 facet normal -0.0096 -0.9951 0.0980
   outer loop
     vertex 0.0000 -4.5288 -0.2926
     vertex 0.0571 -4.5288 -0.2870
     vertex 0.0000 -4.5000 -0.0000
   endloop
 endfacet
 facet normal -0.0844 -0.9565 0.2793
   outer loop
     vertex 0.2197 -4.6142 -0.5303
     vertex 0.1120 -4.5288 -0.2704
     vertex 0.0571 -4.5288 -0.2870
   endloop
 endfacet
 facet normal -0.0847 -0.9565 0.2791
   outer loop
     vertex 0.0571 -4.5288 -0.2870
     vertex 0.1120 -4.6142 -0.5630
     vertex 0.2197 -4.6142 -0.5303
   endloop
 endfacet
 facet normal -0.2230 -0.8810 0.4173
   outer loop
     vertex 0.4630 -4.7528 -0.6929
     vertex 0.3189 -4.6142 -0.4773
     vertex 0.2197 -4.6142 -0.5303
   endloop
 endfacet
 facet normal -0.2230 -0.8810 0.4173
   outer loop
     vertex 0.2197 -4.6142 -0.5303
     vertex 0.3189 -4.7528 -0.7699
     vertex 0.4630 -4.7528 -0.6929
   endloop
 endfacet
 facet normal -0.4035 -0.7715 0.4919
   outer loop
     vertex 0.7500 -4.9393 -0.7500
     vertex 0.5893 -4.7528 -0.5893
     vertex 0.4630 -4.7528 -0.6929
   endloop
 endfacet
 facet normal -0.4036 -0.7716 0.4917
   outer loop
     vertex 0.4630 -4.7528 -0.6929
     vertex 0.5893 -4.9393 -0.8819
     vertex 0.7500 -4.9393 -0.7500
   endloop
 endfacet
 facet normal -0.5987 -0.6325 0.4914
   outer loop
     vertex 1.0370 -5.1666 -0.6929
     vertex 0.8819 -4.9393 -0.5893
     vertex 0.7500 -4.9393 -0.7500
   endloop
 endfacet
 facet normal -0.5987 -0.6326 0.4913
   outer loop
     vertex 0.7500 -4.9393 -0.7500
     vertex 0.8819 -5.1666 -0.8819
     vertex 1.0370 -5.1666 -0.6929
   endloop
 endfacet
 facet normal -0.7787 -0.4693 0.4164
   outer loop
     vertex 1.2803 -5.4260 -0.5303
     vertex 1.1523 -5.1666 -0.4773
     vertex 1.0370 -5.1666 -0.6929
   endloop
 endfacet
 facet normal -0.7787 -0.4696 0.4160
   outer loop
     vertex 1.0370 -5.1666 -0.6929
     vertex 1.1523 -5.4260 -0.7699
     vertex 1.2803 -5.4260 -0.5303
   endloop
 endfacet
 facet normal -0.9161 -0.2889 0.2781
   outer loop
     vertex 1.4429 -5.7074 -0.2870
     vertex 1.3592 -5.4260 -0.2704
     vertex 1.2803 -5.4260 -0.5303
   endloop
 endfacet
 facet normal -0.9161 -0.2891 0.2778
   outer loop
     vertex 1.2803 -5.4260 -0.5303
     vertex 1.3592 -5.7074 -0.5630
     vertex 1.4429 -5.7074 -0.2870
   endloop
 endfacet
 facet normal -0.9904 -0.0975 0.0977
   outer loop
     vertex 1.5000 -6.0000 -0.0000
     vertex 1.4712 -5.7074 -0.0000
     vertex 1.4429 -5.7074 -0.2870
   endloop
 endfacet
 facet normal -0.9904 -0.0977 0.0975
   outer loop
     vertex 1.4429 -5.7074 -0.2870
     vertex 1.4712 -6.0000 -0.2926
     vertex 1.5000 -6.0000 -0.0000
   endloop
 endfacet
 facet normal 0.9904 -0.0977 0.0977
   outer loop
     vertex -1.4712 -6.0000 -0.2926
     vertex -1.4429 -5.7074 -0.2870
     vertex -1.4712 -5.7074 -0.0000
   endloop
 endfacet
 facet normal 0.9905 -0.0975 0.0975
   outer loop
     vertex -1.4712 -5.7074 -0.0000
     vertex -1.5000 -6.0000 -0.0000
     vertex -1.4712 -6.0000 -0.2926
   endloop
 endfacet
 facet normal 0.9160 -0.2891 0.2781
   outer loop
     vertex -1.3592 -5.7074 -0.5630
     vertex -1.2803 -5.4260 -0.5303
     vertex -1.3592 -5.4260 -0.2704
   endloop
 endfacet
 facet normal 0.9162 -0.2889 0.2778
   outer loop
     vertex -1.3592 -5.4260 -0.2704
     vertex -1.4429 -5.7074 -0.2870
     vertex -1.3592 -5.7074 -0.5630
   endloop
 endfacet
 facet normal 0.7785 -0.4696 0.4163
   outer loop
     vertex -1.1523 -5.4260 -0.7699
     vertex -1.0370 -5.1666 -0.6929
     vertex -1.1523 -5.1666 -0.4773
   endloop
 endfacet
 facet normal 0.7788 -0.4693 0.4161
   outer loop
     vertex -1.1523 -5.1666 -0.4773
     vertex -1.2803 -5.4260 -0.5303
     vertex -1.1523 -5.4260 -0.7699
   endloop
 endfacet
 facet normal 0.5987 -0.6326 0.4914
   outer loop
     vertex -0.8819 -5.1666 -0.8819
     vertex -0.7500 -4.9393 -0.7500
     vertex -0.8819 -4.9393 -0.5893
   endloop
 endfacet
 facet normal 0.5987 -0.6325 0.4914
   outer loop
     vertex -0.8819 -4.9393 -0.5893
     vertex -1.0370 -5.1666 -0.6929
     vertex -0.8819 -5.1666 -0.8819
   endloop
 endfacet
 facet normal 0.4034 -0.7716 0.4918
   outer loop
     vertex -0.5893 -4.9393 -0.8819
     vertex -0.4630 -4.7528 -0.6929
     vertex -0.5893 -4.7528 -0.5893
   endloop
 endfacet
 facet normal 0.4036 -0.7715 0.4918
   outer loop
     vertex -0.5893 -4.7528 -0.5893
     vertex -0.7500 -4.9393 -0.7500
     vertex -0.5893 -4.9393 -0.8819
   endloop
 endfacet
 facet normal 0.2230 -0.8810 0.4173
   outer loop
     vertex -0.3189 -4.7528 -0.7699
     vertex -0.2197 -4.6142 -0.5303
     vertex -0.3189 -4.6142 -0.4773
   endloop
 endfacet
 facet normal 0.2230 -0.8810 0.4173
   outer loop
     vertex -0.3189 -4.6142 -0.4773
     vertex -0.4630 -4.7528 -0.6929
     vertex -0.3189 -4.7528 -0.7699
   endloop
 endfacet
 facet normal 0.0844 -0.9565 0.2792
   outer loop
     vertex -0.1120 -4.6142 -0.5630
     vertex -0.0571 -4.5288 -0.2870
     vertex -0.1120 -4.5288 -0.2704
   endloop
 endfacet
 facet normal 0.0848 -0.9565 0.2792
   outer loop
     vertex -0.1120 -4.5288 -0.2704
     vertex -0.2197 -4.6142 -0.5303
     vertex -0.1120 -4.6142 -0.5630
   endloop
 endfacet
 facet normal 0.0096 -0.9951 0.0980
   outer loop
     vertex -0.0571 -4.5288 -0.2870
     vertex 0.0000 -4.5288 -0.2926
     vertex 0.0000 -4.5000 -0.0000
   endloop
 endfacet
 facet normal -0.0285 -0.9951 0.0942
   outer loop
     vertex 0.0571 -4.5288 -0.2870
     vertex 0.1120 -4.5288 -0.2704
     vertex 0.0000 -4.5000 -0.0000
   endloop
 endfacet
 facet normal -0.1377 -0.9565 0.2571
   outer loop
     vertex 0.3189 -4.6142 -0.4773
     vertex 0.1626 -4.5288 -0.2433
     vertex 0.1120 -4.5288 -0.2704
   endloop
 endfacet
 facet normal -0.1375 -0.9565 0.2573
   outer loop
     vertex 0.1120 -4.5288 -0.2704
     vertex 0.2197 -4.6142 -0.5303
     vertex 0.3189 -4.6142 -0.4773
   endloop
 endfacet
 facet normal -0.3001 -0.8810 0.3657
   outer loop
     vertex 0.5893 -4.7528 -0.5893
     vertex 0.4059 -4.6142 -0.4059
     vertex 0.3189 -4.6142 -0.4773
   endloop
 endfacet
 facet normal -0.3001 -0.8810 0.3658
   outer loop
     vertex 0.3189 -4.6142 -0.4773
     vertex 0.4630 -4.7528 -0.6929
     vertex 0.5893 -4.7528 -0.5893
   endloop
 endfacet
 facet normal -0.4918 -0.7716 0.4034
   outer loop
     vertex 0.8819 -4.9393 -0.5893
     vertex 0.6929 -4.7528 -0.4630
     vertex 0.5893 -4.7528 -0.5893
   endloop
 endfacet
 facet normal -0.4918 -0.7715 0.4036
   outer loop
     vertex 0.5893 -4.7528 -0.5893
     vertex 0.7500 -4.9393 -0.7500
     vertex 0.8819 -4.9393 -0.5893
   endloop
 endfacet
 facet normal -0.6830 -0.6327 0.3650
   outer loop
     vertex 1.1523 -5.1666 -0.4773
     vertex 0.9799 -4.9393 -0.4059
     vertex 0.8819 -4.9393 -0.5893
   endloop
 endfacet
 facet normal -0.6830 -0.6325 0.3653
   outer loop
     vertex 0.8819 -4.9393 -0.5893
     vertex 1.0370 -5.1666 -0.6929
     vertex 1.1523 -5.1666 -0.4773
   endloop
 endfacet
 facet normal -0.8449 -0.4697 0.2560
   outer loop
     vertex 1.3592 -5.4260 -0.2704
     vertex 1.2232 -5.1666 -0.2433
     vertex 1.1523 -5.1666 -0.4773
   endloop
 endfacet
 facet normal -0.8449 -0.4693 0.2565
   outer loop
     vertex 1.1523 -5.1666 -0.4773
     vertex 1.2803 -5.4260 -0.5303
     vertex 1.3592 -5.4260 -0.2704
   endloop
 endfacet
 facet normal -0.9527 -0.2891 0.0937
   outer loop
     vertex 1.4712 -5.7074 -0.0000
     vertex 1.3858 -5.4260 -0.0000
     vertex 1.3592 -5.4260 -0.2704
   endloop
 endfacet
 facet normal -0.9527 -0.2889 0.0939
   outer loop
     vertex 1.3592 -5.4260 -0.2704
     vertex 1.4429 -5.7074 -0.2870
     vertex 1.4712 -5.7074 -0.0000
   endloop
 endfacet
 facet normal -0.9904 -0.0977 -0.0977
   outer loop
     vertex 1.4712 -6.0000 0.2926
     vertex 1.4429 -5.7074 0.2870
     vertex 1.4712 -5.7074 -0.0000
   endloop
 endfacet
 facet normal -0.9905 -0.0975 -0.0975
   outer loop
     vertex 1.4712 -5.7074 -0.0000
     vertex 1.5000 -6.0000 -0.0000
     vertex 1.4712 -6.0000 0.2926
   endloop
 endfacet
 facet normal 0.9904 -0.0975 -0.0977
   outer loop
     vertex -1.5000 -6.0000 -0.0000
     vertex -1.4712 -5.7074 -0.0000
     vertex -1.4429 -5.7074 0.2870
   endloop
 endfacet
 facet normal 0.9904 -0.0977 -0.0975
   outer loop
     vertex -1.4429 -5.7074 0.2870
     vertex -1.4712 -6.0000 0.2926
     vertex -1.5000 -6.0000 -0.0000
   endloop
 endfacet
 facet normal 0.9528 -0.2889 0.0937
   outer loop
     vertex -1.4429 -5.7074 -0.2870
     vertex -1.3592 -5.4260 -0.2704
     vertex -1.3858 -5.4260 -0.0000
   endloop
 endfacet
 facet normal 0.9527 -0.2891 0.0939
   outer loop
     vertex -1.3858 -5.4260 -0.0000
     vertex -1.4712 -5.7074 -0.0000
     vertex -1.4429 -5.7074 -0.2870
   endloop
 endfacet
 facet normal 0.8451 -0.4693 0.2561
   outer loop
     vertex -1.2803 -5.4260 -0.5303
     vertex -1.1523 -5.1666 -0.4773
     vertex -1.2232 -5.1666 -0.2433
   endloop
 endfacet
 facet normal 0.8448 -0.4697 0.2565
   outer loop
     vertex -1.2232 -5.1666 -0.2433
     vertex -1.3592 -5.4260 -0.2704
     vertex -1.2803 -5.4260 -0.5303
   endloop
 endfacet
 facet normal 0.6831 -0.6325 0.3650
   outer loop
     vertex -1.0370 -5.1666 -0.6929
     vertex -0.8819 -4.9393 -0.5893
     vertex -0.9799 -4.9393 -0.4059
   endloop
 endfacet
 facet normal 0.6829 -0.6327 0.3652
   outer loop
     vertex -0.9799 -4.9393 -0.4059
     vertex -1.1523 -5.1666 -0.4773
     vertex -1.0370 -5.1666 -0.6929
   endloop
 endfacet
 facet normal 0.4919 -0.7715 0.4035
   outer loop
     vertex -0.7500 -4.9393 -0.7500
     vertex -0.5893 -4.7528 -0.5893
     vertex -0.6929 -4.7528 -0.4630
   endloop
 endfacet
 facet normal 0.4917 -0.7716 0.4036
   outer loop
     vertex -0.6929 -4.7528 -0.4630
     vertex -0.8819 -4.9393 -0.5893
     vertex -0.7500 -4.9393 -0.7500
   endloop
 endfacet
 facet normal 0.3002 -0.8810 0.3657
   outer loop
     vertex -0.4630 -4.7528 -0.6929
     vertex -0.3189 -4.6142 -0.4773
     vertex -0.4059 -4.6142 -0.4059
   endloop
 endfacet
 facet normal 0.3000 -0.8810 0.3658
   outer loop
     vertex -0.4059 -4.6142 -0.4059
     vertex -0.5893 -4.7528 -0.5893
     vertex -0.4630 -4.7528 -0.6929
   endloop
 endfacet
 facet normal 0.1378 -0.9565 0.2572
   outer loop
     vertex -0.2197 -4.6142 -0.5303
     vertex -0.1120 -4.5288 -0.2704
     vertex -0.1626 -4.5288 -0.2433
   endloop
 endfacet
 facet normal 0.1375 -0.9565 0.2573
   outer loop
     vertex -0.1626 -4.5288 -0.2433
     vertex -0.3189 -4.6142 -0.4773
     vertex -0.2197 -4.6142 -0.5303
   endloop
 endfacet
 facet normal 0.0285 -0.9951 0.0942
   outer loop
     vertex -0.1120 -4.5288 -0.2704
     vertex -0.0571 -4.5288 -0.2870
     vertex 0.0000 -4.5000 -0.0000
   endloop
 endfacet
 facet normal -0.0465 -0.9951 0.0867
   outer loop
     vertex 0.1120 -4.5288 -0.2704
     vertex 0.1626 -4.5288 -0.2433
     vertex 0.0000 -4.5000 -0.0000
   endloop
 endfacet
 facet normal -0.1852 -0.9565 0.2253
   outer loop
     vertex 0.4059 -4.6142 -0.4059
     vertex 0.2069 -4.5288 -0.2069
     vertex 0.1626 -4.5288 -0.2433
   endloop
 endfacet
 facet normal -0.1851 -0.9565 0.2255
   outer loop
     vertex 0.1626 -4.5288 -0.2433
     vertex 0.3189 -4.6142 -0.4773
     vertex 0.4059 -4.6142 -0.4059
   endloop
 endfacet
 facet normal -0.3657 -0.8810 0.3002
   outer loop
     vertex 0.6929 -4.7528 -0.4630
     vertex 0.4773 -4.6142 -0.3189
     vertex 0.4059 -4.6142 -0.4059
   endloop
 endfacet
 facet normal -0.3658 -0.8810 0.3000
   outer loop
     vertex 0.4059 -4.6142 -0.4059
     vertex 0.5893 -4.7528 -0.5893
     vertex 0.6929 -4.7528 -0.4630
   endloop
 endfacet
 facet normal -0.5610 -0.7716 0.2998
   outer loop
     vertex 0.9799 -4.9393 -0.4059
     vertex 0.7699 -4.7528 -0.3189
     vertex 0.6929 -4.7528 -0.4630
   endloop
 endfacet
 facet normal -0.5610 -0.7716 0.2998
   outer loop
     vertex 0.6929 -4.7528 -0.4630
     vertex 0.8819 -4.9393 -0.5893
     vertex 0.9799 -4.9393 -0.4059
   endloop
 endfacet
 facet normal -0.7412 -0.6325 0.2250
   outer loop
     vertex 1.2232 -5.1666 -0.2433
     vertex 1.0403 -4.9393 -0.2069
     vertex 0.9799 -4.9393 -0.4059
   endloop
 endfacet
 facet normal -0.7411 -0.6327 0.2246
   outer loop
     vertex 0.9799 -4.9393 -0.4059
     vertex 1.1523 -5.1666 -0.4773
     vertex 1.2232 -5.1666 -0.2433
   endloop
 endfacet
 facet normal -0.8787 -0.4695 0.0867
   outer loop
     vertex 1.3858 -5.4260 -0.0000
     vertex 1.2472 -5.1666 -0.0000
     vertex 1.2232 -5.1666 -0.2433
   endloop
 endfacet
 facet normal -0.8786 -0.4697 0.0864
   outer loop
     vertex 1.2232 -5.1666 -0.2433
     vertex 1.3592 -5.4260 -0.2704
     vertex 1.3858 -5.4260 -0.0000
   endloop
 endfacet
 facet normal -0.9528 -0.2889 -0.0937
   outer loop
     vertex 1.4429 -5.7074 0.2870
     vertex 1.3592 -5.4260 0.2704
     vertex 1.3858 -5.4260 -0.0000
   endloop
 endfacet
 facet normal -0.9527 -0.2891 -0.0939
   outer loop
     vertex 1.3858 -5.4260 -0.0000
     vertex 1.4712 -5.7074 -0.0000
     vertex 1.4429 -5.7074 0.2870
   endloop
 endfacet
 facet normal -0.9524 -0.0974 -0.2888
   outer loop
     vertex 1.3858 -6.0000 0.5740
     vertex 1.3592 -5.7074 0.5630
     vertex 1.4429 -5.7074 0.2870
   endloop
 endfacet
 facet normal -0.9523 -0.0976 -0.2890
   outer loop
     vertex 1.4429 -5.7074 0.2870
     vertex 1.4712 -6.0000 0.2926
     vertex 1.3858 -6.0000 0.5740
   endloop
 endfacet
 facet normal 0.9524 -0.0976 -0.2888
   outer loop
     vertex -1.4712 -6.0000 0.2926
     vertex -1.4429 -5.7074 0.2870
     vertex -1.3592 -5.7074 0.5630
   endloop
 endfacet
 facet normal 0.9524 -0.0974 -0.2890
   outer loop
     vertex -1.3592 -5.7074 0.5630
     vertex -1.3858 -6.0000 0.5740
     vertex -1.4712 -6.0000 0.2926
   endloop
 endfacet
 facet normal 0.9527 -0.2891 -0.0937
   outer loop
     vertex -1.4712 -5.7074 -0.0000
     vertex -1.3858 -5.4260 -0.0000
     vertex -1.3592 -5.4260 0.2704
   endloop
 endfacet
 facet normal 0.9527 -0.2889 -0.0939
   outer loop
     vertex -1.3592 -5.4260 0.2704
     vertex -1.4429 -5.7074 0.2870
     vertex -1.4712 -5.7074 -0.0000
   endloop
 endfacet
 facet normal 0.8786 -0.4697 0.0867
   outer loop
     vertex -1.3592 -5.4260 -0.2704
     vertex -1.2232 -5.1666 -0.2433
     vertex -1.2472 -5.1666 -0.0000
   endloop
 endfacet
 facet normal 0.8787 -0.4695 0.0864
   outer loop
     vertex -1.2472 -5.1666 -0.0000
     vertex -1.3858 -5.4260 -0.0000
     vertex -1.3592 -5.4260 -0.2704
   endloop
 endfacet
 facet normal 0.7410 -0.6327 0.2249
   outer loop
     vertex -1.1523 -5.1666 -0.4773
     vertex -0.9799 -4.9393 -0.4059
     vertex -1.0403 -4.9393 -0.2069
   endloop
 endfacet
 facet normal 0.7413 -0.6325 0.2246
   outer loop
     vertex -1.0403 -4.9393 -0.2069
     vertex -1.2232 -5.1666 -0.2433
     vertex -1.1523 -5.1666 -0.4773
   endloop
 endfacet
 facet normal 0.5610 -0.7716 0.2998
   outer loop
     vertex -0.8819 -4.9393 -0.5893
     vertex -0.6929 -4.7528 -0.4630
     vertex -0.7699 -4.7528 -0.3189
   endloop
 endfacet
 facet normal 0.5610 -0.7716 0.2998
   outer loop
     vertex -0.7699 -4.7528 -0.3189
     vertex -0.9799 -4.9393 -0.4059
     vertex -0.8819 -4.9393 -0.5893
   endloop
 endfacet
 facet normal 0.3657 -0.8810 0.3001
   outer loop
     vertex -0.5893 -4.7528 -0.5893
     vertex -0.4059 -4.6142 -0.4059
     vertex -0.4773 -4.6142 -0.3189
   endloop
 endfacet
 facet normal 0.3658 -0.8810 0.3001
   outer loop
     vertex -0.4773 -4.6142 -0.3189
     vertex -0.6929 -4.7528 -0.4630
     vertex -0.5893 -4.7528 -0.5893
   endloop
 endfacet
 facet normal 0.1852 -0.9565 0.2254
   outer loop
     vertex -0.3189 -4.6142 -0.4773
     vertex -0.1626 -4.5288 -0.2433
     vertex -0.2069 -4.5288 -0.2069
   endloop
 endfacet
 facet normal 0.1850 -0.9565 0.2255
   outer loop
     vertex -0.2069 -4.5288 -0.2069
     vertex -0.4059 -4.6142 -0.4059
     vertex -0.3189 -4.6142 -0.4773
   endloop
 endfacet
 facet normal 0.0465 -0.9951 0.0867
   outer loop
     vertex -0.1626 -4.5288 -0.2433
     vertex -0.1120 -4.5288 -0.2704
     vertex 0.0000 -4.5000 -0.0000
   endloop
 endfacet
 facet normal -0.0625 -0.9951 0.0760
   outer loop
     vertex 0.1626 -4.5288 -0.2433
     vertex 0.2069 -4.5288 -0.2069
     vertex 0.0000 -4.5000 -0.0000
   endloop
 endfacet
 facet normal -0.2254 -0.9565 0.1852
   outer loop
     vertex 0.4773 -4.6142 -0.3189
     vertex 0.2433 -4.5288 -0.1626
     vertex 0.2069 -4.5288 -0.2069
   endloop
 endfacet
 facet normal -0.2255 -0.9565 0.1850
   outer loop
     vertex 0.2069 -4.5288 -0.2069
     vertex 0.4059 -4.6142 -0.4059
     vertex 0.4773 -4.6142 -0.3189
   endloop
 endfacet
 facet normal -0.4173 -0.8810 0.2230
   outer loop
     vertex 0.7699 -4.7528 -0.3189
     vertex 0.5303 -4.6142 -0.2197
     vertex 0.4773 -4.6142 -0.3189
   endloop
 endfacet
 facet normal -0.4173 -0.8810 0.2230
   outer loop
     vertex 0.4773 -4.6142 -0.3189
     vertex 0.6929 -4.7528 -0.4630
     vertex 0.7699 -4.7528 -0.3189
   endloop
 endfacet
 facet normal -0.6087 -0.7716 0.1846
   outer loop
     vertex 1.0403 -4.9393 -0.2069
     vertex 0.8173 -4.7528 -0.1626
     vertex 0.7699 -4.7528 -0.3189
   endloop
 endfacet
 facet normal -0.6087 -0.7716 0.1848
   outer loop
     vertex 0.7699 -4.7528 -0.3189
     vertex 0.9799 -4.9393 -0.4059
     vertex 1.0403 -4.9393 -0.2069
   endloop
 endfacet
 facet normal -0.7708 -0.6325 0.0760
   outer loop
     vertex 1.2472 -5.1666 -0.0000
     vertex 1.0607 -4.9393 -0.0000
     vertex 1.0403 -4.9393 -0.2069
   endloop
 endfacet
 facet normal -0.7709 -0.6325 0.0760
   outer loop
     vertex 1.0403 -4.9393 -0.2069
     vertex 1.2232 -5.1666 -0.2433
     vertex 1.2472 -5.1666 -0.0000
   endloop
 endfacet
 facet normal -0.8786 -0.4697 -0.0867
   outer loop
     vertex 1.3592 -5.4260 0.2704
     vertex 1.2232 -5.1666 0.2433
     vertex 1.2472 -5.1666 -0.0000
   endloop
 endfacet
 facet normal -0.8787 -0.4695 -0.0864
   outer loop
     vertex 1.2472 -5.1666 -0.0000
     vertex 1.3858 -5.4260 -0.0000
     vertex 1.3592 -5.4260 0.2704
   endloop
 endfacet
 facet normal -0.9160 -0.2891 -0.2781
   outer loop
     vertex 1.3592 -5.7074 0.5630
     vertex 1.2803 -5.4260 0.5303
     vertex 1.3592 -5.4260 0.2704
   endloop
 endfacet
 facet normal -0.9162 -0.2889 -0.2778
   outer loop
     vertex 1.3592 -5.4260 0.2704
     vertex 1.4429 -5.7074 0.2870
     vertex 1.3592 -5.7074 0.5630
   endloop
 endfacet
 facet normal -0.8776 -0.0978 -0.4693
   outer loop
     vertex 1.2472 -6.0000 0.8334
     vertex 1.2232 -5.7074 0.8173
     vertex 1.3592 -5.7074 0.5630
   endloop
 endfacet
 facet normal -0.8778 -0.0974 -0.4690
   outer loop
     vertex 1.3592 -5.7074 0.5630
     vertex 1.3858 -6.0000 0.5740
     vertex 1.2472 -6.0000 0.8334
   endloop
 endfacet
 facet normal 0.8776 -0.0974 -0.4694
   outer loop
     vertex -1.3858 -6.0000 0.5740
     vertex -1.3592 -5.7074 0.5630
     vertex -1.2232 -5.7074 0.8173
   endloop
 endfacet
 facet normal 0.8778 -0.0978 -0.4690
   outer loop
     vertex -1.2232 -5.7074 0.8173
     vertex -1.2472 -6.0000 0.8334
     vertex -1.3858 -6.0000 0.5740
   endloop
 endfacet
 facet normal 0.9161 -0.2889 -0.2781
   outer loop
     vertex -1.4429 -5.7074 0.2870
     vertex -1.3592 -5.4260 0.2704
     vertex -1.2803 -5.4260 0.5303
   endloop
 endfacet
 facet normal 0.9161 -0.2891 -0.2778
   outer loop
     vertex -1.2803 -5.4260 0.5303
     vertex -1.3592 -5.7074 0.5630
     vertex -1.4429 -5.7074 0.2870
   endloop
 endfacet
 facet normal 0.8787 -0.4695 -0.0867
   outer loop
     vertex -1.3858 -5.4260 -0.0000
     vertex -1.2472 -5.1666 -0.0000
     vertex -1.2232 -5.1666 0.2433
   endloop
 endfacet
 facet normal 0.8786 -0.4697 -0.0864
   outer loop
     vertex -1.2232 -5.1666 0.2433
     vertex -1.3592 -5.4260 0.2704
     vertex -1.3858 -5.4260 -0.0000
   endloop
 endfacet
 facet normal 0.7709 -0.6325 0.0760
   outer loop
     vertex -1.2232 -5.1666 -0.2433
     vertex -1.0403 -4.9393 -0.2069
     vertex -1.0607 -4.9393 -0.0000
   endloop
 endfacet
 facet normal 0.7708 -0.6325 0.0760
   outer loop
     vertex -1.0607 -4.9393 -0.0000
     vertex -1.2472 -5.1666 -0.0000
     vertex -1.2232 -5.1666 -0.2433
   endloop
 endfacet
 facet normal 0.6088 -0.7716 0.1846
   outer loop
     vertex -0.9799 -4.9393 -0.4059
     vertex -0.7699 -4.7528 -0.3189
     vertex -0.8173 -4.7528 -0.1626
   endloop
 endfacet
 facet normal 0.6086 -0.7716 0.1847
   outer loop
     vertex -0.8173 -4.7528 -0.1626
     vertex -1.0403 -4.9393 -0.2069
     vertex -0.9799 -4.9393 -0.4059
   endloop
 endfacet
 facet normal 0.4173 -0.8810 0.2230
   outer loop
     vertex -0.6929 -4.7528 -0.4630
     vertex -0.4773 -4.6142 -0.3189
     vertex -0.5303 -4.6142 -0.2197
   endloop
 endfacet
 facet normal 0.4173 -0.8810 0.2230
   outer loop
     vertex -0.5303 -4.6142 -0.2197
     vertex -0.7699 -4.7528 -0.3189
     vertex -0.6929 -4.7528 -0.4630
   endloop
 endfacet
 facet normal 0.2253 -0.9565 0.1852
   outer loop
     vertex -0.4059 -4.6142 -0.4059
     vertex -0.2069 -4.5288 -0.2069
     vertex -0.2433 -4.5288 -0.1626
   endloop
 endfacet
 facet normal 0.2255 -0.9565 0.1851
   outer loop
     vertex -0.2433 -4.5288 -0.1626
     vertex -0.4773 -4.6142 -0.3189
     vertex -0.4059 -4.6142 -0.4059
   endloop
 endfacet
 facet normal 0.0625 -0.9951 0.0760
   outer loop
     vertex -0.2069 -4.5288 -0.2069
     vertex -0.1626 -4.5288 -0.2433
     vertex 0.0000 -4.5000 -0.0000
   endloop
 endfacet
 facet normal -0.0760 -0.9951 0.0625
   outer loop
     vertex 0.2069 -4.5288 -0.2069
     vertex 0.2433 -4.5288 -0.1626
     vertex 0.0000 -4.5000 -0.0000
   endloop
 endfacet
 facet normal -0.2572 -0.9565 0.1378
   outer loop
     vertex 0.5303 -4.6142 -0.2197
     vertex 0.2704 -4.5288 -0.1120
     vertex 0.2433 -4.5288 -0.1626
   endloop
 endfacet
 facet normal -0.2573 -0.9565 0.1375
   outer loop
     vertex 0.2433 -4.5288 -0.1626
     vertex 0.4773 -4.6142 -0.3189
     vertex 0.5303 -4.6142 -0.2197
   endloop
 endfacet
 facet normal -0.4528 -0.8810 0.1375
   outer loop
     vertex 0.8173 -4.7528 -0.1626
     vertex 0.5630 -4.6142 -0.1120
     vertex 0.5303 -4.6142 -0.2197
   endloop
 endfacet
 facet normal -0.4528 -0.8810 0.1373
   outer loop
     vertex 0.5303 -4.6142 -0.2197
     vertex 0.7699 -4.7528 -0.3189
     vertex 0.8173 -4.7528 -0.1626
   endloop
 endfacet
 facet normal -0.6331 -0.7716 0.0627
   outer loop
     vertex 1.0607 -4.9393 -0.0000
     vertex 0.8334 -4.7528 -0.0000
     vertex 0.8173 -4.7528 -0.1626
   endloop
 endfacet
 facet normal -0.6330 -0.7717 0.0624
   outer loop
     vertex 0.8173 -4.7528 -0.1626
     vertex 1.0403 -4.9393 -0.2069
     vertex 1.0607 -4.9393 -0.0000
   endloop
 endfacet
 facet normal -0.7709 -0.6325 -0.0760
   outer loop
     vertex 1.2232 -5.1666 0.2433
     vertex 1.0403 -4.9393 0.2069
     vertex 1.0607 -4.9393 -0.0000
   endloop
 endfacet
 facet normal -0.7708 -0.6325 -0.0760
   outer loop
     vertex 1.0607 -4.9393 -0.0000
     vertex 1.2472 -5.1666 -0.0000
     vertex 1.2232 -5.1666 0.2433
   endloop
 endfacet
 facet normal -0.8451 -0.4693 -0.2561
   outer loop
     vertex 1.2803 -5.4260 0.5303
     vertex 1.1523 -5.1666 0.4773
     vertex 1.2232 -5.1666 0.2433
   endloop
 endfacet
 facet normal -0.8448 -0.4697 -0.2565
   outer loop
     vertex 1.2232 -5.1666 0.2433
     vertex 1.3592 -5.4260 0.2704
     vertex 1.2803 -5.4260 0.5303
   endloop
 endfacet
 facet normal -0.8445 -0.2888 -0.4511
   outer loop
     vertex 1.2232 -5.7074 0.8173
     vertex 1.1523 -5.4260 0.7699
     vertex 1.2803 -5.4260 0.5303
   endloop
 endfacet
 facet normal -0.8441 -0.2891 -0.4515
   outer loop
     vertex 1.2803 -5.4260 0.5303
     vertex 1.3592 -5.7074 0.5630
     vertex 1.2232 -5.7074 0.8173
   endloop
 endfacet
 facet normal -0.7695 -0.0977 -0.6311
   outer loop
     vertex 1.0607 -6.0000 1.0607
     vertex 1.0403 -5.7074 1.0403
     vertex 1.2232 -5.7074 0.8173
   endloop
 endfacet
 facet normal -0.7694 -0.0978 -0.6313
   outer loop
     vertex 1.2232 -5.7074 0.8173
     vertex 1.2472 -6.0000 0.8334
     vertex 1.0607 -6.0000 1.0607
   endloop
 endfacet
 facet normal 0.7695 -0.0978 -0.6311
   outer loop
     vertex -1.2472 -6.0000 0.8334
     vertex -1.2232 -5.7074 0.8173
     vertex -1.0403 -5.7074 1.0403
   endloop
 endfacet
 facet normal 0.7694 -0.0977 -0.6313
   outer loop
     vertex -1.0403 -5.7074 1.0403
     vertex -1.0607 -6.0000 1.0607
     vertex -1.2472 -6.0000 0.8334
   endloop
 endfacet
 facet normal 0.8443 -0.2892 -0.4511
   outer loop
     vertex -1.3592 -5.7074 0.5630
     vertex -1.2803 -5.4260 0.5303
     vertex -1.1523 -5.4260 0.7699
   endloop
 endfacet
 facet normal 0.8442 -0.2888 -0.4515
   outer loop
     vertex -1.1523 -5.4260 0.7699
     vertex -1.2232 -5.7074 0.8173
     vertex -1.3592 -5.7074 0.5630
   endloop
 endfacet
 facet normal 0.8449 -0.4697 -0.2560
   outer loop
     vertex -1.3592 -5.4260 0.2704
     vertex -1.2232 -5.1666 0.2433
     vertex -1.1523 -5.1666 0.4773
   endloop
 endfacet
 facet normal 0.8449 -0.4693 -0.2565
   outer loop
     vertex -1.1523 -5.1666 0.4773
     vertex -1.2803 -5.4260 0.5303
     vertex -1.3592 -5.4260 0.2704
   endloop
 endfacet
 facet normal 0.7708 -0.6325 -0.0760
   outer loop
     vertex -1.2472 -5.1666 -0.0000
     vertex -1.0607 -4.9393 -0.0000
     vertex -1.0403 -4.9393 0.2069
   endloop
 endfacet
 facet normal 0.7709 -0.6325 -0.0760
   outer loop
     vertex -1.0403 -4.9393 0.2069
     vertex -1.2232 -5.1666 0.2433
     vertex -1.2472 -5.1666 -0.0000
   endloop
 endfacet
 facet normal 0.6329 -0.7717 0.0627
   outer loop
     vertex -1.0403 -4.9393 -0.2069
     vertex -0.8173 -4.7528 -0.1626
     vertex -0.8334 -4.7528 -0.0000
   endloop
 endfacet
 facet normal 0.6331 -0.7716 0.0624
   outer loop
     vertex -0.8334 -4.7528 -0.0000
     vertex -1.0607 -4.9393 -0.0000
     vertex -1.0403 -4.9393 -0.2069
   endloop
 endfacet
 facet normal 0.4527 -0.8810 0.1375
   outer loop
     vertex -0.7699 -4.7528 -0.3189
     vertex -0.5303 -4.6142 -0.2197
     vertex -0.5630 -4.6142 -0.1120
   endloop
 endfacet
 facet normal 0.4528 -0.8810 0.1373
   outer loop
     vertex -0.5630 -4.6142 -0.1120
     vertex -0.8173 -4.7528 -0.1626
     vertex -0.7699 -4.7528 -0.3189
   endloop
 endfacet
 facet normal 0.2571 -0.9565 0.1377
   outer loop
     vertex -0.4773 -4.6142 -0.3189
     vertex -0.2433 -4.5288 -0.1626
     vertex -0.2704 -4.5288 -0.1120
   endloop
 endfacet
 facet normal 0.2573 -0.9565 0.1375
   outer loop
     vertex -0.2704 -4.5288 -0.1120
     vertex -0.5303 -4.6142 -0.2197
     vertex -0.4773 -4.6142 -0.3189
   endloop
 endfacet
 facet normal 0.0760 -0.9951 0.0625
   outer loop
     vertex -0.2433 -4.5288 -0.1626
     vertex -0.2069 -4.5288 -0.2069
     vertex 0.0000 -4.5000 -0.0000
   endloop
 endfacet
 facet normal -0.0867 -0.9951 0.0465
   outer loop
     vertex 0.2433 -4.5288 -0.1626
     vertex 0.2704 -4.5288 -0.1120
     vertex 0.0000 -4.5000 -0.0000
   endloop
 endfacet
 facet normal -0.2792 -0.9565 0.0844
   outer loop
     vertex 0.5630 -4.6142 -0.1120
     vertex 0.2870 -4.5288 -0.0571
     vertex 0.2704 -4.5288 -0.1120
   endloop
 endfacet
 facet normal -0.2792 -0.9565 0.0848
   outer loop
     vertex 0.2704 -4.5288 -0.1120
     vertex 0.5303 -4.6142 -0.2197
     vertex 0.5630 -4.6142 -0.1120
   endloop
 endfacet
 facet normal -0.4708 -0.8811 0.0462
   outer loop
     vertex 0.8334 -4.7528 -0.0000
     vertex 0.5740 -4.6142 -0.0000
     vertex 0.5630 -4.6142 -0.1120
   endloop
 endfacet
 facet normal -0.4709 -0.8810 0.0466
   outer loop
     vertex 0.5630 -4.6142 -0.1120
     vertex 0.8173 -4.7528 -0.1626
     vertex 0.8334 -4.7528 -0.0000
   endloop
 endfacet
 facet normal -0.6329 -0.7717 -0.0627
   outer loop
     vertex 1.0403 -4.9393 0.2069
     vertex 0.8173 -4.7528 0.1626
     vertex 0.8334 -4.7528 -0.0000
   endloop
 endfacet
 facet normal -0.6331 -0.7716 -0.0624
   outer loop
     vertex 0.8334 -4.7528 -0.0000
     vertex 1.0607 -4.9393 -0.0000
     vertex 1.0403 -4.9393 0.2069
   endloop
 endfacet
 facet normal -0.7410 -0.6327 -0.2249
   outer loop
     vertex 1.1523 -5.1666 0.4773
     vertex 0.9799 -4.9393 0.4059
     vertex 1.0403 -4.9393 0.2069
   endloop
 endfacet
 facet normal -0.7413 -0.6325 -0.2246
   outer loop
     vertex 1.0403 -4.9393 0.2069
     vertex 1.2232 -5.1666 0.2433
     vertex 1.1523 -5.1666 0.4773
   endloop
 endfacet
 facet normal -0.7785 -0.4696 -0.4163
   outer loop
     vertex 1.1523 -5.4260 0.7699
     vertex 1.0370 -5.1666 0.6929
     vertex 1.1523 -5.1666 0.4773
   endloop
 endfacet
 facet normal -0.7788 -0.4693 -0.4161
   outer loop
     vertex 1.1523 -5.1666 0.4773
     vertex 1.2803 -5.4260 0.5303
     vertex 1.1523 -5.4260 0.7699
   endloop
 endfacet
 facet normal -0.7399 -0.2892 -0.6074
   outer loop
     vertex 1.0403 -5.7074 1.0403
     vertex 0.9799 -5.4260 0.9799
     vertex 1.1523 -5.4260 0.7699
   endloop
 endfacet
 facet normal -0.7403 -0.2888 -0.6071
   outer loop
     vertex 1.1523 -5.4260 0.7699
     vertex 1.2232 -5.7074 0.8173
     vertex 1.0403 -5.7074 1.0403
   endloop
 endfacet
 facet normal -0.6311 -0.0978 -0.7695
   outer loop
     vertex 0.8334 -6.0000 1.2472
     vertex 0.8173 -5.7074 1.2232
     vertex 1.0403 -5.7074 1.0403
   endloop
 endfacet
 facet normal -0.6313 -0.0977 -0.7694
   outer loop
     vertex 1.0403 -5.7074 1.0403
     vertex 1.0607 -6.0000 1.0607
     vertex 0.8334 -6.0000 1.2472
   endloop
 endfacet
 facet normal 0.6311 -0.0977 -0.7695
   outer loop
     vertex -1.0607 -6.0000 1.0607
     vertex -1.0403 -5.7074 1.0403
     vertex -0.8173 -5.7074 1.2232
   endloop
 endfacet
 facet normal 0.6313 -0.0978 -0.7694
   outer loop
     vertex -0.8173 -5.7074 1.2232
     vertex -0.8334 -6.0000 1.2472
     vertex -1.0607 -6.0000 1.0607
   endloop
 endfacet
 facet normal 0.7400 -0.2888 -0.6075
   outer loop
     vertex -1.2232 -5.7074 0.8173
     vertex -1.1523 -5.4260 0.7699
     vertex -0.9799 -5.4260 0.9799
   endloop
 endfacet
 facet normal 0.7402 -0.2892 -0.6071
   outer loop
     vertex -0.9799 -5.4260 0.9799
     vertex -1.0403 -5.7074 1.0403
     vertex -1.2232 -5.7074 0.8173
   endloop
 endfacet
 facet normal 0.7787 -0.4693 -0.4164
   outer loop
     vertex -1.2803 -5.4260 0.5303
     vertex -1.1523 -5.1666 0.4773
     vertex -1.0370 -5.1666 0.6929
   endloop
 endfacet
 facet normal 0.7787 -0.4696 -0.4160
   outer loop
     vertex -1.0370 -5.1666 0.6929
     vertex -1.1523 -5.4260 0.7699
     vertex -1.2803 -5.4260 0.5303
   endloop
 endfacet
 facet normal 0.7412 -0.6325 -0.2250
   outer loop
     vertex -1.2232 -5.1666 0.2433
     vertex -1.0403 -4.9393 0.2069
     vertex -0.9799 -4.9393 0.4059
   endloop
 endfacet
 facet normal 0.7411 -0.6327 -0.2246
   outer loop
     vertex -0.9799 -4.9393 0.4059
     vertex -1.1523 -5.1666 0.4773
     vertex -1.2232 -5.1666 0.2433
   endloop
 endfacet
 facet normal 0.6331 -0.7716 -0.0627
   outer loop
     vertex -1.0607 -4.9393 -0.0000
     vertex -0.8334 -4.7528 -0.0000
     vertex -0.8173 -4.7528 0.1626
   endloop
 endfacet
 facet normal 0.6330 -0.7717 -0.0624
   outer loop
     vertex -0.8173 -4.7528 0.1626
     vertex -1.0403 -4.9393 0.2069
     vertex -1.0607 -4.9393 -0.0000
   endloop
 endfacet
 facet normal 0.4709 -0.8810 0.0463
   outer loop
     vertex -0.8173 -4.7528 -0.1626
     vertex -0.5630 -4.6142 -0.1120
     vertex -0.5740 -4.6142 -0.0000
   endloop
 endfacet
 facet normal 0.4707 -0.8810 0.0466
   outer loop
     vertex -0.5740 -4.6142 -0.0000
     vertex -0.8334 -4.7528 -0.0000
     vertex -0.8173 -4.7528 -0.1626
   endloop
 endfacet
 facet normal 0.2793 -0.9565 0.0844
   outer loop
     vertex -0.5303 -4.6142 -0.2197
     vertex -0.2704 -4.5288 -0.1120
     vertex -0.2870 -4.5288 -0.0571
   endloop
 endfacet
 facet normal 0.2791 -0.9565 0.0847
   outer loop
     vertex -0.2870 -4.5288 -0.0571
     vertex -0.5630 -4.6142 -0.1120
     vertex -0.5303 -4.6142 -0.2197
   endloop
 endfacet
 facet normal 0.0867 -0.9951 0.0465
   outer loop
     vertex -0.2704 -4.5288 -0.1120
     vertex -0.2433 -4.5288 -0.1626
     vertex 0.0000 -4.5000 -0.0000
   endloop
 endfacet
 facet normal -0.0942 -0.9951 0.0285
   outer loop
     vertex 0.2704 -4.5288 -0.1120
     vertex 0.2870 -4.5288 -0.0571
     vertex 0.0000 -4.5000 -0.0000
   endloop
 endfacet
 facet normal -0.2903 -0.9565 0.0285
   outer loop
     vertex 0.5740 -4.6142 -0.0000
     vertex 0.2926 -4.5288 -0.0000
     vertex 0.2870 -4.5288 -0.0571
   endloop
 endfacet
 facet normal -0.2903 -0.9565 0.0285
   outer loop
     vertex 0.2870 -4.5288 -0.0571
     vertex 0.5630 -4.6142 -0.1120
     vertex 0.5740 -4.6142 -0.0000
   endloop
 endfacet
 facet normal -0.4709 -0.8810 -0.0463
   outer loop
     vertex 0.8173 -4.7528 0.1626
     vertex 0.5630 -4.6142 0.1120
     vertex 0.5740 -4.6142 -0.0000
   endloop
 endfacet
 facet normal -0.4707 -0.8810 -0.0466
   outer loop
     vertex 0.5740 -4.6142 -0.0000
     vertex 0.8334 -4.7528 -0.0000
     vertex 0.8173 -4.7528 0.1626
   endloop
 endfacet
 facet normal -0.6088 -0.7716 -0.1846
   outer loop
     vertex 0.9799 -4.9393 0.4059
     vertex 0.7699 -4.7528 0.3189
     vertex 0.8173 -4.7528 0.1626
   endloop
 endfacet
 facet normal -0.6086 -0.7716 -0.1847
   outer loop
     vertex 0.8173 -4.7528 0.1626
     vertex 1.0403 -4.9393 0.2069
     vertex 0.9799 -4.9393 0.4059
   endloop
 endfacet
 facet normal -0.6831 -0.6325 -0.3650
   outer loop
     vertex 1.0370 -5.1666 0.6929
     vertex 0.8819 -4.9393 0.5893
     vertex 0.9799 -4.9393 0.4059
   endloop
 endfacet
 facet normal -0.6829 -0.6327 -0.3652
   outer loop
     vertex 0.9799 -4.9393 0.4059
     vertex 1.1523 -5.1666 0.4773
     vertex 1.0370 -5.1666 0.6929
   endloop
 endfacet
 facet normal -0.6825 -0.4695 -0.5601
   outer loop
     vertex 0.9799 -5.4260 0.9799
     vertex 0.8819 -5.1666 0.8819
     vertex 1.0370 -5.1666 0.6929
   endloop
 endfacet
 facet normal -0.6824 -0.4696 -0.5602
   outer loop
     vertex 1.0370 -5.1666 0.6929
     vertex 1.1523 -5.4260 0.7699
     vertex 0.9799 -5.4260 0.9799
   endloop
 endfacet
 facet normal -0.6075 -0.2888 -0.7400
   outer loop
     vertex 0.8173 -5.7074 1.2232
     vertex 0.7699 -5.4260 1.1523
     vertex 0.9799 -5.4260 0.9799
   endloop
 endfacet
 facet normal -0.6071 -0.2892 -0.7402
   outer loop
     vertex 0.9799 -5.4260 0.9799
     vertex 1.0403 -5.7074 1.0403
     vertex 0.8173 -5.7074 1.2232
   endloop
 endfacet
 facet normal -0.4694 -0.0974 -0.8776
   outer loop
     vertex 0.5740 -6.0000 1.3858
     vertex 0.5630 -5.7074 1.3592
     vertex 0.8173 -5.7074 1.2232
   endloop
 endfacet
 facet normal -0.4690 -0.0978 -0.8778
   outer loop
     vertex 0.8173 -5.7074 1.2232
     vertex 0.8334 -6.0000 1.2472
     vertex 0.5740 -6.0000 1.3858
   endloop
 endfacet
 facet normal 0.4693 -0.0978 -0.8776
   outer loop
     vertex -0.8334 -6.0000 1.2472
     vertex -0.8173 -5.7074 1.2232
     vertex -0.5630 -5.7074 1.3592
   endloop
 endfacet
 facet normal 0.4690 -0.0974 -0.8778
   outer loop
     vertex -0.5630 -5.7074 1.3592
     vertex -0.5740 -6.0000 1.3858
     vertex -0.8334 -6.0000 1.2472
   endloop
 endfacet
 facet normal 0.6074 -0.2892 -0.7399
   outer loop
     vertex -1.0403 -5.7074 1.0403
     vertex -0.9799 -5.4260 0.9799
     vertex -0.7699 -5.4260 1.1523
   endloop
 endfacet
 facet normal 0.6071 -0.2888 -0.7403
   outer loop
     vertex -0.7699 -5.4260 1.1523
     vertex -0.8173 -5.7074 1.2232
     vertex -1.0403 -5.7074 1.0403
   endloop
 endfacet
 facet normal 0.6825 -0.4696 -0.5601
   outer loop
     vertex -1.1523 -5.4260 0.7699
     vertex -1.0370 -5.1666 0.6929
     vertex -0.8819 -5.1666 0.8819
   endloop
 endfacet
 facet normal 0.6824 -0.4695 -0.5602
   outer loop
     vertex -0.8819 -5.1666 0.8819
     vertex -0.9799 -5.4260 0.9799
     vertex -1.1523 -5.4260 0.7699
   endloop
 endfacet
 facet normal 0.6830 -0.6327 -0.3650
   outer loop
     vertex -1.1523 -5.1666 0.4773
     vertex -0.9799 -4.9393 0.4059
     vertex -0.8819 -4.9393 0.5893
   endloop
 endfacet
 facet normal 0.6830 -0.6325 -0.3653
   outer loop
     vertex -0.8819 -4.9393 0.5893
     vertex -1.0370 -5.1666 0.6929
     vertex -1.1523 -5.1666 0.4773
   endloop
 endfacet
 facet normal 0.6087 -0.7716 -0.1846
   outer loop
     vertex -1.0403 -4.9393 0.2069
     vertex -0.8173 -4.7528 0.1626
     vertex -0.7699 -4.7528 0.3189
   endloop
 endfacet
 facet normal 0.6087 -0.7716 -0.1848
   outer loop
     vertex -0.7699 -4.7528 0.3189
     vertex -0.9799 -4.9393 0.4059
     vertex -1.0403 -4.9393 0.2069
   endloop
 endfacet
 facet normal 0.4708 -0.8811 -0.0462
   outer loop
     vertex -0.8334 -4.7528 -0.0000
     vertex -0.5740 -4.6142 -0.0000
     vertex -0.5630 -4.6142 0.1120
   endloop
 endfacet
 facet normal 0.4709 -0.8810 -0.0466
   outer loop
     vertex -0.5630 -4.6142 0.1120
     vertex -0.8173 -4.7528 0.1626
     vertex -0.8334 -4.7528 -0.0000
   endloop
 endfacet
 facet normal 0.2903 -0.9565 0.0285
   outer loop
     vertex -0.5630 -4.6142 -0.1120
     vertex -0.2870 -4.5288 -0.0571
     vertex -0.2926 -4.5288 -0.0000
   endloop
 endfacet
 facet normal 0.2903 -0.9565 0.0285
   outer loop
     vertex -0.2926 -4.5288 -0.0000
     vertex -0.5740 -4.6142 -0.0000
     vertex -0.5630 -4.6142 -0.1120
   endloop
 endfacet
 facet normal 0.0942 -0.9951 0.0285
   outer loop
     vertex -0.2870 -4.5288 -0.0571
     vertex -0.2704 -4.5288 -0.1120
     vertex 0.0000 -4.5000 -0.0000
   endloop
 endfacet
 facet normal -0.0980 -0.9951 0.0096
   outer loop
     vertex 0.2870 -4.5288 -0.0571
     vertex 0.2926 -4.5288 -0.0000
     vertex 0.0000 -4.5000 -0.0000
   endloop
 endfacet
 facet normal -0.2903 -0.9565 -0.0285
   outer loop
     vertex 0.5630 -4.6142 0.1120
     vertex 0.2870 -4.5288 0.0571
     vertex 0.2926 -4.5288 -0.0000
   endloop
 endfacet
 facet normal -0.2903 -0.9565 -0.0285
   outer loop
     vertex 0.2926 -4.5288 -0.0000
     vertex 0.5740 -4.6142 -0.0000
     vertex 0.5630 -4.6142 0.1120
   endloop
 endfacet
 facet normal -0.4527 -0.8810 -0.1375
   outer loop
     vertex 0.7699 -4.7528 0.3189
     vertex 0.5303 -4.6142 0.2197
     vertex 0.5630 -4.6142 0.1120
   endloop
 endfacet
 facet normal -0.4528 -0.8810 -0.1373
   outer loop
     vertex 0.5630 -4.6142 0.1120
     vertex 0.8173 -4.7528 0.1626
     vertex 0.7699 -4.7528 0.3189
   endloop
 endfacet
 facet normal -0.5610 -0.7716 -0.2998
   outer loop
     vertex 0.8819 -4.9393 0.5893
     vertex 0.6929 -4.7528 0.4630
     vertex 0.7699 -4.7528 0.3189
   endloop
 endfacet
 facet normal -0.5610 -0.7716 -0.2998
   outer loop
     vertex 0.7699 -4.7528 0.3189
     vertex 0.9799 -4.9393 0.4059
     vertex 0.8819 -4.9393 0.5893
   endloop
 endfacet
 facet normal -0.5987 -0.6326 -0.4914
   outer loop
     vertex 0.8819 -5.1666 0.8819
     vertex 0.7500 -4.9393 0.7500
     vertex 0.8819 -4.9393 0.5893
   endloop
 endfacet
 facet normal -0.5987 -0.6325 -0.4914
   outer loop
     vertex 0.8819 -4.9393 0.5893
     vertex 1.0370 -5.1666 0.6929
     vertex 0.8819 -5.1666 0.8819
   endloop
 endfacet
 facet normal -0.5601 -0.4696 -0.6825
   outer loop
     vertex 0.7699 -5.4260 1.1523
     vertex 0.6929 -5.1666 1.0370
     vertex 0.8819 -5.1666 0.8819
   endloop
 endfacet
 facet normal -0.5602 -0.4695 -0.6824
   outer loop
     vertex 0.8819 -5.1666 0.8819
     vertex 0.9799 -5.4260 0.9799
     vertex 0.7699 -5.4260 1.1523
   endloop
 endfacet
 facet normal -0.4511 -0.2892 -0.8443
   outer loop
     vertex 0.5630 -5.7074 1.3592
     vertex 0.5303 -5.4260 1.2803
     vertex 0.7699 -5.4260 1.1523
   endloop
 endfacet
 facet normal -0.4515 -0.2888 -0.8442
   outer loop
     vertex 0.7699 -5.4260 1.1523
     vertex 0.8173 -5.7074 1.2232
     vertex 0.5630 -5.7074 1.3592
   endloop
 endfacet
 facet normal -0.2888 -0.0976 -0.9524
   outer loop
     vertex 0.2926 -6.0000 1.4712
     vertex 0.2870 -5.7074 1.4429
     vertex 0.5630 -5.7074 1.3592
   endloop
 endfacet
 facet normal -0.2890 -0.0974 -0.9524
   outer loop
     vertex 0.5630 -5.7074 1.3592
     vertex 0.5740 -6.0000 1.3858
     vertex 0.2926 -6.0000 1.4712
   endloop
 endfacet
 facet normal 0.2888 -0.0974 -0.9524
   outer loop
     vertex -0.5740 -6.0000 1.3858
     vertex -0.5630 -5.7074 1.3592
     vertex -0.2870 -5.7074 1.4429
   endloop
 endfacet
 facet normal 0.2890 -0.0976 -0.9523
   outer loop
     vertex -0.2870 -5.7074 1.4429
     vertex -0.2926 -6.0000 1.4712
     vertex -0.5740 -6.0000 1.3858
   endloop
 endfacet
 facet normal 0.4511 -0.2888 -0.8445
   outer loop
     vertex -0.8173 -5.7074 1.2232
     vertex -0.7699 -5.4260 1.1523
     vertex -0.5303 -5.4260 1.2803
   endloop
 endfacet
 facet normal 0.4515 -0.2891 -0.8441
   outer loop
     vertex -0.5303 -5.4260 1.2803
     vertex -0.5630 -5.7074 1.3592
     vertex -0.8173 -5.7074 1.2232
   endloop
 endfacet
 facet normal 0.5601 -0.4695 -0.6825
   outer loop
     vertex -0.9799 -5.4260 0.9799
     vertex -0.8819 -5.1666 0.8819
     vertex -0.6929 -5.1666 1.0370
   endloop
 endfacet
 facet normal 0.5602 -0.4696 -0.6824
   outer loop
     vertex -0.6929 -5.1666 1.0370
     vertex -0.7699 -5.4260 1.1523
     vertex -0.9799 -5.4260 0.9799
   endloop
 endfacet
 facet normal 0.5987 -0.6325 -0.4914
   outer loop
     vertex -1.0370 -5.1666 0.6929
     vertex -0.8819 -4.9393 0.5893
     vertex -0.7500 -4.9393 0.7500
   endloop
 endfacet
 facet normal 0.5987 -0.6326 -0.4913
   outer loop
     vertex -0.7500 -4.9393 0.7500
     vertex -0.8819 -5.1666 0.8819
     vertex -1.0370 -5.1666 0.6929
   endloop
 endfacet
 facet normal 0.5610 -0.7716 -0.2998
   outer loop
     vertex -0.9799 -4.9393 0.4059
     vertex -0.7699 -4.7528 0.3189
     vertex -0.6929 -4.7528 0.4630
   endloop
 endfacet
 facet normal 0.5610 -0.7716 -0.2998
   outer loop
     vertex -0.6929 -4.7528 0.4630
     vertex -0.8819 -4.9393 0.5893
     vertex -0.9799 -4.9393 0.4059
   endloop
 endfacet
 facet normal 0.4528 -0.8810 -0.1375
   outer loop
     vertex -0.8173 -4.7528 0.1626
     vertex -0.5630 -4.6142 0.1120
     vertex -0.5303 -4.6142 0.2197
   endloop
 endfacet
 facet normal 0.4528 -0.8810 -0.1373
   outer loop
     vertex -0.5303 -4.6142 0.2197
     vertex -0.7699 -4.7528 0.3189
     vertex -0.8173 -4.7528 0.1626
   endloop
 endfacet
 facet normal 0.2903 -0.9565 -0.0285
   outer loop
     vertex -0.5740 -4.6142 -0.0000
     vertex -0.2926 -4.5288 -0.0000
     vertex -0.2870 -4.5288 0.0571
   endloop
 endfacet
 facet normal 0.2903 -0.9565 -0.0285
   outer loop
     vertex -0.2870 -4.5288 0.0571
     vertex -0.5630 -4.6142 0.1120
     vertex -0.5740 -4.6142 -0.0000
   endloop
 endfacet
 facet normal 0.0980 -0.9951 0.0096
   outer loop
     vertex -0.2926 -4.5288 -0.0000
     vertex -0.2870 -4.5288 -0.0571
     vertex 0.0000 -4.5000 -0.0000
   endloop
 endfacet
 facet normal -0.0980 -0.9951 -0.0096
   outer loop
     vertex 0.2926 -4.5288 -0.0000
     vertex 0.2870 -4.5288 0.0571
     vertex 0.0000 -4.5000 -0.0000
   endloop
 endfacet
 facet normal -0.2793 -0.9565 -0.0844
   outer loop
     vertex 0.5303 -4.6142 0.2197
     vertex 0.2704 -4.5288 0.1120
     vertex 0.2870 -4.5288 0.0571
   endloop
 endfacet
 facet normal -0.2791 -0.9565 -0.0847
   outer loop
     vertex 0.2870 -4.5288 0.0571
     vertex 0.5630 -4.6142 0.1120
     vertex 0.5303 -4.6142 0.2197
   endloop
 endfacet
 facet normal -0.4173 -0.8810 -0.2230
   outer loop
     vertex 0.6929 -4.7528 0.4630
     vertex 0.4773 -4.6142 0.3189
     vertex 0.5303 -4.6142 0.2197
   endloop
 endfacet
 facet normal -0.4173 -0.8810 -0.2230
   outer loop
     vertex 0.5303 -4.6142 0.2197
     vertex 0.7699 -4.7528 0.3189
     vertex 0.6929 -4.7528 0.4630
   endloop
 endfacet
 facet normal -0.4919 -0.7715 -0.4035
   outer loop
     vertex 0.7500 -4.9393 0.7500
     vertex 0.5893 -4.7528 0.5893
     vertex 0.6929 -4.7528 0.4630
   endloop
 endfacet
 facet normal -0.4917 -0.7716 -0.4036
   outer loop
     vertex 0.6929 -4.7528 0.4630
     vertex 0.8819 -4.9393 0.5893
     vertex 0.7500 -4.9393 0.7500
   endloop
 endfacet
 facet normal -0.4914 -0.6325 -0.5987
   outer loop
     vertex 0.6929 -5.1666 1.0370
     vertex 0.5893 -4.9393 0.8819
     vertex 0.7500 -4.9393 0.7500
   endloop
 endfacet
 facet normal -0.4913 -0.6326 -0.5987
   outer loop
     vertex 0.7500 -4.9393 0.7500
     vertex 0.8819 -5.1666 0.8819
     vertex 0.6929 -5.1666 1.0370
   endloop
 endfacet
 facet normal -0.4164 -0.4693 -0.7787
   outer loop
     vertex 0.5303 -5.4260 1.2803
     vertex 0.4773 -5.1666 1.1523
     vertex 0.6929 -5.1666 1.0370
   endloop
 endfacet
 facet normal -0.4160 -0.4696 -0.7787
   outer loop
     vertex 0.6929 -5.1666 1.0370
     vertex 0.7699 -5.4260 1.1523
     vertex 0.5303 -5.4260 1.2803
   endloop
 endfacet
 facet normal -0.2781 -0.2889 -0.9161
   outer loop
     vertex 0.2870 -5.7074 1.4429
     vertex 0.2704 -5.4260 1.3592
     vertex 0.5303 -5.4260 1.2803
   endloop
 endfacet
 facet normal -0.2778 -0.2891 -0.9161
   outer loop
     vertex 0.5303 -5.4260 1.2803
     vertex 0.5630 -5.7074 1.3592
     vertex 0.2870 -5.7074 1.4429
   endloop
 endfacet
 facet normal -0.0977 -0.0975 -0.9904
   outer loop
     vertex 0.0000 -6.0000 1.5000
     vertex 0.0000 -5.7074 1.4712
     vertex 0.2870 -5.7074 1.4429
   endloop
 endfacet
 facet normal -0.0975 -0.0977 -0.9904
   outer loop
     vertex 0.2870 -5.7074 1.4429
     vertex 0.2926 -6.0000 1.4712
     vertex 0.0000 -6.0000 1.5000
   endloop
 endfacet
 facet normal 0.0977 -0.0977 -0.9904
   outer loop
     vertex -0.2926 -6.0000 1.4712
     vertex -0.2870 -5.7074 1.4429
     vertex 0.0000 -5.7074 1.4712
   endloop
 endfacet
 facet normal 0.0975 -0.0975 -0.9905
   outer loop
     vertex 0.0000 -5.7074 1.4712
     vertex 0.0000 -6.0000 1.5000
     vertex -0.2926 -6.0000 1.4712
   endloop
 endfacet
 facet normal 0.2781 -0.2891 -0.9160
   outer loop
     vertex -0.5630 -5.7074 1.3592
     vertex -0.5303 -5.4260 1.2803
     vertex -0.2704 -5.4260 1.3592
   endloop
 endfacet
 facet normal 0.2778 -0.2889 -0.9162
   outer loop
     vertex -0.2704 -5.4260 1.3592
     vertex -0.2870 -5.7074 1.4429
     vertex -0.5630 -5.7074 1.3592
   endloop
 endfacet
 facet normal 0.4163 -0.4696 -0.7785
   outer loop
     vertex -0.7699 -5.4260 1.1523
     vertex -0.6929 -5.1666 1.0370
     vertex -0.4773 -5.1666 1.1523
   endloop
 endfacet
 facet normal 0.4161 -0.4693 -0.7788
   outer loop
     vertex -0.4773 -5.1666 1.1523
     vertex -0.5303 -5.4260 1.2803
     vertex -0.7699 -5.4260 1.1523
   endloop
 endfacet
 facet normal 0.4914 -0.6326 -0.5987
   outer loop
     vertex -0.8819 -5.1666 0.8819
     vertex -0.7500 -4.9393 0.7500
     vertex -0.5893 -4.9393 0.8819
   endloop
 endfacet
 facet normal 0.4914 -0.6325 -0.5987
   outer loop
     vertex -0.5893 -4.9393 0.8819
     vertex -0.6929 -5.1666 1.0370
     vertex -0.8819 -5.1666 0.8819
   endloop
 endfacet
 facet normal 0.4918 -0.7716 -0.4034
   outer loop
     vertex -0.8819 -4.9393 0.5893
     vertex -0.6929 -4.7528 0.4630
     vertex -0.5893 -4.7528 0.5893
   endloop
 endfacet
 facet normal 0.4918 -0.7715 -0.4036
   outer loop
     vertex -0.5893 -4.7528 0.5893
     vertex -0.7500 -4.9393 0.7500
     vertex -0.8819 -4.9393 0.5893
   endloop
 endfacet
 facet normal 0.4173 -0.8810 -0.2230
   outer loop
     vertex -0.7699 -4.7528 0.3189
     vertex -0.5303 -4.6142 0.2197
     vertex -0.4773 -4.6142 0.3189
   endloop
 endfacet
 facet normal 0.4173 -0.8810 -0.2230
   outer loop
     vertex -0.4773 -4.6142 0.3189
     vertex -0.6929 -4.7528 0.4630
     vertex -0.7699 -4.7528 0.3189
   endloop
 endfacet
 facet normal 0.2792 -0.9565 -0.0844
   outer loop
     vertex -0.5630 -4.6142 0.1120
     vertex -0.2870 -4.5288 0.0571
     vertex -0.2704 -4.5288 0.1120
   endloop
 endfacet
 facet normal 0.2792 -0.9565 -0.0848
   outer loop
     vertex -0.2704 -4.5288 0.1120
     vertex -0.5303 -4.6142 0.2197
     vertex -0.5630 -4.6142 0.1120
   endloop
 endfacet
 facet normal 0.0980 -0.9951 -0.0096
   outer loop
     vertex -0.2870 -4.5288 0.0571
     vertex -0.2926 -4.5288 -0.0000
     vertex 0.0000 -4.5000 -0.0000
   endloop
 endfacet
 facet normal -0.0942 -0.9951 -0.0285
   outer loop
     vertex 0.2870 -4.5288 0.0571
     vertex 0.2704 -4.5288 0.1120
     vertex 0.0000 -4.5000 -0.0000
   endloop
 endfacet
 facet normal -0.2571 -0.9565 -0.1377
   outer loop
     vertex 0.4773 -4.6142 0.3189
     vertex 0.2433 -4.5288 0.1626
     vertex 0.2704 -4.5288 0.1120
   endloop
 endfacet
 facet normal -0.2573 -0.9565 -0.1375
   outer loop
     vertex 0.2704 -4.5288 0.1120
     vertex 0.5303 -4.6142 0.2197
     vertex 0.4773 -4.6142 0.3189
   endloop
 endfacet
 facet normal -0.3657 -0.8810 -0.3001
   outer loop
     vertex 0.5893 -4.7528 0.5893
     vertex 0.4059 -4.6142 0.4059
     vertex 0.4773 -4.6142 0.3189
   endloop
 endfacet
 facet normal -0.3658 -0.8810 -0.3001
   outer loop
     vertex 0.4773 -4.6142 0.3189
     vertex 0.6929 -4.7528 0.4630
     vertex 0.5893 -4.7528 0.5893
   endloop
 endfacet
 facet normal -0.4034 -0.7716 -0.4918
   outer loop
     vertex 0.5893 -4.9393 0.8819
     vertex 0.4630 -4.7528 0.6929
     vertex 0.5893 -4.7528 0.5893
   endloop
 endfacet
 facet normal -0.4036 -0.7715 -0.4918
   outer loop
     vertex 0.5893 -4.7528 0.5893
     vertex 0.7500 -4.9393 0.7500
     vertex 0.5893 -4.9393 0.8819
   endloop
 endfacet
 facet normal -0.3650 -0.6327 -0.6830
   outer loop
     vertex 0.4773 -5.1666 1.1523
     vertex 0.4059 -4.9393 0.9799
     vertex 0.5893 -4.9393 0.8819
   endloop
 endfacet
 facet normal -0.3653 -0.6325 -0.6830
   outer loop
     vertex 0.5893 -4.9393 0.8819
     vertex 0.6929 -5.1666 1.0370
     vertex 0.4773 -5.1666 1.1523
   endloop
 endfacet
 facet normal -0.2560 -0.4697 -0.8449
   outer loop
     vertex 0.2704 -5.4260 1.3592
     vertex 0.2433 -5.1666 1.2232
     vertex 0.4773 -5.1666 1.1523
   endloop
 endfacet
 facet normal -0.2565 -0.4693 -0.8449
   outer loop
     vertex 0.4773 -5.1666 1.1523
     vertex 0.5303 -5.4260 1.2803
     vertex 0.2704 -5.4260 1.3592
   endloop
 endfacet
 facet normal -0.0937 -0.2891 -0.9527
   outer loop
     vertex 0.0000 -5.7074 1.4712
     vertex 0.0000 -5.4260 1.3858
     vertex 0.2704 -5.4260 1.3592
   endloop
 endfacet
 facet normal -0.0939 -0.2889 -0.9527
   outer loop
     vertex 0.2704 -5.4260 1.3592
     vertex 0.2870 -5.7074 1.4429
     vertex 0.0000 -5.7074 1.4712
   endloop
 endfacet
 facet normal 0.0937 -0.2889 -0.9528
   outer loop
     vertex -0.2870 -5.7074 1.4429
     vertex -0.2704 -5.4260 1.3592
     vertex 0.0000 -5.4260 1.3858
   endloop
 endfacet
 facet normal 0.0939 -0.2891 -0.9527
   outer loop
     vertex 0.0000 -5.4260 1.3858
     vertex 0.0000 -5.7074 1.4712
     vertex -0.2870 -5.7074 1.4429
   endloop
 endfacet
 facet normal 0.2561 -0.4693 -0.8451
   outer loop
     vertex -0.5303 -5.4260 1.2803
     vertex -0.4773 -5.1666 1.1523
     vertex -0.2433 -5.1666 1.2232
   endloop
 endfacet
 facet normal 0.2565 -0.4697 -0.8448
   outer loop
     vertex -0.2433 -5.1666 1.2232
     vertex -0.2704 -5.4260 1.3592
     vertex -0.5303 -5.4260 1.2803
   endloop
 endfacet
 facet normal 0.3650 -0.6325 -0.6831
   outer loop
     vertex -0.6929 -5.1666 1.0370
     vertex -0.5893 -4.9393 0.8819
     vertex -0.4059 -4.9393 0.9799
   endloop
 endfacet
 facet normal 0.3652 -0.6327 -0.6829
   outer loop
     vertex -0.4059 -4.9393 0.9799
     vertex -0.4773 -5.1666 1.1523
     vertex -0.6929 -5.1666 1.0370
   endloop
 endfacet
 facet normal 0.4035 -0.7715 -0.4919
   outer loop
     vertex -0.7500 -4.9393 0.7500
     vertex -0.5893 -4.7528 0.5893
     vertex -0.4630 -4.7528 0.6929
   endloop
 endfacet
 facet normal 0.4036 -0.7716 -0.4917
   outer loop
     vertex -0.4630 -4.7528 0.6929
     vertex -0.5893 -4.9393 0.8819
     vertex -0.7500 -4.9393 0.7500
   endloop
 endfacet
 facet normal 0.3657 -0.8810 -0.3002
   outer loop
     vertex -0.6929 -4.7528 0.4630
     vertex -0.4773 -4.6142 0.3189
     vertex -0.4059 -4.6142 0.4059
   endloop
 endfacet
 facet normal 0.3658 -0.8810 -0.3000
   outer loop
     vertex -0.4059 -4.6142 0.4059
     vertex -0.5893 -4.7528 0.5893
     vertex -0.6929 -4.7528 0.4630
   endloop
 endfacet
 facet normal 0.2572 -0.9565 -0.1378
   outer loop
     vertex -0.5303 -4.6142 0.2197
     vertex -0.2704 -4.5288 0.1120
     vertex -0.2433 -4.5288 0.1626
   endloop
 endfacet
 facet normal 0.2573 -0.9565 -0.1375
   outer loop
     vertex -0.2433 -4.5288 0.1626
     vertex -0.4773 -4.6142 0.3189
     vertex -0.5303 -4.6142 0.2197
   endloop
 endfacet
 facet normal 0.0942 -0.9951 -0.0285
   outer loop
     vertex -0.2704 -4.5288 0.1120
     vertex -0.2870 -4.5288 0.0571
     vertex 0.0000 -4.5000 -0.0000
   endloop
 endfacet
 facet normal -0.0867 -0.9951 -0.0465
   outer loop
     vertex 0.2704 -4.5288 0.1120
     vertex 0.2433 -4.5288 0.1626
     vertex 0.0000 -4.5000 -0.0000
   endloop
 endfacet
 facet normal -0.2253 -0.9565 -0.1852
   outer loop
     vertex 0.4059 -4.6142 0.4059
     vertex 0.2069 -4.5288 0.2069
     vertex 0.2433 -4.5288 0.1626
   endloop
 endfacet
 facet normal -0.2255 -0.9565 -0.1851
   outer loop
     vertex 0.2433 -4.5288 0.1626
     vertex 0.4773 -4.6142 0.3189
     vertex 0.4059 -4.6142 0.4059
   endloop
 endfacet
 facet normal -0.3002 -0.8810 -0.3657
   outer loop
     vertex 0.4630 -4.7528 0.6929
     vertex 0.3189 -4.6142 0.4773
     vertex 0.4059 -4.6142 0.4059
   endloop
 endfacet
 facet normal -0.3000 -0.8810 -0.3658
   outer loop
     vertex 0.4059 -4.6142 0.4059
     vertex 0.5893 -4.7528 0.5893
     vertex 0.4630 -4.7528 0.6929
   endloop
 endfacet
 facet normal -0.2998 -0.7716 -0.5610
   outer loop
     vertex 0.4059 -4.9393 0.9799
     vertex 0.3189 -4.7528 0.7699
     vertex 0.4630 -4.7528 0.6929
   endloop
 endfacet
 facet normal -0.2998 -0.7716 -0.5610
   outer loop
     vertex 0.4630 -4.7528 0.6929
     vertex 0.5893 -4.9393 0.8819
     vertex 0.4059 -4.9393 0.9799
   endloop
 endfacet
 facet normal -0.2250 -0.6325 -0.7412
   outer loop
     vertex 0.2433 -5.1666 1.2232
     vertex 0.2069 -4.9393 1.0403
     vertex 0.4059 -4.9393 0.9799
   endloop
 endfacet
 facet normal -0.2246 -0.6327 -0.7411
   outer loop
     vertex 0.4059 -4.9393 0.9799
     vertex 0.4773 -5.1666 1.1523
     vertex 0.2433 -5.1666 1.2232
   endloop
 endfacet
 facet normal -0.0867 -0.4695 -0.8787
   outer loop
     vertex 0.0000 -5.4260 1.3858
     vertex 0.0000 -5.1666 1.2472
     vertex 0.2433 -5.1666 1.2232
   endloop
 endfacet
 facet normal -0.0864 -0.4697 -0.8786
   outer loop
     vertex 0.2433 -5.1666 1.2232
     vertex 0.2704 -5.4260 1.3592
     vertex 0.0000 -5.4260 1.3858
   endloop
 endfacet
 facet normal 0.0867 -0.4697 -0.8786
   outer loop
     vertex -0.2704 -5.4260 1.3592
     vertex -0.2433 -5.1666 1.2232
     vertex 0.0000 -5.1666 1.2472
   endloop
 endfacet
 facet normal 0.0864 -0.4695 -0.8787
   outer loop
     vertex 0.0000 -5.1666 1.2472
     vertex 0.0000 -5.4260 1.3858
     vertex -0.2704 -5.4260 1.3592
   endloop
 endfacet
 facet normal 0.2249 -0.6327 -0.7410
   outer loop
     vertex -0.4773 -5.1666 1.1523
     vertex -0.4059 -4.9393 0.9799
     vertex -0.2069 -4.9393 1.0403
   endloop
 endfacet
 facet normal 0.2246 -0.6325 -0.7413
   outer loop
     vertex -0.2069 -4.9393 1.0403
     vertex -0.2433 -5.1666 1.2232
     vertex -0.4773 -5.1666 1.1523
   endloop
 endfacet
 facet normal 0.2998 -0.7716 -0.5610
   outer loop
     vertex -0.5893 -4.9393 0.8819
     vertex -0.4630 -4.7528 0.6929
     vertex -0.3189 -4.7528 0.7699
   endloop
 endfacet
 facet normal 0.2998 -0.7716 -0.5610
   outer loop
     vertex -0.3189 -4.7528 0.7699
     vertex -0.4059 -4.9393 0.9799
     vertex -0.5893 -4.9393 0.8819
   endloop
 endfacet
 facet normal 0.3001 -0.8810 -0.3657
   outer loop
     vertex -0.5893 -4.7528 0.5893
     vertex -0.4059 -4.6142 0.4059
     vertex -0.3189 -4.6142 0.4773
   endloop
 endfacet
 facet normal 0.3001 -0.8810 -0.3658
   outer loop
     vertex -0.3189 -4.6142 0.4773
     vertex -0.4630 -4.7528 0.6929
     vertex -0.5893 -4.7528 0.5893
   endloop
 endfacet
 facet normal 0.2254 -0.9565 -0.1852
   outer loop
     vertex -0.4773 -4.6142 0.3189
     vertex -0.2433 -4.5288 0.1626
     vertex -0.2069 -4.5288 0.2069
   endloop
 endfacet
 facet normal 0.2255 -0.9565 -0.1850
   outer loop
     vertex -0.2069 -4.5288 0.2069
     vertex -0.4059 -4.6142 0.4059
     vertex -0.4773 -4.6142 0.3189
   endloop
 endfacet
 facet normal 0.0867 -0.9951 -0.0465
   outer loop
     vertex -0.2433 -4.5288 0.1626
     vertex -0.2704 -4.5288 0.1120
     vertex 0.0000 -4.5000 -0.0000
   endloop
 endfacet
 facet normal -0.0760 -0.9951 -0.0625
   outer loop
     vertex 0.2433 -4.5288 0.1626
     vertex 0.2069 -4.5288 0.2069
     vertex 0.0000 -4.5000 -0.0000
   endloop
 endfacet
 facet normal -0.1852 -0.9565 -0.2254
   outer loop
     vertex 0.3189 -4.6142 0.4773
     vertex 0.1626 -4.5288 0.2433
     vertex 0.2069 -4.5288 0.2069
   endloop
 endfacet
 facet normal -0.1850 -0.9565 -0.2255
   outer loop
     vertex 0.2069 -4.5288 0.2069
     vertex 0.4059 -4.6142 0.4059
     vertex 0.3189 -4.6142 0.4773
   endloop
 endfacet
 facet normal -0.2230 -0.8810 -0.4173
   outer loop
     vertex 0.3189 -4.7528 0.7699
     vertex 0.2197 -4.6142 0.5303
     vertex 0.3189 -4.6142 0.4773
   endloop
 endfacet
 facet normal -0.2230 -0.8810 -0.4173
   outer loop
     vertex 0.3189 -4.6142 0.4773
     vertex 0.4630 -4.7528 0.6929
     vertex 0.3189 -4.7528 0.7699
   endloop
 endfacet
 facet normal -0.1846 -0.7716 -0.6087
   outer loop
     vertex 0.2069 -4.9393 1.0403
     vertex 0.1626 -4.7528 0.8173
     vertex 0.3189 -4.7528 0.7699
   endloop
 endfacet
 facet normal -0.1848 -0.7716 -0.6087
   outer loop
     vertex 0.3189 -4.7528 0.7699
     vertex 0.4059 -4.9393 0.9799
     vertex 0.2069 -4.9393 1.0403
   endloop
 endfacet
 facet normal -0.0760 -0.6325 -0.7708
   outer loop
     vertex 0.0000 -5.1666 1.2472
     vertex 0.0000 -4.9393 1.0607
     vertex 0.2069 -4.9393 1.0403
   endloop
 endfacet
 facet normal -0.0760 -0.6325 -0.7709
   outer loop
     vertex 0.2069 -4.9393 1.0403
     vertex 0.2433 -5.1666 1.2232
     vertex 0.0000 -5.1666 1.2472
   endloop
 endfacet
 facet normal 0.0760 -0.6325 -0.7709
   outer loop
     vertex -0.2433 -5.1666 1.2232
     vertex -0.2069 -4.9393 1.0403
     vertex 0.0000 -4.9393 1.0607
   endloop
 endfacet
 facet normal 0.0760 -0.6325 -0.7708
   outer loop
     vertex 0.0000 -4.9393 1.0607
     vertex 0.0000 -5.1666 1.2472
     vertex -0.2433 -5.1666 1.2232
   endloop
 endfacet
 facet normal 0.1846 -0.7716 -0.6088
   outer loop
     vertex -0.4059 -4.9393 0.9799
     vertex -0.3189 -4.7528 0.7699
     vertex -0.1626 -4.7528 0.8173
   endloop
 endfacet
 facet normal 0.1847 -0.7716 -0.6086
   outer loop
     vertex -0.1626 -4.7528 0.8173
     vertex -0.2069 -4.9393 1.0403
     vertex -0.4059 -4.9393 0.9799
   endloop
 endfacet
 facet normal 0.2230 -0.8810 -0.4173
   outer loop
     vertex -0.4630 -4.7528 0.6929
     vertex -0.3189 -4.6142 0.4773
     vertex -0.2197 -4.6142 0.5303
   endloop
 endfacet
 facet normal 0.2230 -0.8810 -0.4173
   outer loop
     vertex -0.2197 -4.6142 0.5303
     vertex -0.3189 -4.7528 0.7699
     vertex -0.4630 -4.7528 0.6929
   endloop
 endfacet
 facet normal 0.1852 -0.9565 -0.2253
   outer loop
     vertex -0.4059 -4.6142 0.4059
     vertex -0.2069 -4.5288 0.2069
     vertex -0.1626 -4.5288 0.2433
   endloop
 endfacet
 facet normal 0.1851 -0.9565 -0.2255
   outer loop
     vertex -0.1626 -4.5288 0.2433
     vertex -0.3189 -4.6142 0.4773
     vertex -0.4059 -4.6142 0.4059
   endloop
 endfacet
 facet normal 0.0760 -0.9951 -0.0625
   outer loop
     vertex -0.2069 -4.5288 0.2069
     vertex -0.2433 -4.5288 0.1626
     vertex 0.0000 -4.5000 -0.0000
   endloop
 endfacet
 facet normal -0.0625 -0.9951 -0.0760
   outer loop
     vertex 0.2069 -4.5288 0.2069
     vertex 0.1626 -4.5288 0.2433
     vertex 0.0000 -4.5000 -0.0000
   endloop
 endfacet
 facet normal -0.1378 -0.9565 -0.2572
   outer loop
     vertex 0.2197 -4.6142 0.5303
     vertex 0.1120 -4.5288 0.2704
     vertex 0.1626 -4.5288 0.2433
   endloop
 endfacet
 facet normal -0.1375 -0.9565 -0.2573
   outer loop
     vertex 0.1626 -4.5288 0.2433
     vertex 0.3189 -4.6142 0.4773
     vertex 0.2197 -4.6142 0.5303
   endloop
 endfacet
 facet normal -0.1375 -0.8810 -0.4528
   outer loop
     vertex 0.1626 -4.7528 0.8173
     vertex 0.1120 -4.6142 0.5630
     vertex 0.2197 -4.6142 0.5303
   endloop
 endfacet
 facet normal -0.1373 -0.8810 -0.4528
   outer loop
     vertex 0.2197 -4.6142 0.5303
     vertex 0.3189 -4.7528 0.7699
     vertex 0.1626 -4.7528 0.8173
   endloop
 endfacet
 facet normal -0.0627 -0.7716 -0.6331
   outer loop
     vertex 0.0000 -4.9393 1.0607
     vertex 0.0000 -4.7528 0.8334
     vertex 0.1626 -4.7528 0.8173
   endloop
 endfacet
 facet normal -0.0624 -0.7717 -0.6330
   outer loop
     vertex 0.1626 -4.7528 0.8173
     vertex 0.2069 -4.9393 1.0403
     vertex 0.0000 -4.9393 1.0607
   endloop
 endfacet
 facet normal 0.0627 -0.7717 -0.6329
   outer loop
     vertex -0.2069 -4.9393 1.0403
     vertex -0.1626 -4.7528 0.8173
     vertex 0.0000 -4.7528 0.8334
   endloop
 endfacet
 facet normal 0.0624 -0.7716 -0.6331
   outer loop
     vertex 0.0000 -4.7528 0.8334
     vertex 0.0000 -4.9393 1.0607
     vertex -0.2069 -4.9393 1.0403
   endloop
 endfacet
 facet normal 0.1375 -0.8810 -0.4527
   outer loop
     vertex -0.3189 -4.7528 0.7699
     vertex -0.2197 -4.6142 0.5303
     vertex -0.1120 -4.6142 0.5630
   endloop
 endfacet
 facet normal 0.1373 -0.8810 -0.4528
   outer loop
     vertex -0.1120 -4.6142 0.5630
     vertex -0.1626 -4.7528 0.8173
     vertex -0.3189 -4.7528 0.7699
   endloop
 endfacet
 facet normal 0.1377 -0.9565 -0.2571
   outer loop
     vertex -0.3189 -4.6142 0.4773
     vertex -0.1626 -4.5288 0.2433
     vertex -0.1120 -4.5288 0.2704
   endloop
 endfacet
 facet normal 0.1375 -0.9565 -0.2573
   outer loop
     vertex -0.1120 -4.5288 0.2704
     vertex -0.2197 -4.6142 0.5303
     vertex -0.3189 -4.6142 0.4773
   endloop
 endfacet
 facet normal 0.0625 -0.9951 -0.0760
   outer loop
     vertex -0.1626 -4.5288 0.2433
     vertex -0.2069 -4.5288 0.2069
     vertex 0.0000 -4.5000 -0.0000
   endloop
 endfacet
 facet normal -0.0465 -0.9951 -0.0867
   outer loop
     vertex 0.1626 -4.5288 0.2433
     vertex 0.1120 -4.5288 0.2704
     vertex 0.0000 -4.5000 -0.0000
   endloop
 endfacet
 facet normal -0.0844 -0.9565 -0.2792
   outer loop
     vertex 0.1120 -4.6142 0.5630
     vertex 0.0571 -4.5288 0.2870
     vertex 0.1120 -4.5288 0.2704
   endloop
 endfacet
 facet normal -0.0848 -0.9565 -0.2792
   outer loop
     vertex 0.1120 -4.5288 0.2704
     vertex 0.2197 -4.6142 0.5303
     vertex 0.1120 -4.6142 0.5630
   endloop
 endfacet
 facet normal -0.0462 -0.8811 -0.4708
   outer loop
     vertex 0.0000 -4.7528 0.8334
     vertex 0.0000 -4.6142 0.5740
     vertex 0.1120 -4.6142 0.5630
   endloop
 endfacet
 facet normal -0.0466 -0.8810 -0.4709
   outer loop
     vertex 0.1120 -4.6142 0.5630
     vertex 0.1626 -4.7528 0.8173
     vertex 0.0000 -4.7528 0.8334
   endloop
 endfacet
 facet normal 0.0463 -0.8810 -0.4709
   outer loop
     vertex -0.1626 -4.7528 0.8173
     vertex -0.1120 -4.6142 0.5630
     vertex 0.0000 -4.6142 0.5740
   endloop
 endfacet
 facet normal 0.0466 -0.8810 -0.4707
   outer loop
     vertex 0.0000 -4.6142 0.5740
     vertex 0.0000 -4.7528 0.8334
     vertex -0.1626 -4.7528 0.8173
   endloop
 endfacet
 facet normal 0.0844 -0.9565 -0.2793
   outer loop
     vertex -0.2197 -4.6142 0.5303
     vertex -0.1120 -4.5288 0.2704
     vertex -0.0571 -4.5288 0.2870
   endloop
 endfacet
 facet normal 0.0847 -0.9565 -0.2791
   outer loop
     vertex -0.0571 -4.5288 0.2870
     vertex -0.1120 -4.6142 0.5630
     vertex -0.2197 -4.6142 0.5303
   endloop
 endfacet
 facet normal 0.0465 -0.9951 -0.0867
   outer loop
     vertex -0.1120 -4.5288 0.2704
     vertex -0.1626 -4.5288 0.2433
     vertex 0.0000 -4.5000 -0.0000
   endloop
 endfacet
 facet normal -0.0285 -0.9951 -0.0942
   outer loop
     vertex 0.1120 -4.5288 0.2704
     vertex 0.0571 -4.5288 0.2870
     vertex 0.0000 -4.5000 -0.0000
   endloop
 endfacet
 facet normal -0.0285 -0.9565 -0.2903
   outer loop
     vertex 0.0000 -4.6142 0.5740
     vertex 0.0000 -4.5288 0.2926
     vertex 0.0571 -4.5288 0.2870
   endloop
 endfacet
 facet normal -0.0285 -0.9565 -0.2903
   outer loop
     vertex 0.0571 -4.5288 0.2870
     vertex 0.1120 -4.6142 0.5630
     vertex 0.0000 -4.6142 0.5740
   endloop
 endfacet
 facet normal 0.0285 -0.9565 -0.2903
   outer loop
     vertex -0.1120 -4.6142 0.5630
     vertex -0.0571 -4.5288 0.2870
     vertex 0.0000 -4.5288 0.2926
   endloop
 endfacet
 facet normal 0.0285 -0.9565 -0.2903
   outer loop
     vertex 0.0000 -4.5288 0.2926
     vertex 0.0000 -4.6142 0.5740
     vertex -0.1120 -4.6142 0.5630
   endloop
 endfacet
 facet normal 0.0285 -0.9951 -0.0942
   outer loop
     vertex -0.0571 -4.5288 0.2870
     vertex -0.1120 -4.5288 0.2704
     vertex 0.0000 -4.5000 -0.0000
   endloop
 endfacet
 facet normal -0.0096 -0.9951 -0.0980
   outer loop
     vertex 0.0571 -4.5288 0.2870
     vertex 0.0000 -4.5288 0.2926
     vertex 0.0000 -4.5000 -0.0000
   endloop
 endfacet
 facet normal 0.0096 -0.9951 -0.0980
   outer loop
     vertex 0.0000 -4.5288 0.2926
     vertex -0.0571 -4.5288 0.2870
     vertex 0.0000 -4.5000 -0.0000
   endloop
 endfacet
endsolid
